{
.appVersion = "1271";
date = "2019-10-25 21:28:01 +0000";
disablesAutomaticAlignment = 1;
familyName = NerdfontsPL;
fontMaster = (
{
ascender = 1568;
capHeight = 1420;
custom = Book;
customParameters = (
{
name = typoAscender;
value = 1568;
},
{
name = typoDescender;
value = -480;
},
{
name = typoLineGap;
value = 410;
},
{
name = winAscent;
value = 1978;
},
{
name = winDescent;
value = 480;
},
{
name = hheaAscender;
value = 1978;
},
{
name = hheaDescender;
value = -480;
},
{
name = strikeoutPosition;
value = 636;
},
{
name = strikeoutSize;
value = 50;
}
);
descender = -480;
id = "F8C3375C-B372-4BAE-A3FB-5A8DC7FA7AB9";
weightValue = 400;
widthValue = 5;
xHeight = 1060;
}
);
glyphs = (
{
color = 2;
glyphname = uniE0A0;
lastChange = "2019-11-04 21:29:28 +0000";
layers = (
{
layerId = "F8C3375C-B372-4BAE-A3FB-5A8DC7FA7AB9";
paths = (
{
closed = 1;
nodes = (
"129 1906 LINE",
"129 598 LINE",
"405 776 LINE",
"405 1906 LINE",
"129 1906 LINE"
);
},
{
closed = 1;
nodes = (
"129 74 LINE",
"129 -408 LINE",
"405 -408 LINE",
"405 74 LINE SMOOTH",
"405 157 OFFCURVE",
"419 222 OFFCURVE",
"446 270 CURVE SMOOTH",
"467 309 OFFCURVE",
"509 349 OFFCURVE",
"573 392 CURVE SMOOTH",
"649 444 LINE SMOOTH",
"720 489 OFFCURVE",
"773 547 OFFCURVE",
"808 616 CURVE SMOOTH",
"844 685 OFFCURVE",
"862 783 OFFCURVE",
"862 910 CURVE SMOOTH",
"862 1296 LINE",
"1071 1296 LINE",
"780 1638 LINE",
"487 1296 LINE",
"696 1296 LINE",
"696 966 LINE SMOOTH",
"696 878 OFFCURVE",
"683 809 OFFCURVE",
"657 758 CURVE SMOOTH",
"629 702 OFFCURVE",
"587 655 OFFCURVE",
"530 618 CURVE SMOOTH",
"376 520 LINE SMOOTH",
"302 472 OFFCURVE",
"246 421 OFFCURVE",
"208 366 CURVE SMOOTH",
"155 291 OFFCURVE",
"129 194 OFFCURVE",
"129 74 CURVE"
);
}
);
width = 1200;
}
);
note = uniE0A0;
unicode = E0A0;
},
{
color = 2;
glyphname = uniE0A1;
lastChange = "2019-11-04 21:29:28 +0000";
layers = (
{
layerId = "F8C3375C-B372-4BAE-A3FB-5A8DC7FA7AB9";
paths = (
{
closed = 1;
nodes = (
"266 1690 LINE",
"266 790 LINE",
"770 790 LINE",
"770 922 LINE",
"418 922 LINE",
"418 1690 LINE",
"266 1690 LINE"
);
},
{
closed = 1;
nodes = (
"386 708 LINE",
"386 -192 LINE",
"542 -192 LINE",
"542 4 LINE",
"524 392 LINE",
"768 -192 LINE",
"934 -192 LINE",
"934 708 LINE",
"778 708 LINE",
"778 550 LINE",
"798 122 LINE",
"550 708 LINE",
"386 708 LINE"
);
}
);
width = 1200;
}
);
note = uniE0A1;
unicode = E0A1;
},
{
color = 2;
glyphname = uniE0A2;
lastChange = "2019-11-04 21:29:28 +0000";
layers = (
{
layerId = "F8C3375C-B372-4BAE-A3FB-5A8DC7FA7AB9";
paths = (
{
closed = 1;
nodes = (
"334 -52 LINE",
"864 -52 LINE SMOOTH",
"959 -52 OFFCURVE",
"1006 -5 OFFCURVE",
"1006 89 CURVE SMOOTH",
"1006 777 LINE SMOOTH",
"1006 878 OFFCURVE",
"965 929 OFFCURVE",
"884 929 CURVE",
"884 1234 LINE SMOOTH",
"884 1325 OFFCURVE",
"856 1402 OFFCURVE",
"800 1464 CURVE SMOOTH",
"747 1521 OFFCURVE",
"680 1550 OFFCURVE",
"600 1550 CURVE SMOOTH",
"520 1550 OFFCURVE",
"453 1521 OFFCURVE",
"400 1464 CURVE SMOOTH",
"344 1402 OFFCURVE",
"316 1325 OFFCURVE",
"316 1234 CURVE SMOOTH",
"316 929 LINE",
"235 929 OFFCURVE",
"194 878 OFFCURVE",
"194 777 CURVE SMOOTH",
"194 89 LINE SMOOTH",
"194 -5 OFFCURVE",
"241 -52 OFFCURVE",
"334 -52 CURVE"
);
},
{
closed = 1;
nodes = (
"748 929 LINE",
"452 929 LINE",
"452 1234 LINE SMOOTH",
"452 1292 OFFCURVE",
"465 1337 OFFCURVE",
"492 1369 CURVE SMOOTH",
"520 1404 OFFCURVE",
"556 1421 OFFCURVE",
"600 1421 CURVE SMOOTH",
"643 1421 OFFCURVE",
"678 1404 OFFCURVE",
"706 1369 CURVE SMOOTH",
"734 1336 OFFCURVE",
"748 1291 OFFCURVE",
"748 1234 CURVE SMOOTH",
"748 929 LINE"
);
},
{
closed = 1;
nodes = (
"656 184 LINE",
"542 184 LINE",
"542 507 LINE",
"498 530 OFFCURVE",
"476 567 OFFCURVE",
"476 618 CURVE SMOOTH",
"476 653 OFFCURVE",
"488 682 OFFCURVE",
"512 706 CURVE SMOOTH",
"536 731 OFFCURVE",
"565 743 OFFCURVE",
"599 743 CURVE SMOOTH",
"633 743 OFFCURVE",
"663 731 OFFCURVE",
"688 706 CURVE SMOOTH",
"711 683 OFFCURVE",
"722 653 OFFCURVE",
"722 618 CURVE SMOOTH",
"722 567 OFFCURVE",
"700 530 OFFCURVE",
"656 507 CURVE",
"656 184 LINE"
);
}
);
width = 1200;
}
);
note = uniE0A2;
unicode = E0A2;
},
{
color = 2;
glyphname = uniE0B0;
lastChange = "2019-11-04 21:29:28 +0000";
layers = (
{
layerId = "F8C3375C-B372-4BAE-A3FB-5A8DC7FA7AB9";
paths = (
{
closed = 1;
nodes = (
"0 2003 LINE",
"0 -505 LINE",
"1200 750 LINE",
"0 2003 LINE"
);
}
);
width = 1200;
}
);
note = uniE0B0;
unicode = E0B0;
},
{
color = 2;
glyphname = uniE0B1;
lastChange = "2019-11-04 21:29:28 +0000";
layers = (
{
layerId = "F8C3375C-B372-4BAE-A3FB-5A8DC7FA7AB9";
paths = (
{
closed = 1;
nodes = (
"0 -397 LINE",
"103 -505 LINE",
"1200 750 LINE",
"103 2003 LINE",
"0 1896 LINE",
"1000 750 LINE",
"0 -397 LINE"
);
}
);
width = 1200;
}
);
note = uniE0B1;
unicode = E0B1;
},
{
color = 2;
glyphname = uniE0B2;
lastChange = "2019-11-04 21:29:28 +0000";
layers = (
{
layerId = "F8C3375C-B372-4BAE-A3FB-5A8DC7FA7AB9";
paths = (
{
closed = 1;
nodes = (
"0 750 LINE",
"1200 -505 LINE",
"1200 2003 LINE",
"0 750 LINE"
);
}
);
width = 1200;
}
);
note = uniE0B2;
unicode = E0B2;
},
{
color = 2;
glyphname = uniE0B3;
lastChange = "2019-11-04 21:29:28 +0000";
layers = (
{
layerId = "F8C3375C-B372-4BAE-A3FB-5A8DC7FA7AB9";
paths = (
{
closed = 1;
nodes = (
"0 750 LINE",
"1098 -505 LINE",
"1200 -397 LINE",
"197 750 LINE",
"1200 1896 LINE",
"1098 2003 LINE",
"0 750 LINE"
);
}
);
width = 1200;
}
);
note = uniE0B3;
unicode = E0B3;
},
{
color = 0;
glyphname = uniE5FA;
lastChange = "2019-11-04 21:29:28 +0000";
layers = (
{
layerId = "F8C3375C-B372-4BAE-A3FB-5A8DC7FA7AB9";
paths = (
{
closed = 1;
nodes = (
"43 1164 LINE",
"43 258 LINE",
"1157 258 LINE",
"1157 1024 LINE",
"669 1024 LINE",
"530 1164 LINE",
"43 1164 LINE"
);
},
{
closed = 1;
nodes = (
"595 452 LINE",
"370 452 LINE",
"370 508 LINE",
"93 508 LINE",
"93 845 LINE",
"1095 845 LINE",
"1095 508 LINE",
"595 508 LINE",
"595 452 LINE"
);
},
{
closed = 1;
nodes = (
"150 789 LINE",
"150 564 LINE",
"262 564 LINE",
"262 729 LINE",
"314 729 LINE",
"314 564 LINE",
"370 564 LINE",
"370 789 LINE",
"150 789 LINE"
);
},
{
closed = 1;
nodes = (
"428 789 LINE",
"428 508 LINE",
"540 508 LINE",
"540 564 LINE",
"650 564 LINE",
"650 789 LINE",
"428 789 LINE"
);
},
{
closed = 1;
nodes = (
"705 789 LINE",
"705 564 LINE",
"818 564 LINE",
"818 729 LINE",
"874 729 LINE",
"874 564 LINE",
"930 564 LINE",
"930 729 LINE",
"986 729 LINE",
"986 564 LINE",
"1042 564 LINE",
"1042 789 LINE",
"705 789 LINE"
);
},
{
closed = 1;
nodes = (
"595 624 LINE",
"540 624 LINE",
"540 729 LINE",
"595 729 LINE",
"595 624 LINE"
);
}
);
width = 1200;
}
);
note = uniE5FA;
unicode = E5FA;
},
{
color = 0;
glyphname = uniE5FB;
lastChange = "2019-11-04 21:29:28 +0000";
layers = (
{
layerId = "F8C3375C-B372-4BAE-A3FB-5A8DC7FA7AB9";
paths = (
{
closed = 1;
nodes = (
"48 1157 LINE",
"48 257 LINE",
"1153 257 LINE",
"1153 1019 LINE",
"670 1019 LINE",
"532 1157 LINE",
"48 1157 LINE"
);
},
{
closed = 1;
nodes = (
"595 334 LINE",
"583 334 OFFCURVE",
"574 338 OFFCURVE",
"568 347 CURVE",
"297 619 LINE SMOOTH",
"288 627 OFFCURVE",
"284 636 OFFCURVE",
"284 646 CURVE SMOOTH",
"284 656 OFFCURVE",
"288 665 OFFCURVE",
"297 674 CURVE SMOOTH",
"481 861 LINE",
"552 790 LINE",
"550 785 OFFCURVE",
"549 779 OFFCURVE",
"549 772 CURVE SMOOTH",
"549 768 OFFCURVE",
"549 765 OFFCURVE",
"549 762 CURVE SMOOTH",
"551 750 OFFCURVE",
"556 742 OFFCURVE",
"564 738 CURVE",
"570 731 LINE",
"571 729 OFFCURVE",
"574 727 OFFCURVE",
"579 727 CURVE",
"579 556 LINE",
"576 556 OFFCURVE",
"573 555 OFFCURVE",
"570 552 CURVE",
"566 550 LINE",
"564 547 LINE",
"554 537 OFFCURVE",
"549 525 OFFCURVE",
"549 512 CURVE SMOOTH",
"549 499 OFFCURVE",
"554 488 OFFCURVE",
"564 480 CURVE",
"573 469 OFFCURVE",
"583 464 OFFCURVE",
"596 464 CURVE SMOOTH",
"609 464 OFFCURVE",
"621 469 OFFCURVE",
"631 480 CURVE SMOOTH",
"640 488 OFFCURVE",
"644 499 OFFCURVE",
"644 512 CURVE SMOOTH",
"644 525 OFFCURVE",
"640 537 OFFCURVE",
"631 547 CURVE SMOOTH",
"629 549 OFFCURVE",
"627 550 OFFCURVE",
"624 550 CURVE",
"621 553 LINE",
"619 553 OFFCURVE",
"618 554 OFFCURVE",
"617 555 CURVE",
"617 725 LINE",
"681 661 LINE",
"680 656 OFFCURVE",
"678 650 OFFCURVE",
"678 643 CURVE SMOOTH",
"678 640 OFFCURVE",
"678 637 OFFCURVE",
"679 634 CURVE SMOOTH",
"680 627 OFFCURVE",
"684 618 OFFCURVE",
"693 607 CURVE",
"704 599 OFFCURVE",
"715 595 OFFCURVE",
"725 595 CURVE SMOOTH",
"734 595 OFFCURVE",
"746 599 OFFCURVE",
"759 607 CURVE",
"769 618 OFFCURVE",
"774 630 OFFCURVE",
"774 642 CURVE SMOOTH",
"774 655 OFFCURVE",
"769 667 OFFCURVE",
"759 676 CURVE SMOOTH",
"754 680 OFFCURVE",
"750 682 OFFCURVE",
"748 683 CURVE SMOOTH",
"736 687 OFFCURVE",
"728 690 OFFCURVE",
"723 690 CURVE",
"710 686 LINE",
"640 755 LINE",
"642 761 OFFCURVE",
"644 767 OFFCURVE",
"644 773 CURVE SMOOTH",
"644 776 OFFCURVE",
"644 779 OFFCURVE",
"643 782 CURVE SMOOTH",
"638 794 OFFCURVE",
"634 802 OFFCURVE",
"631 805 CURVE SMOOTH",
"625 811 OFFCURVE",
"617 815 OFFCURVE",
"607 817 CURVE SMOOTH",
"604 818 OFFCURVE",
"600 818 OFFCURVE",
"593 818 CURVE SMOOTH",
"588 818 OFFCURVE",
"584 818 OFFCURVE",
"581 817 CURVE",
"509 889 LINE",
"565 946 LINE SMOOTH",
"572 953 OFFCURVE",
"581 956 OFFCURVE",
"593 956 CURVE SMOOTH",
"606 956 OFFCURVE",
"615 953 OFFCURVE",
"623 946 CURVE SMOOTH",
"895 674 LINE",
"902 664 OFFCURVE",
"905 654 OFFCURVE",
"905 643 CURVE SMOOTH",
"905 632 OFFCURVE",
"902 623 OFFCURVE",
"895 616 CURVE SMOOTH",
"623 347 LINE",
"617 338 OFFCURVE",
"607 334 OFFCURVE",
"595 334 CURVE"
);
}
);
width = 1200;
}
);
note = uniE5FB;
unicode = E5FB;
},
{
color = 0;
glyphname = uniE5FC;
lastChange = "2019-11-04 21:29:28 +0000";
layers = (
{
layerId = "F8C3375C-B372-4BAE-A3FB-5A8DC7FA7AB9";
paths = (
{
closed = 1;
nodes = (
"48 1157 LINE",
"48 257 LINE",
"1153 257 LINE",
"1153 1019 LINE",
"670 1019 LINE",
"532 1157 LINE",
"48 1157 LINE"
);
},
{
closed = 1;
nodes = (
"532 325 LINE",
"507 325 OFFCURVE",
"472 352 OFFCURVE",
"457 351 CURVE",
"451 356 OFFCURVE",
"446 360 OFFCURVE",
"440 366 CURVE",
"440 371 LINE",
"438 375 LINE",
"440 378 OFFCURVE",
"441 382 OFFCURVE",
"440 386 CURVE",
"447 392 OFFCURVE",
"448 404 OFFCURVE",
"453 412 CURVE",
"453 416 LINE",
"455 419 OFFCURVE",
"455 422 OFFCURVE",
"457 425 CURVE",
"454 427 OFFCURVE",
"448 432 OFFCURVE",
"444 434 CURVE",
"443 436 OFFCURVE",
"441 439 OFFCURVE",
"438 440 CURVE",
"436 444 LINE",
"432 445 LINE",
"427 454 OFFCURVE",
"418 465 OFFCURVE",
"410 472 CURVE",
"400 472 LINE",
"397 471 OFFCURVE",
"376 462 OFFCURVE",
"374 459 CURVE",
"366 454 LINE",
"363 454 OFFCURVE",
"358 454 OFFCURVE",
"355 453 CURVE",
"353 454 LINE",
"347 454 LINE",
"333 470 OFFCURVE",
"330 473 OFFCURVE",
"321 493 CURVE",
"321 506 OFFCURVE",
"302 530 OFFCURVE",
"302 551 CURVE SMOOTH",
"302 554 OFFCURVE",
"302 557 OFFCURVE",
"304 560 CURVE",
"306 561 OFFCURVE",
"318 570 OFFCURVE",
"325 572 CURVE",
"332 579 OFFCURVE",
"344 578 OFFCURVE",
"351 584 CURVE",
"351 585 LINE",
"354 588 LINE",
"355 588 LINE",
"355 599 LINE SMOOTH",
"355 616 OFFCURVE",
"358 639 OFFCURVE",
"351 655 CURVE",
"344 659 LINE",
"342 662 OFFCURVE",
"334 663 OFFCURVE",
"331 665 CURVE",
"326 665 LINE",
"308 683 OFFCURVE",
"298 664 OFFCURVE",
"298 707 CURVE",
"310 727 OFFCURVE",
"310 752 OFFCURVE",
"325 770 CURVE",
"326 773 OFFCURVE",
"328 777 OFFCURVE",
"330 780 CURVE",
"331 784 OFFCURVE",
"335 786 OFFCURVE",
"339 786 CURVE",
"347 789 LINE",
"353 788 OFFCURVE",
"358 786 OFFCURVE",
"364 785 CURVE",
"367 783 OFFCURVE",
"371 781 OFFCURVE",
"374 780 CURVE",
"376 777 LINE",
"382 777 OFFCURVE",
"392 774 OFFCURVE",
"398 772 CURVE",
"401 776 OFFCURVE",
"414 788 OFFCURVE",
"415 794 CURVE",
"421 797 OFFCURVE",
"428 803 OFFCURVE",
"432 809 CURVE",
"435 810 OFFCURVE",
"439 815 OFFCURVE",
"441 817 CURVE",
"444 818 LINE",
"444 819 OFFCURVE",
"445 820 OFFCURVE",
"445 821 CURVE SMOOTH",
"445 828 LINE",
"442 834 LINE",
"439 836 OFFCURVE",
"437 840 OFFCURVE",
"437 844 CURVE",
"433 852 OFFCURVE",
"430 860 OFFCURVE",
"427 868 CURVE",
"427 880 LINE SMOOTH",
"427 883 OFFCURVE",
"429 887 OFFCURVE",
"432 888 CURVE",
"445 901 OFFCURVE",
"493 919 OFFCURVE",
"513 927 CURVE",
"523 927 LINE",
"525 926 OFFCURVE",
"528 924 OFFCURVE",
"531 924 CURVE",
"534 921 LINE",
"541 921 OFFCURVE",
"557 875 OFFCURVE",
"557 874 CURVE",
"558 874 OFFCURVE",
"560 874 OFFCURVE",
"560 873 CURVE",
"611 873 LINE SMOOTH",
"617 873 OFFCURVE",
"622 877 OFFCURVE",
"628 877 CURVE",
"639 888 OFFCURVE",
"638 911 OFFCURVE",
"648 921 CURVE",
"650 930 OFFCURVE",
"667 931 OFFCURVE",
"674 931 CURVE SMOOTH",
"681 931 OFFCURVE",
"740 903 OFFCURVE",
"745 902 CURVE",
"758 903 OFFCURVE",
"762 884 OFFCURVE",
"762 873 CURVE SMOOTH",
"762 870 OFFCURVE",
"760 866 OFFCURVE",
"758 864 CURVE",
"757 856 OFFCURVE",
"749 839 OFFCURVE",
"745 831 CURVE",
"749 829 OFFCURVE",
"754 823 OFFCURVE",
"757 819 CURVE",
"758 819 OFFCURVE",
"776 803 OFFCURVE",
"781 800 CURVE",
"783 794 OFFCURVE",
"784 789 OFFCURVE",
"790 785 CURVE",
"791 785 LINE",
"795 782 LINE",
"800 782 LINE",
"818 790 LINE",
"828 800 OFFCURVE",
"835 801 OFFCURVE",
"849 801 CURVE SMOOTH",
"858 801 OFFCURVE",
"864 792 OFFCURVE",
"869 786 CURVE",
"869 767 OFFCURVE",
"889 756 OFFCURVE",
"889 736 CURVE",
"894 728 OFFCURVE",
"901 715 OFFCURVE",
"901 706 CURVE SMOOTH",
"901 692 OFFCURVE",
"860 673 OFFCURVE",
"849 670 CURVE SMOOTH",
"848 670 LINE",
"845 668 LINE",
"845 633 LINE SMOOTH",
"845 622 OFFCURVE",
"848 611 OFFCURVE",
"848 599 CURVE",
"850 597 OFFCURVE",
"853 596 OFFCURVE",
"855 595 CURVE",
"858 595 OFFCURVE",
"862 593 OFFCURVE",
"864 591 CURVE",
"872 588 OFFCURVE",
"890 585 OFFCURVE",
"895 580 CURVE",
"903 578 OFFCURVE",
"902 562 OFFCURVE",
"902 556 CURVE SMOOTH",
"902 553 OFFCURVE",
"902 550 OFFCURVE",
"901 547 CURVE",
"897 542 OFFCURVE",
"895 537 OFFCURVE",
"893 531 CURVE",
"893 516 OFFCURVE",
"877 501 OFFCURVE",
"877 484 CURVE",
"868 469 OFFCURVE",
"863 467 OFFCURVE",
"848 467 CURVE SMOOTH",
"835 467 OFFCURVE",
"824 478 OFFCURVE",
"812 478 CURVE",
"809 481 LINE",
"807 482 OFFCURVE",
"804 482 OFFCURVE",
"801 482 CURVE",
"800 480 OFFCURVE",
"794 473 OFFCURVE",
"791 472 CURVE",
"786 467 LINE",
"784 457 OFFCURVE",
"764 445 OFFCURVE",
"757 437 CURVE",
"757 429 LINE",
"760 420 OFFCURVE",
"767 411 OFFCURVE",
"767 401 CURVE",
"773 395 OFFCURVE",
"776 386 OFFCURVE",
"776 378 CURVE",
"774 373 OFFCURVE",
"771 369 OFFCURVE",
"767 365 CURVE",
"764 354 OFFCURVE",
"707 341 OFFCURVE",
"693 330 CURVE",
"688 328 OFFCURVE",
"683 327 OFFCURVE",
"678 327 CURVE SMOOTH",
"672 327 OFFCURVE",
"668 330 OFFCURVE",
"664 333 CURVE",
"664 337 OFFCURVE",
"663 340 OFFCURVE",
"659 342 CURVE",
"655 350 OFFCURVE",
"652 358 OFFCURVE",
"651 366 CURVE",
"648 369 OFFCURVE",
"646 374 OFFCURVE",
"644 378 CURVE",
"644 381 LINE",
"572 381 LINE",
"569 371 LINE",
"565 370 OFFCURVE",
"559 348 OFFCURVE",
"557 344 CURVE",
"557 330 OFFCURVE",
"544 325 OFFCURVE",
"532 325 CURVE"
);
},
{
closed = 1;
nodes = (
"601 502 LINE",
"675 502 OFFCURVE",
"723 549 OFFCURVE",
"723 621 CURVE SMOOTH",
"723 699 OFFCURVE",
"673 751 OFFCURVE",
"598 751 CURVE SMOOTH",
"525 751 OFFCURVE",
"477 701 OFFCURVE",
"477 624 CURVE SMOOTH",
"477 550 OFFCURVE",
"526 502 OFFCURVE",
"601 502 CURVE"
);
}
);
width = 1200;
}
);
note = uniE5FC;
unicode = E5FC;
},
{
color = 0;
glyphname = uniE5FD;
lastChange = "2019-11-04 21:29:28 +0000";
layers = (
{
layerId = "F8C3375C-B372-4BAE-A3FB-5A8DC7FA7AB9";
paths = (
{
closed = 1;
nodes = (
"43 1164 LINE",
"43 258 LINE",
"1157 258 LINE",
"1157 1025 LINE",
"670 1025 LINE",
"531 1164 LINE",
"43 1164 LINE"
);
},
{
closed = 1;
nodes = (
"618 371 LINE",
"587 371 LINE SMOOTH",
"584 371 OFFCURVE",
"581 371 OFFCURVE",
"578 372 CURVE",
"550 372 LINE",
"545 374 OFFCURVE",
"542 374 OFFCURVE",
"540 374 CURVE SMOOTH",
"510 374 LINE SMOOTH",
"506 374 OFFCURVE",
"503 375 OFFCURVE",
"501 376 CURVE",
"490 376 LINE SMOOTH",
"482 376 OFFCURVE",
"474 378 OFFCURVE",
"466 381 CURVE",
"459 381 OFFCURVE",
"449 382 OFFCURVE",
"436 384 CURVE SMOOTH",
"435 384 OFFCURVE",
"433 385 OFFCURVE",
"431 387 CURVE",
"424 389 LINE SMOOTH",
"412 393 OFFCURVE",
"404 397 OFFCURVE",
"400 399 CURVE SMOOTH",
"391 403 OFFCURVE",
"382 408 OFFCURVE",
"373 415 CURVE SMOOTH",
"370 417 OFFCURVE",
"362 423 OFFCURVE",
"350 433 CURVE SMOOTH",
"338 443 OFFCURVE",
"330 451 OFFCURVE",
"325 457 CURVE",
"319 468 OFFCURVE",
"312 474 OFFCURVE",
"305 486 CURVE SMOOTH",
"301 493 OFFCURVE",
"295 505 OFFCURVE",
"290 522 CURVE",
"289 523 OFFCURVE",
"289 527 OFFCURVE",
"287 531 CURVE",
"285 540 LINE SMOOTH",
"279 557 OFFCURVE",
"275 572 OFFCURVE",
"274 586 CURVE SMOOTH",
"274 591 OFFCURVE",
"273 600 OFFCURVE",
"273 612 CURVE SMOOTH",
"273 635 LINE SMOOTH",
"273 667 OFFCURVE",
"277 692 OFFCURVE",
"285 712 CURVE SMOOTH",
"295 736 OFFCURVE",
"308 757 OFFCURVE",
"325 778 CURVE",
"325 778 OFFCURVE",
"324 779 OFFCURVE",
"324 782 CURVE",
"323 784 OFFCURVE",
"323 787 OFFCURVE",
"323 792 CURVE SMOOTH",
"323 797 OFFCURVE",
"323 810 OFFCURVE",
"325 834 CURVE SMOOTH",
"325 852 OFFCURVE",
"328 869 OFFCURVE",
"333 886 CURVE SMOOTH",
"335 891 OFFCURVE",
"340 908 OFFCURVE",
"348 935 CURVE",
"372 934 OFFCURVE",
"397 926 OFFCURVE",
"423 912 CURVE",
"443 904 OFFCURVE",
"472 886 OFFCURVE",
"512 861 CURVE",
"519 863 OFFCURVE",
"533 865 OFFCURVE",
"551 867 CURVE SMOOTH",
"563 867 OFFCURVE",
"571 868 OFFCURVE",
"577 869 CURVE",
"632 869 LINE",
"677 865 LINE",
"695 861 LINE",
"702 864 OFFCURVE",
"710 869 OFFCURVE",
"719 875 CURVE SMOOTH",
"743 890 OFFCURVE",
"757 898 OFFCURVE",
"760 899 CURVE SMOOTH",
"801 918 LINE",
"830 929 LINE",
"839 933 LINE",
"858 935 LINE",
"867 913 OFFCURVE",
"872 897 OFFCURVE",
"875 886 CURVE SMOOTH",
"880 871 OFFCURVE",
"882 854 OFFCURVE",
"882 834 CURVE",
"885 823 OFFCURVE",
"886 809 OFFCURVE",
"886 792 CURVE SMOOTH",
"886 782 LINE",
"885 779 OFFCURVE",
"884 778 OFFCURVE",
"882 778 CURVE",
"897 761 OFFCURVE",
"910 738 OFFCURVE",
"921 712 CURVE SMOOTH",
"930 689 OFFCURVE",
"935 663 OFFCURVE",
"935 635 CURVE SMOOTH",
"935 612 LINE SMOOTH",
"933 586 OFFCURVE",
"931 570 OFFCURVE",
"930 563 CURVE SMOOTH",
"929 555 OFFCURVE",
"925 541 OFFCURVE",
"918 522 CURVE SMOOTH",
"902 487 LINE SMOOTH",
"899 480 OFFCURVE",
"892 471 OFFCURVE",
"882 459 CURVE SMOOTH",
"878 454 OFFCURVE",
"870 446 OFFCURVE",
"859 435 CURVE SMOOTH",
"851 427 OFFCURVE",
"843 420 OFFCURVE",
"834 415 CURVE SMOOTH",
"832 414 OFFCURVE",
"828 411 OFFCURVE",
"822 408 CURVE SMOOTH",
"816 404 OFFCURVE",
"812 401 OFFCURVE",
"808 400 CURVE",
"800 394 OFFCURVE",
"791 391 OFFCURVE",
"784 389 CURVE",
"782 389 OFFCURVE",
"778 388 OFFCURVE",
"772 387 CURVE SMOOTH",
"766 385 OFFCURVE",
"761 384 OFFCURVE",
"757 384 CURVE",
"756 383 OFFCURVE",
"754 383 OFFCURVE",
"751 382 CURVE",
"748 382 OFFCURVE",
"745 382 OFFCURVE",
"743 381 CURVE SMOOTH",
"735 378 OFFCURVE",
"726 376 OFFCURVE",
"718 376 CURVE SMOOTH",
"708 376 LINE",
"705 375 OFFCURVE",
"702 374 OFFCURVE",
"699 374 CURVE SMOOTH",
"665 374 LINE",
"657 372 LINE",
"629 372 LINE",
"627 371 OFFCURVE",
"623 371 OFFCURVE",
"618 371 CURVE"
);
},
{
closed = 1;
nodes = (
"601 405 LINE",
"606 405 LINE SMOOTH",
"650 405 OFFCURVE",
"685 407 OFFCURVE",
"711 412 CURVE SMOOTH",
"738 416 OFFCURVE",
"763 423 OFFCURVE",
"785 435 CURVE",
"807 444 OFFCURVE",
"823 458 OFFCURVE",
"833 478 CURVE SMOOTH",
"844 499 OFFCURVE",
"849 523 OFFCURVE",
"849 552 CURVE SMOOTH",
"849 567 OFFCURVE",
"845 582 OFFCURVE",
"838 599 CURVE SMOOTH",
"833 615 OFFCURVE",
"823 629 OFFCURVE",
"808 640 CURVE",
"807 642 OFFCURVE",
"801 646 OFFCURVE",
"788 653 CURVE SMOOTH",
"780 657 OFFCURVE",
"771 661 OFFCURVE",
"761 662 CURVE SMOOTH",
"753 664 OFFCURVE",
"742 665 OFFCURVE",
"729 665 CURVE SMOOTH",
"721 665 OFFCURVE",
"705 664 OFFCURVE",
"682 662 CURVE SMOOTH",
"676 661 OFFCURVE",
"667 661 OFFCURVE",
"656 661 CURVE",
"653 660 OFFCURVE",
"650 660 OFFCURVE",
"645 659 CURVE SMOOTH",
"640 659 OFFCURVE",
"636 659 OFFCURVE",
"635 658 CURVE",
"577 658 LINE",
"574 659 OFFCURVE",
"569 659 OFFCURVE",
"562 659 CURVE SMOOTH",
"552 659 OFFCURVE",
"540 660 OFFCURVE",
"526 662 CURVE",
"517 662 OFFCURVE",
"507 663 OFFCURVE",
"497 665 CURVE",
"475 665 LINE",
"472 664 OFFCURVE",
"469 663 OFFCURVE",
"465 663 CURVE",
"459 661 OFFCURVE",
"445 660 OFFCURVE",
"439 658 CURVE SMOOTH",
"428 655 LINE",
"419 654 OFFCURVE",
"413 651 OFFCURVE",
"408 648 CURVE SMOOTH",
"404 645 OFFCURVE",
"401 642 OFFCURVE",
"399 640 CURVE SMOOTH",
"386 630 OFFCURVE",
"376 617 OFFCURVE",
"369 601 CURVE SMOOTH",
"363 589 OFFCURVE",
"360 574 OFFCURVE",
"360 552 CURVE SMOOTH",
"360 523 OFFCURVE",
"365 499 OFFCURVE",
"376 478 CURVE SMOOTH",
"387 457 OFFCURVE",
"402 443 OFFCURVE",
"423 435 CURVE",
"441 425 OFFCURVE",
"466 418 OFFCURVE",
"497 412 CURVE SMOOTH",
"522 407 OFFCURVE",
"557 405 OFFCURVE",
"601 405 CURVE"
);
},
{
closed = 1;
nodes = (
"490 478 LINE",
"484 478 OFFCURVE",
"478 478 OFFCURVE",
"471 480 CURVE",
"465 484 OFFCURVE",
"461 489 OFFCURVE",
"456 496 CURVE SMOOTH",
"454 498 OFFCURVE",
"451 502 OFFCURVE",
"449 508 CURVE",
"446 513 OFFCURVE",
"445 516 OFFCURVE",
"444 516 CURVE",
"444 530 LINE SMOOTH",
"444 533 OFFCURVE",
"443 537 OFFCURVE",
"443 543 CURVE SMOOTH",
"443 550 OFFCURVE",
"444 554 OFFCURVE",
"444 557 CURVE SMOOTH",
"444 572 OFFCURVE",
"452 587 OFFCURVE",
"463 598 CURVE SMOOTH",
"468 603 OFFCURVE",
"474 606 OFFCURVE",
"480 607 CURVE",
"482 608 OFFCURVE",
"485 608 OFFCURVE",
"490 608 CURVE SMOOTH",
"497 608 OFFCURVE",
"502 606 OFFCURVE",
"507 603 CURVE SMOOTH",
"513 599 OFFCURVE",
"518 593 OFFCURVE",
"521 589 CURVE SMOOTH",
"524 586 OFFCURVE",
"527 582 OFFCURVE",
"527 579 CURVE",
"531 567 LINE SMOOTH",
"535 559 OFFCURVE",
"536 551 OFFCURVE",
"536 543 CURVE SMOOTH",
"536 540 OFFCURVE",
"536 535 OFFCURVE",
"535 527 CURVE SMOOTH",
"533 516 LINE",
"531 511 OFFCURVE",
"527 505 OFFCURVE",
"521 496 CURVE SMOOTH",
"516 489 OFFCURVE",
"511 484 OFFCURVE",
"507 480 CURVE",
"500 478 OFFCURVE",
"495 478 OFFCURVE",
"490 478 CURVE"
);
},
{
closed = 1;
nodes = (
"720 478 LINE",
"714 478 OFFCURVE",
"708 478 OFFCURVE",
"701 480 CURVE",
"695 485 OFFCURVE",
"690 490 OFFCURVE",
"687 496 CURVE",
"681 502 OFFCURVE",
"677 508 OFFCURVE",
"676 516 CURVE SMOOTH",
"674 523 OFFCURVE",
"672 537 OFFCURVE",
"672 543 CURVE SMOOTH",
"672 546 OFFCURVE",
"673 554 OFFCURVE",
"676 567 CURVE SMOOTH",
"678 576 OFFCURVE",
"681 583 OFFCURVE",
"687 589 CURVE",
"689 593 OFFCURVE",
"694 598 OFFCURVE",
"701 603 CURVE SMOOTH",
"706 606 OFFCURVE",
"712 608 OFFCURVE",
"720 608 CURVE SMOOTH",
"727 608 OFFCURVE",
"733 606 OFFCURVE",
"738 603 CURVE SMOOTH",
"746 597 OFFCURVE",
"750 592 OFFCURVE",
"751 589 CURVE",
"758 583 OFFCURVE",
"761 576 OFFCURVE",
"761 567 CURVE",
"765 560 OFFCURVE",
"766 552 OFFCURVE",
"766 543 CURVE SMOOTH",
"766 532 OFFCURVE",
"765 523 OFFCURVE",
"761 516 CURVE",
"761 510 OFFCURVE",
"758 503 OFFCURVE",
"751 496 CURVE",
"750 491 OFFCURVE",
"746 486 OFFCURVE",
"738 480 CURVE",
"731 478 OFFCURVE",
"725 478 OFFCURVE",
"720 478 CURVE"
);
}
);
width = 1200;
}
);
note = uniE5FD;
unicode = E5FD;
},
{
color = 0;
glyphname = uniE5FE;
lastChange = "2019-11-04 21:29:28 +0000";
layers = (
{
layerId = "F8C3375C-B372-4BAE-A3FB-5A8DC7FA7AB9";
paths = (
{
closed = 1;
nodes = (
"47 1157 LINE",
"47 257 LINE",
"185 880 LINE",
"946 880 LINE",
"946 1019 LINE",
"497 1019 LINE",
"359 1157 LINE",
"47 1157 LINE"
);
},
{
closed = 1;
nodes = (
"256 810 LINE",
"47 257 LINE",
"946 257 LINE",
"1153 810 LINE",
"256 810 LINE"
);
}
);
width = 1200;
}
);
note = uniE5FE;
unicode = E5FE;
},
{
color = 0;
glyphname = uniE5FF;
lastChange = "2019-11-04 21:29:28 +0000";
layers = (
{
layerId = "F8C3375C-B372-4BAE-A3FB-5A8DC7FA7AB9";
paths = (
{
closed = 1;
nodes = (
"48 1157 LINE",
"48 257 LINE",
"1153 257 LINE",
"1153 1019 LINE",
"670 1019 LINE",
"532 1157 LINE",
"48 1157 LINE"
);
}
);
width = 1200;
}
);
note = uniE5FF;
unicode = E5FF;
},
{
color = 0;
glyphname = uniE600;
lastChange = "2019-11-04 21:29:28 +0000";
layers = (
{
layerId = "F8C3375C-B372-4BAE-A3FB-5A8DC7FA7AB9";
paths = (
{
closed = 1;
nodes = (
"651 619 LINE",
"668 619 OFFCURVE",
"685 626 OFFCURVE",
"700 640 CURVE",
"704 640 OFFCURVE",
"724 660 OFFCURVE",
"727 663 CURVE SMOOTH",
"732 669 OFFCURVE",
"742 680 OFFCURVE",
"747 690 CURVE",
"748 690 OFFCURVE",
"749 692 OFFCURVE",
"749 695 CURVE",
"747 697 OFFCURVE",
"745 699 OFFCURVE",
"744 699 CURVE SMOOTH",
"742 699 OFFCURVE",
"741 698 OFFCURVE",
"740 697 CURVE SMOOTH",
"733 687 OFFCURVE",
"725 676 OFFCURVE",
"714 666 CURVE SMOOTH",
"706 660 OFFCURVE",
"698 657 OFFCURVE",
"690 657 CURVE SMOOTH",
"678 657 OFFCURVE",
"672 667 OFFCURVE",
"672 686 CURVE SMOOTH",
"672 719 OFFCURVE",
"678 761 OFFCURVE",
"687 812 CURVE SMOOTH",
"697 858 OFFCURVE",
"711 904 OFFCURVE",
"727 951 CURVE SMOOTH",
"744 996 OFFCURVE",
"764 1042 OFFCURVE",
"787 1087 CURVE SMOOTH",
"813 1135 OFFCURVE",
"837 1174 OFFCURVE",
"861 1203 CURVE SMOOTH",
"889 1237 OFFCURVE",
"916 1264 OFFCURVE",
"943 1283 CURVE SMOOTH",
"968 1304 OFFCURVE",
"996 1314 OFFCURVE",
"1026 1314 CURVE SMOOTH",
"1041 1314 OFFCURVE",
"1052 1311 OFFCURVE",
"1059 1305 CURVE SMOOTH",
"1064 1301 OFFCURVE",
"1067 1295 OFFCURVE",
"1068 1290 CURVE SMOOTH",
"1068 1288 OFFCURVE",
"1067 1287 OFFCURVE",
"1067 1286 CURVE SMOOTH",
"1067 1285 OFFCURVE",
"1068 1284 OFFCURVE",
"1068 1283 CURVE",
"1070 1281 OFFCURVE",
"1072 1280 OFFCURVE",
"1074 1280 CURVE SMOOTH",
"1075 1280 OFFCURVE",
"1076 1281 OFFCURVE",
"1077 1282 CURVE",
"1085 1297 LINE",
"1087 1305 OFFCURVE",
"1089 1315 OFFCURVE",
"1089 1330 CURVE SMOOTH",
"1089 1335 OFFCURVE",
"1088 1339 OFFCURVE",
"1087 1342 CURVE SMOOTH",
"1083 1352 OFFCURVE",
"1079 1358 OFFCURVE",
"1074 1361 CURVE SMOOTH",
"1066 1367 OFFCURVE",
"1059 1371 OFFCURVE",
"1049 1371 CURVE SMOOTH",
"1022 1371 OFFCURVE",
"991 1358 OFFCURVE",
"957 1331 CURVE SMOOTH",
"927 1305 OFFCURVE",
"895 1271 OFFCURVE",
"861 1228 CURVE SMOOTH",
"830 1187 OFFCURVE",
"800 1140 OFFCURVE",
"768 1087 CURVE",
"731 1016 OFFCURVE",
"706 963 OFFCURVE",
"691 929 CURVE SMOOTH",
"672 882 OFFCURVE",
"653 832 OFFCURVE",
"636 777 CURVE",
"623 722 OFFCURVE",
"616 682 OFFCURVE",
"616 658 CURVE SMOOTH",
"616 646 OFFCURVE",
"619 637 OFFCURVE",
"624 629 CURVE SMOOTH",
"630 622 OFFCURVE",
"638 619 OFFCURVE",
"651 619 CURVE"
);
},
{
closed = 1;
nodes = (
"151 127 LINE",
"179 127 OFFCURVE",
"210 141 OFFCURVE",
"243 167 CURVE SMOOTH",
"274 193 OFFCURVE",
"306 227 OFFCURVE",
"339 270 CURVE SMOOTH",
"367 307 OFFCURVE",
"398 354 OFFCURVE",
"431 411 CURVE SMOOTH",
"459 460 OFFCURVE",
"485 512 OFFCURVE",
"510 569 CURVE SMOOTH",
"530 618 OFFCURVE",
"547 669 OFFCURVE",
"564 721 CURVE SMOOTH",
"578 765 OFFCURVE",
"584 804 OFFCURVE",
"584 840 CURVE SMOOTH",
"584 852 OFFCURVE",
"581 861 OFFCURVE",
"576 869 CURVE SMOOTH",
"572 876 OFFCURVE",
"563 879 OFFCURVE",
"549 879 CURVE SMOOTH",
"534 879 OFFCURVE",
"518 872 OFFCURVE",
"500 858 CURVE",
"496 858 OFFCURVE",
"476 839 OFFCURVE",
"474 835 CURVE",
"468 829 OFFCURVE",
"458 818 OFFCURVE",
"453 809 CURVE",
"453 806 LINE SMOOTH",
"453 801 OFFCURVE",
"454 799 OFFCURVE",
"457 799 CURVE",
"457 799 OFFCURVE",
"459 800 OFFCURVE",
"459 801 CURVE",
"465 809 OFFCURVE",
"474 820 OFFCURVE",
"486 832 CURVE",
"497 838 OFFCURVE",
"506 841 OFFCURVE",
"510 841 CURVE SMOOTH",
"522 841 OFFCURVE",
"528 831 OFFCURVE",
"528 812 CURVE SMOOTH",
"528 779 OFFCURVE",
"523 737 OFFCURVE",
"513 686 CURVE SMOOTH",
"503 641 OFFCURVE",
"489 594 OFFCURVE",
"473 547 CURVE SMOOTH",
"460 509 OFFCURVE",
"440 463 OFFCURVE",
"413 411 CURVE SMOOTH",
"391 369 OFFCURVE",
"366 329 OFFCURVE",
"339 295 CURVE SMOOTH",
"315 264 OFFCURVE",
"289 238 OFFCURVE",
"259 215 CURVE SMOOTH",
"232 194 OFFCURVE",
"204 184 OFFCURVE",
"174 184 CURVE SMOOTH",
"160 184 OFFCURVE",
"149 187 OFFCURVE",
"142 193 CURVE SMOOTH",
"136 197 OFFCURVE",
"133 204 OFFCURVE",
"133 212 CURVE SMOOTH",
"133 213 OFFCURVE",
"132 214 OFFCURVE",
"132 215 CURVE",
"130 217 OFFCURVE",
"128 218 OFFCURVE",
"126 218 CURVE SMOOTH",
"125 218 OFFCURVE",
"124 217 OFFCURVE",
"123 216 CURVE",
"120 209 OFFCURVE",
"117 204 OFFCURVE",
"117 201 CURVE",
"113 191 OFFCURVE",
"112 180 OFFCURVE",
"112 169 CURVE SMOOTH",
"112 166 OFFCURVE",
"112 161 OFFCURVE",
"114 156 CURVE",
"115 148 OFFCURVE",
"119 142 OFFCURVE",
"126 137 CURVE SMOOTH",
"133 131 OFFCURVE",
"142 127 OFFCURVE",
"151 127 CURVE"
);
}
);
width = 1200;
}
);
note = uniE600;
unicode = E600;
},
{
color = 0;
glyphname = uniE601;
lastChange = "2019-11-04 21:29:28 +0000";
layers = (
{
layerId = "F8C3375C-B372-4BAE-A3FB-5A8DC7FA7AB9";
paths = (
{
closed = 1;
nodes = (
"86 954 LINE",
"86 872 LINE",
"514 872 LINE",
"514 954 LINE",
"86 954 LINE"
);
},
{
closed = 1;
nodes = (
"208 740 LINE",
"208 653 LINE",
"506 653 LINE",
"506 740 LINE",
"208 740 LINE"
);
},
{
closed = 1;
nodes = (
"629 740 LINE",
"629 653 LINE",
"1004 653 LINE",
"1004 740 LINE",
"629 740 LINE"
);
},
{
closed = 1;
nodes = (
"375 530 LINE",
"375 444 LINE",
"740 444 LINE",
"740 530 LINE",
"375 530 LINE"
);
},
{
closed = 1;
nodes = (
"865 530 LINE",
"865 444 LINE",
"1114 444 LINE",
"1114 530 LINE",
"865 530 LINE"
);
},
{
closed = 1;
nodes = (
"219 334 LINE",
"219 252 LINE",
"530 252 LINE",
"530 334 LINE",
"219 334 LINE"
);
}
);
width = 1200;
}
);
note = uniE601;
unicode = E601;
},
{
color = 0;
glyphname = uniE602;
lastChange = "2019-11-04 21:29:28 +0000";
layers = (
{
layerId = "F8C3375C-B372-4BAE-A3FB-5A8DC7FA7AB9";
paths = (
{
closed = 1;
nodes = (
"331 1110 LINE",
"331 256 LINE",
"869 694 LINE",
"331 1110 LINE"
);
}
);
width = 1200;
}
);
note = uniE602;
unicode = E602;
},
{
color = 0;
glyphname = uniE603;
lastChange = "2019-11-04 21:29:28 +0000";
layers = (
{
layerId = "F8C3375C-B372-4BAE-A3FB-5A8DC7FA7AB9";
paths = (
{
closed = 1;
nodes = (
"284 189 LINE",
"361 189 OFFCURVE",
"435 232 OFFCURVE",
"480 299 CURVE SMOOTH",
"509 341 OFFCURVE",
"523 397 OFFCURVE",
"523 444 CURVE SMOOTH",
"523 452 OFFCURVE",
"522 460 OFFCURVE",
"522 468 CURVE",
"518 493 OFFCURVE",
"513 514 OFFCURVE",
"503 531 CURVE SMOOTH",
"502 533 LINE",
"533 550 LINE SMOOTH",
"631 608 OFFCURVE",
"702 648 OFFCURVE",
"746 670 CURVE",
"646 655 OFFCURVE",
"597 637 OFFCURVE",
"524 599 CURVE SMOOTH",
"475 572 LINE",
"473 576 LINE",
"434 618 OFFCURVE",
"384 659 OFFCURVE",
"323 700 CURVE SMOOTH",
"278 729 OFFCURVE",
"252 763 OFFCURVE",
"243 793 CURVE SMOOTH",
"240 802 OFFCURVE",
"238 812 OFFCURVE",
"238 823 CURVE SMOOTH",
"238 829 OFFCURVE",
"239 837 OFFCURVE",
"241 845 CURVE SMOOTH",
"247 883 OFFCURVE",
"260 913 OFFCURVE",
"285 960 CURVE SMOOTH",
"313 1013 OFFCURVE",
"397 1074 OFFCURVE",
"537 1144 CURVE SMOOTH",
"638 1195 OFFCURVE",
"731 1221 OFFCURVE",
"818 1221 CURVE SMOOTH",
"903 1221 OFFCURVE",
"963 1195 OFFCURVE",
"981 1158 CURVE SMOOTH",
"986 1146 OFFCURVE",
"989 1133 OFFCURVE",
"989 1118 CURVE SMOOTH",
"989 1074 OFFCURVE",
"964 1022 OFFCURVE",
"920 976 CURVE SMOOTH",
"854 910 OFFCURVE",
"758 859 OFFCURVE",
"645 848 CURVE SMOOTH",
"632 846 OFFCURVE",
"620 845 OFFCURVE",
"608 845 CURVE SMOOTH",
"581 845 OFFCURVE",
"559 850 OFFCURVE",
"541 858 CURVE SMOOTH",
"516 870 OFFCURVE",
"500 879 OFFCURVE",
"496 885 CURVE",
"483 898 LINE",
"481 899 OFFCURVE",
"479 899 OFFCURVE",
"477 897 CURVE",
"473 895 OFFCURVE",
"471 893 OFFCURVE",
"471 889 CURVE SMOOTH",
"471 885 OFFCURVE",
"473 880 OFFCURVE",
"477 873 CURVE",
"484 852 OFFCURVE",
"517 821 OFFCURVE",
"562 806 CURVE SMOOTH",
"581 799 OFFCURVE",
"606 795 OFFCURVE",
"639 795 CURVE SMOOTH",
"662 795 OFFCURVE",
"689 797 OFFCURVE",
"722 802 CURVE SMOOTH",
"761 808 OFFCURVE",
"801 819 OFFCURVE",
"841 834 CURVE SMOOTH",
"913 861 OFFCURVE",
"973 908 OFFCURVE",
"1019 976 CURVE SMOOTH",
"1053 1027 OFFCURVE",
"1070 1078 OFFCURVE",
"1070 1125 CURVE SMOOTH",
"1070 1142 OFFCURVE",
"1068 1158 OFFCURVE",
"1064 1174 CURVE SMOOTH",
"1041 1259 OFFCURVE",
"937 1310 OFFCURVE",
"806 1310 CURVE SMOOTH",
"736 1310 OFFCURVE",
"669 1299 OFFCURVE",
"605 1274 CURVE SMOOTH",
"459 1223 OFFCURVE",
"341 1156 OFFCURVE",
"253 1074 CURVE SMOOTH",
"197 1021 OFFCURVE",
"161 973 OFFCURVE",
"146 929 CURVE SMOOTH",
"135 896 OFFCURVE",
"130 870 OFFCURVE",
"130 846 CURVE SMOOTH",
"130 808 OFFCURVE",
"145 777 OFFCURVE",
"175 740 CURVE SMOOTH",
"211 699 OFFCURVE",
"268 650 OFFCURVE",
"347 596 CURVE SMOOTH",
"379 576 OFFCURVE",
"403 557 OFFCURVE",
"420 542 CURVE",
"420 542 OFFCURVE",
"419 542 OFFCURVE",
"418 541 CURVE SMOOTH",
"416 540 OFFCURVE",
"416 540 OFFCURVE",
"415 540 CURVE",
"410 535 LINE",
"364 513 OFFCURVE",
"227 441 OFFCURVE",
"192 361 CURVE SMOOTH",
"180 336 OFFCURVE",
"175 313 OFFCURVE",
"175 293 CURVE SMOOTH",
"175 263 OFFCURVE",
"184 240 OFFCURVE",
"196 223 CURVE SMOOTH",
"206 209 OFFCURVE",
"217 200 OFFCURVE",
"229 197 CURVE SMOOTH",
"247 191 OFFCURVE",
"265 189 OFFCURVE",
"284 189 CURVE"
);
},
{
closed = 1;
nodes = (
"307 274 LINE",
"297 274 OFFCURVE",
"289 276 OFFCURVE",
"282 280 CURVE SMOOTH",
"273 285 OFFCURVE",
"268 297 OFFCURVE",
"268 312 CURVE SMOOTH",
"268 326 OFFCURVE",
"272 343 OFFCURVE",
"281 362 CURVE SMOOTH",
"290 382 OFFCURVE",
"303 399 OFFCURVE",
"319 415 CURVE SMOOTH",
"338 433 OFFCURVE",
"371 458 OFFCURVE",
"420 490 CURVE",
"433 497 LINE",
"433 497 OFFCURVE",
"436 499 OFFCURVE",
"439 501 CURVE SMOOTH",
"447 506 LINE",
"448 506 OFFCURVE",
"449 507 OFFCURVE",
"450 507 CURVE",
"453 510 OFFCURVE",
"455 512 OFFCURVE",
"456 512 CURVE",
"462 492 OFFCURVE",
"464 474 OFFCURVE",
"464 455 CURVE SMOOTH",
"464 408 OFFCURVE",
"446 365 OFFCURVE",
"413 329 CURVE SMOOTH",
"380 294 OFFCURVE",
"338 274 OFFCURVE",
"307 274 CURVE"
);
}
);
width = 1200;
}
);
note = uniE603;
unicode = E603;
},
{
color = 0;
glyphname = uniE604;
lastChange = "2019-11-04 21:29:28 +0000";
layers = (
{
layerId = "F8C3375C-B372-4BAE-A3FB-5A8DC7FA7AB9";
paths = (
{
closed = 1;
nodes = (
"742 1303 LINE",
"753 1243 LINE",
"839 1245 LINE",
"830 1299 LINE",
"742 1303 LINE"
);
},
{
closed = 1;
nodes = (
"499 1235 LINE",
"549 1175 LINE",
"617 1214 LINE",
"568 1270 LINE",
"499 1235 LINE"
);
},
{
closed = 1;
nodes = (
"157 195 LINE",
"708 195 LINE",
"689 241 LINE SMOOTH",
"657 322 OFFCURVE",
"634 421 OFFCURVE",
"619 537 CURVE",
"613 569 OFFCURVE",
"611 603 OFFCURVE",
"611 637 CURVE SMOOTH",
"611 732 OFFCURVE",
"630 827 OFFCURVE",
"668 892 CURVE SMOOTH",
"719 984 OFFCURVE",
"785 1047 OFFCURVE",
"864 1082 CURVE SMOOTH",
"910 1101 OFFCURVE",
"953 1114 OFFCURVE",
"998 1114 CURVE SMOOTH",
"1007 1114 OFFCURVE",
"1015 1113 OFFCURVE",
"1025 1112 CURVE SMOOTH",
"1051 1109 OFFCURVE",
"1075 1101 OFFCURVE",
"1094 1087 CURVE SMOOTH",
"1139 1053 LINE",
"1164 1091 LINE",
"1135 1116 LINE SMOOTH",
"1083 1162 OFFCURVE",
"1018 1197 OFFCURVE",
"938 1222 CURVE SMOOTH",
"902 1233 OFFCURVE",
"863 1239 OFFCURVE",
"825 1239 CURVE SMOOTH",
"765 1239 OFFCURVE",
"705 1226 OFFCURVE",
"649 1203 CURVE SMOOTH",
"564 1167 OFFCURVE",
"491 1110 OFFCURVE",
"431 1033 CURVE SMOOTH",
"391 982 OFFCURVE",
"345 903 OFFCURVE",
"293 798 CURVE SMOOTH",
"260 733 OFFCURVE",
"232 661 OFFCURVE",
"208 582 CURVE SMOOTH",
"181 490 OFFCURVE",
"154 358 OFFCURVE",
"154 276 CURVE SMOOTH",
"154 239 OFFCURVE",
"155 212 OFFCURVE",
"157 195 CURVE"
);
},
{
closed = 1;
nodes = (
"1027 1202 LINE",
"1085 1171 LINE",
"1098 1189 LINE",
"1029 1239 LINE",
"1027 1202 LINE"
);
},
{
closed = 1;
nodes = (
"277 1028 LINE",
"352 978 LINE",
"408 1045 LINE",
"334 1092 LINE",
"277 1028 LINE"
);
},
{
closed = 1;
nodes = (
"1017 1049 LINE",
"1072 1043 LINE",
"1072 1067 LINE",
"1017 1079 LINE",
"1017 1049 LINE"
);
},
{
closed = 1;
nodes = (
"839 1053 LINE",
"866 1003 LINE",
"905 1035 LINE",
"897 1067 LINE",
"839 1053 LINE"
);
},
{
closed = 1;
nodes = (
"711 948 LINE",
"770 883 LINE",
"795 926 LINE",
"753 989 LINE",
"711 948 LINE"
);
},
{
closed = 1;
nodes = (
"119 731 LINE",
"217 701 LINE",
"246 781 LINE",
"151 819 LINE",
"119 731 LINE"
);
},
{
closed = 1;
nodes = (
"643 763 LINE",
"715 703 LINE",
"731 771 LINE",
"670 816 LINE",
"643 763 LINE"
);
},
{
closed = 1;
nodes = (
"637 555 LINE",
"724 517 LINE",
"720 586 LINE",
"642 627 LINE",
"637 555 LINE"
);
},
{
closed = 1;
nodes = (
"35 369 LINE",
"136 358 LINE",
"155 463 LINE",
"47 473 LINE",
"35 369 LINE"
);
},
{
closed = 1;
nodes = (
"688 296 LINE",
"798 290 LINE",
"758 371 LINE",
"666 371 LINE",
"688 296 LINE"
);
}
);
width = 1200;
}
);
note = uniE604;
unicode = E604;
},
{
color = 0;
glyphname = uniE605;
lastChange = "2019-11-04 21:29:28 +0000";
layers = (
{
layerId = "F8C3375C-B372-4BAE-A3FB-5A8DC7FA7AB9";
paths = (
{
closed = 1;
nodes = (
"86 311 LINE",
"903 254 LINE",
"1114 1048 LINE",
"1051 1046 LINE SMOOTH",
"1022 1046 OFFCURVE",
"1000 1046 OFFCURVE",
"985 1045 CURVE SMOOTH",
"969 1045 OFFCURVE",
"943 1044 OFFCURVE",
"908 1044 CURVE SMOOTH",
"838 1042 OFFCURVE",
"788 1041 OFFCURVE",
"759 1041 CURVE SMOOTH",
"731 1041 OFFCURVE",
"712 1041 OFFCURVE",
"704 1040 CURVE SMOOTH",
"678 1037 LINE",
"669 1037 LINE",
"668 1033 LINE",
"662 1029 OFFCURVE",
"652 1022 OFFCURVE",
"637 1012 CURVE SMOOTH",
"623 1001 OFFCURVE",
"612 994 OFFCURVE",
"605 989 CURVE SMOOTH",
"601 986 OFFCURVE",
"577 969 OFFCURVE",
"533 937 CURVE SMOOTH",
"503 916 LINE",
"501 914 OFFCURVE",
"497 911 OFFCURVE",
"491 907 CURVE SMOOTH",
"478 898 LINE",
"453 880 LINE",
"401 843 LINE",
"321 787 LINE",
"293 768 LINE",
"271 753 LINE SMOOTH",
"257 743 OFFCURVE",
"247 737 OFFCURVE",
"240 732 CURVE",
"238 727 LINE",
"237 727 LINE",
"236 726 LINE SMOOTH",
"235 724 OFFCURVE",
"234 724 OFFCURVE",
"234 723 CURVE SMOOTH",
"234 722 OFFCURVE",
"233 722 OFFCURVE",
"233 722 CURVE",
"225 697 LINE",
"223 693 OFFCURVE",
"221 684 OFFCURVE",
"216 672 CURVE SMOOTH",
"212 660 OFFCURVE",
"208 650 OFFCURVE",
"206 644 CURVE SMOOTH",
"188 597 OFFCURVE",
"171 550 OFFCURVE",
"155 503 CURVE SMOOTH",
"135 444 OFFCURVE",
"119 399 OFFCURVE",
"108 371 CURVE SMOOTH",
"86 311 LINE"
);
}
);
width = 1200;
}
);
note = uniE605;
unicode = E605;
},
{
color = 0;
glyphname = uniE606;
lastChange = "2019-11-04 21:29:28 +0000";
layers = (
{
layerId = "F8C3375C-B372-4BAE-A3FB-5A8DC7FA7AB9";
paths = (
{
closed = 1;
nodes = (
"194 490 LINE",
"286 490 LINE",
"286 628 LINE SMOOTH",
"286 644 OFFCURVE",
"295 687 OFFCURVE",
"312 713 CURVE SMOOTH",
"327 734 OFFCURVE",
"346 753 OFFCURVE",
"380 764 CURVE SMOOTH",
"397 770 OFFCURVE",
"416 773 OFFCURVE",
"438 773 CURVE SMOOTH",
"699 773 LINE",
"714 773 LINE SMOOTH",
"735 774 OFFCURVE",
"765 784 OFFCURVE",
"795 803 CURVE SMOOTH",
"824 820 OFFCURVE",
"846 861 OFFCURVE",
"846 915 CURVE SMOOTH",
"846 1154 LINE",
"847 1162 LINE SMOOTH",
"848 1179 OFFCURVE",
"835 1218 OFFCURVE",
"806 1241 CURVE SMOOTH",
"780 1262 OFFCURVE",
"748 1279 OFFCURVE",
"686 1290 CURVE SMOOTH",
"655 1295 OFFCURVE",
"620 1298 OFFCURVE",
"580 1298 CURVE SMOOTH",
"521 1298 OFFCURVE",
"470 1292 OFFCURVE",
"437 1283 CURVE SMOOTH",
"420 1278 OFFCURVE",
"405 1273 OFFCURVE",
"391 1267 CURVE SMOOTH",
"363 1255 OFFCURVE",
"351 1241 OFFCURVE",
"339 1228 CURVE SMOOTH",
"331 1220 OFFCURVE",
"322 1178 OFFCURVE",
"322 1178 CURVE",
"322 1054 LINE",
"585 1054 LINE",
"585 1017 LINE",
"217 1017 LINE",
"207 1017 LINE SMOOTH",
"187 1018 OFFCURVE",
"139 1005 OFFCURVE",
"110 977 CURVE SMOOTH",
"84 951 OFFCURVE",
"63 920 OFFCURVE",
"50 860 CURVE SMOOTH",
"44 831 OFFCURVE",
"41 794 OFFCURVE",
"41 756 CURVE SMOOTH",
"41 720 OFFCURVE",
"44 684 OFFCURVE",
"50 656 CURVE SMOOTH",
"56 626 OFFCURVE",
"63 601 OFFCURVE",
"71 583 CURVE SMOOTH",
"88 547 OFFCURVE",
"109 520 OFFCURVE",
"150 503 CURVE",
"148 500 OFFCURVE",
"153 498 OFFCURVE",
"164 494 CURVE SMOOTH",
"174 491 OFFCURVE",
"184 490 OFFCURVE",
"194 490 CURVE"
);
},
{
closed = 1;
nodes = (
"435 1120 LINE",
"408 1120 OFFCURVE",
"388 1141 OFFCURVE",
"388 1167 CURVE SMOOTH",
"388 1194 OFFCURVE",
"408 1215 OFFCURVE",
"435 1215 CURVE SMOOTH",
"461 1215 OFFCURVE",
"482 1194 OFFCURVE",
"482 1167 CURVE SMOOTH",
"482 1141 OFFCURVE",
"461 1120 OFFCURVE",
"435 1120 CURVE"
);
},
{
closed = 1;
nodes = (
"618 200 LINE",
"678 200 OFFCURVE",
"729 205 OFFCURVE",
"763 215 CURVE SMOOTH",
"779 219 OFFCURVE",
"795 224 OFFCURVE",
"808 230 CURVE SMOOTH",
"836 242 OFFCURVE",
"848 256 OFFCURVE",
"860 269 CURVE SMOOTH",
"868 277 OFFCURVE",
"876 319 OFFCURVE",
"877 319 CURVE",
"876 443 LINE",
"613 443 LINE",
"613 481 LINE",
"981 481 LINE",
"987 480 LINE",
"1016 480 OFFCURVE",
"1047 487 OFFCURVE",
"1084 517 CURVE SMOOTH",
"1104 532 OFFCURVE",
"1122 560 OFFCURVE",
"1136 594 CURVE SMOOTH",
"1149 628 OFFCURVE",
"1158 679 OFFCURVE",
"1158 739 CURVE SMOOTH",
"1158 815 OFFCURVE",
"1145 877 OFFCURVE",
"1128 914 CURVE SMOOTH",
"1111 951 OFFCURVE",
"1085 979 OFFCURVE",
"1065 990 CURVE SMOOTH",
"1041 1003 OFFCURVE",
"1019 1007 OFFCURVE",
"1004 1007 CURVE SMOOTH",
"912 1007 LINE",
"912 879 LINE",
"911 863 LINE SMOOTH",
"911 841 OFFCURVE",
"900 809 OFFCURVE",
"882 779 CURVE SMOOTH",
"863 749 OFFCURVE",
"818 724 OFFCURVE",
"760 724 CURVE SMOOTH",
"490 724 LINE SMOOTH",
"474 723 OFFCURVE",
"433 715 OFFCURVE",
"410 699 CURVE SMOOTH",
"389 685 OFFCURVE",
"371 667 OFFCURVE",
"360 636 CURVE SMOOTH",
"354 620 OFFCURVE",
"352 602 OFFCURVE",
"352 583 CURVE SMOOTH",
"352 344 LINE",
"351 336 LINE SMOOTH",
"350 319 OFFCURVE",
"363 279 OFFCURVE",
"393 256 CURVE SMOOTH",
"418 235 OFFCURVE",
"451 218 OFFCURVE",
"513 207 CURVE SMOOTH",
"544 202 OFFCURVE",
"579 200 OFFCURVE",
"618 200 CURVE"
);
},
{
closed = 1;
nodes = (
"763 283 LINE",
"739 283 OFFCURVE",
"716 302 OFFCURVE",
"716 330 CURVE SMOOTH",
"716 358 OFFCURVE",
"739 378 OFFCURVE",
"763 378 CURVE SMOOTH",
"775 378 OFFCURVE",
"787 373 OFFCURVE",
"797 364 CURVE SMOOTH",
"806 354 OFFCURVE",
"810 343 OFFCURVE",
"810 330 CURVE SMOOTH",
"810 317 OFFCURVE",
"806 306 OFFCURVE",
"797 297 CURVE SMOOTH",
"787 287 OFFCURVE",
"775 283 OFFCURVE",
"763 283 CURVE"
);
}
);
width = 1200;
}
);
note = uniE606;
unicode = E606;
},
{
color = 0;
glyphname = uniE607;
lastChange = "2019-11-04 21:29:28 +0000";
layers = (
{
layerId = "F8C3375C-B372-4BAE-A3FB-5A8DC7FA7AB9";
paths = (
{
closed = 1;
nodes = (
"742 807 LINE",
"742 139 LINE",
"923 139 LINE",
"923 804 LINE SMOOTH",
"923 896 OFFCURVE",
"897 956 OFFCURVE",
"842 984 CURVE SMOOTH",
"791 1009 OFFCURVE",
"726 1020 OFFCURVE",
"664 1020 CURVE SMOOTH",
"641 1020 OFFCURVE",
"618 1019 OFFCURVE",
"597 1016 CURVE SMOOTH",
"557 1010 OFFCURVE",
"518 1001 OFFCURVE",
"478 989 CURVE SMOOTH",
"395 962 LINE",
"395 1360 LINE",
"207 1358 LINE",
"207 788 LINE",
"208 741 LINE",
"429 827 OFFCURVE",
"576 871 OFFCURVE",
"648 871 CURVE SMOOTH",
"669 871 OFFCURVE",
"684 867 OFFCURVE",
"692 859 CURVE SMOOTH",
"742 807 LINE"
);
},
{
closed = 1;
nodes = (
"650 1118 LINE",
"850 1118 LINE",
"905 1190 OFFCURVE",
"942 1247 OFFCURVE",
"963 1292 CURVE SMOOTH",
"993 1358 LINE",
"788 1358 LINE",
"746 1273 LINE SMOOTH",
"716 1213 OFFCURVE",
"684 1161 OFFCURVE",
"650 1118 CURVE"
);
},
{
closed = 1;
nodes = (
"210 520 LINE",
"210 140 LINE",
"401 330 LINE",
"210 520 LINE"
);
}
);
width = 1200;
}
);
note = uniE607;
unicode = E607;
},
{
color = 0;
glyphname = uniE608;
lastChange = "2019-11-04 21:29:28 +0000";
layers = (
{
layerId = "F8C3375C-B372-4BAE-A3FB-5A8DC7FA7AB9";
paths = (
{
closed = 1;
nodes = (
"503 254 LINE",
"512 254 OFFCURVE",
"562 265 OFFCURVE",
"574 271 CURVE",
"574 289 LINE SMOOTH",
"574 314 OFFCURVE",
"566 336 OFFCURVE",
"566 361 CURVE SMOOTH",
"566 367 OFFCURVE",
"565 372 OFFCURVE",
"562 377 CURVE",
"562 390 OFFCURVE",
"567 403 OFFCURVE",
"567 417 CURVE",
"574 432 LINE",
"574 439 OFFCURVE",
"579 444 OFFCURVE",
"584 448 CURVE",
"585 453 OFFCURVE",
"589 457 OFFCURVE",
"590 462 CURVE",
"600 464 OFFCURVE",
"603 468 OFFCURVE",
"614 468 CURVE SMOOTH",
"642 468 OFFCURVE",
"668 454 OFFCURVE",
"697 454 CURVE SMOOTH",
"726 454 OFFCURVE",
"752 469 OFFCURVE",
"778 480 CURVE",
"782 480 LINE SMOOTH",
"809 480 OFFCURVE",
"814 455 OFFCURVE",
"825 437 CURVE",
"826 433 OFFCURVE",
"826 428 OFFCURVE",
"826 424 CURVE SMOOTH",
"826 419 OFFCURVE",
"826 412 OFFCURVE",
"822 408 CURVE",
"822 385 OFFCURVE",
"813 361 OFFCURVE",
"806 339 CURVE",
"840 315 OFFCURVE",
"836 300 OFFCURVE",
"835 257 CURVE",
"925 257 LINE SMOOTH",
"948 257 OFFCURVE",
"985 269 OFFCURVE",
"1002 286 CURVE",
"1008 302 LINE",
"1008 369 OFFCURVE",
"989 439 OFFCURVE",
"989 510 CURVE SMOOTH",
"989 515 OFFCURVE",
"991 520 OFFCURVE",
"995 524 CURVE",
"995 530 LINE",
"997 537 OFFCURVE",
"1001 538 OFFCURVE",
"1000 547 CURVE",
"1049 593 OFFCURVE",
"1058 631 OFFCURVE",
"1084 693 CURVE",
"1084 700 OFFCURVE",
"1083 706 OFFCURVE",
"1088 711 CURVE",
"1088 713 LINE",
"1093 713 LINE SMOOTH",
"1096 713 OFFCURVE",
"1099 712 OFFCURVE",
"1101 711 CURVE",
"1102 706 OFFCURVE",
"1108 693 OFFCURVE",
"1112 689 CURVE",
"1117 689 OFFCURVE",
"1119 682 OFFCURVE",
"1121 678 CURVE",
"1126 676 OFFCURVE",
"1132 672 OFFCURVE",
"1134 667 CURVE",
"1136 666 OFFCURVE",
"1139 665 OFFCURVE",
"1142 665 CURVE",
"1143 663 OFFCURVE",
"1145 661 OFFCURVE",
"1147 660 CURVE",
"1151 660 LINE",
"1153 661 OFFCURVE",
"1156 663 OFFCURVE",
"1157 665 CURVE",
"1157 667 LINE",
"1153 680 OFFCURVE",
"1153 711 OFFCURVE",
"1147 713 CURVE",
"1115 855 OFFCURVE",
"986 988 OFFCURVE",
"839 1011 CURVE SMOOTH",
"796 1018 OFFCURVE",
"748 1018 OFFCURVE",
"705 1018 CURVE SMOOTH",
"677 1018 OFFCURVE",
"636 1006 OFFCURVE",
"612 1007 CURVE",
"610 1005 LINE",
"610 1004 LINE",
"601 1004 LINE",
"599 1003 OFFCURVE",
"597 1001 OFFCURVE",
"595 999 CURVE",
"595 997 OFFCURVE",
"593 995 OFFCURVE",
"591 994 CURVE",
"591 990 LINE",
"590 989 LINE",
"591 986 OFFCURVE",
"593 983 OFFCURVE",
"595 981 CURVE",
"595 958 LINE",
"601 947 LINE",
"600 921 OFFCURVE",
"610 894 OFFCURVE",
"610 867 CURVE SMOOTH",
"610 761 OFFCURVE",
"526 650 OFFCURVE",
"415 650 CURVE SMOOTH",
"388 650 OFFCURVE",
"375 650 OFFCURVE",
"355 667 CURVE",
"350 678 OFFCURVE",
"335 690 OFFCURVE",
"335 701 CURVE",
"330 714 OFFCURVE",
"316 768 OFFCURVE",
"313 773 CURVE",
"317 771 LINE",
"317 768 LINE",
"321 762 LINE",
"321 760 LINE",
"324 758 LINE",
"324 757 OFFCURVE",
"325 756 OFFCURVE",
"325 755 CURVE",
"346 721 OFFCURVE",
"365 667 OFFCURVE",
"411 667 CURVE SMOOTH",
"432 667 OFFCURVE",
"461 684 OFFCURVE",
"479 695 CURVE SMOOTH",
"540 731 OFFCURVE",
"570 797 OFFCURVE",
"570 866 CURVE SMOOTH",
"570 915 OFFCURVE",
"563 947 OFFCURVE",
"536 986 CURVE SMOOTH",
"528 997 OFFCURVE",
"522 1007 OFFCURVE",
"510 1014 CURVE",
"486 1050 OFFCURVE",
"402 1048 OFFCURVE",
"365 1048 CURVE SMOOTH",
"325 1048 OFFCURVE",
"284 1034 OFFCURVE",
"245 1028 CURVE",
"234 1019 OFFCURVE",
"221 1022 OFFCURVE",
"210 1016 CURVE",
"190 1017 OFFCURVE",
"179 1008 OFFCURVE",
"163 998 CURVE SMOOTH",
"86 951 OFFCURVE",
"43 807 OFFCURVE",
"43 720 CURVE SMOOTH",
"43 644 OFFCURVE",
"58 590 OFFCURVE",
"104 530 CURVE SMOOTH",
"126 501 OFFCURVE",
"159 481 OFFCURVE",
"186 458 CURVE SMOOTH",
"197 449 OFFCURVE",
"217 424 OFFCURVE",
"226 419 CURVE",
"229 413 LINE",
"229 411 OFFCURVE",
"230 408 OFFCURVE",
"231 407 CURVE",
"231 404 LINE",
"237 399 OFFCURVE",
"236 392 OFFCURVE",
"236 385 CURVE SMOOTH",
"236 382 OFFCURVE",
"236 375 OFFCURVE",
"231 375 CURVE",
"223 367 LINE",
"223 365 LINE",
"217 361 LINE",
"214 361 LINE",
"211 359 OFFCURVE",
"207 358 OFFCURVE",
"204 356 CURVE SMOOTH",
"202 354 OFFCURVE",
"200 352 OFFCURVE",
"198 350 CURVE",
"196 344 OFFCURVE",
"195 339 OFFCURVE",
"195 333 CURVE",
"197 328 LINE",
"197 323 OFFCURVE",
"201 318 OFFCURVE",
"204 314 CURVE",
"209 312 OFFCURVE",
"213 309 OFFCURVE",
"217 305 CURVE",
"236 300 OFFCURVE",
"247 293 OFFCURVE",
"268 294 CURVE",
"269 295 LINE",
"269 298 LINE",
"307 329 OFFCURVE",
"321 367 OFFCURVE",
"321 413 CURVE SMOOTH",
"321 424 OFFCURVE",
"314 431 OFFCURVE",
"308 439 CURVE",
"308 443 OFFCURVE",
"306 447 OFFCURVE",
"302 448 CURVE",
"297 459 OFFCURVE",
"274 490 OFFCURVE",
"264 492 CURVE",
"264 495 OFFCURVE",
"262 498 OFFCURVE",
"259 499 CURVE",
"258 502 OFFCURVE",
"247 519 OFFCURVE",
"245 520 CURVE",
"245 523 OFFCURVE",
"243 525 OFFCURVE",
"241 526 CURVE",
"241 530 OFFCURVE",
"238 534 OFFCURVE",
"237 538 CURVE",
"238 541 OFFCURVE",
"238 544 OFFCURVE",
"240 547 CURVE",
"240 550 LINE",
"249 559 OFFCURVE",
"260 563 OFFCURVE",
"273 563 CURVE",
"278 554 OFFCURVE",
"298 552 OFFCURVE",
"308 547 CURVE",
"312 547 OFFCURVE",
"316 545 OFFCURVE",
"317 541 CURVE",
"331 539 OFFCURVE",
"336 531 OFFCURVE",
"347 526 CURVE SMOOTH",
"384 510 OFFCURVE",
"412 494 OFFCURVE",
"412 448 CURVE",
"414 443 LINE",
"414 427 OFFCURVE",
"416 411 OFFCURVE",
"416 395 CURVE SMOOTH",
"416 375 OFFCURVE",
"417 355 OFFCURVE",
"403 339 CURVE",
"441 322 OFFCURVE",
"440 294 OFFCURVE",
"440 257 CURVE",
"461 257 OFFCURVE",
"482 254 OFFCURVE",
"503 254 CURVE"
);
},
{
closed = 1;
nodes = (
"171 735 LINE",
"159 735 LINE SMOOTH",
"157 735 OFFCURVE",
"156 736 OFFCURVE",
"154 736 CURVE",
"150 741 OFFCURVE",
"144 743 OFFCURVE",
"140 749 CURVE",
"140 752 OFFCURVE",
"140 756 OFFCURVE",
"139 759 CURVE",
"140 762 OFFCURVE",
"140 765 OFFCURVE",
"140 768 CURVE",
"144 774 OFFCURVE",
"145 774 OFFCURVE",
"151 778 CURVE",
"154 783 LINE",
"158 786 LINE",
"162 786 LINE SMOOTH",
"167 786 OFFCURVE",
"180 784 OFFCURVE",
"182 777 CURVE",
"187 772 OFFCURVE",
"191 762 OFFCURVE",
"191 755 CURVE SMOOTH",
"191 753 OFFCURVE",
"190 751 OFFCURVE",
"190 749 CURVE",
"188 746 OFFCURVE",
"176 735 OFFCURVE",
"171 735 CURVE"
);
},
{
closed = 1;
nodes = (
"110 554 LINE",
"106 557 OFFCURVE",
"102 559 OFFCURVE",
"99 563 CURVE",
"99 578 LINE",
"101 580 LINE",
"101 582 LINE",
"104 586 LINE",
"104 588 LINE",
"114 600 OFFCURVE",
"148 633 OFFCURVE",
"150 639 CURVE",
"154 644 LINE",
"158 644 LINE",
"159 645 LINE",
"165 647 LINE",
"172 644 OFFCURVE",
"178 639 OFFCURVE",
"184 635 CURVE",
"197 632 OFFCURVE",
"197 604 OFFCURVE",
"201 592 CURVE",
"197 588 LINE",
"195 583 LINE",
"195 580 LINE",
"193 575 OFFCURVE",
"182 563 OFFCURVE",
"176 562 CURVE",
"169 555 OFFCURVE",
"157 554 OFFCURVE",
"148 554 CURVE SMOOTH",
"110 554 LINE"
);
}
);
width = 1200;
}
);
note = uniE608;
unicode = E608;
},
{
color = 0;
glyphname = uniE609;
lastChange = "2019-11-04 21:29:28 +0000";
layers = (
{
layerId = "F8C3375C-B372-4BAE-A3FB-5A8DC7FA7AB9";
paths = (
{
closed = 1;
nodes = (
"593 246 LINE",
"628 280 OFFCURVE",
"666 318 OFFCURVE",
"707 362 CURVE SMOOTH",
"763 418 LINE",
"775 432 OFFCURVE",
"796 452 OFFCURVE",
"823 480 CURVE SMOOTH",
"872 531 OFFCURVE",
"911 571 OFFCURVE",
"942 601 CURVE SMOOTH",
"1060 718 LINE",
"854 718 LINE",
"854 1251 LINE",
"790 1203 LINE SMOOTH",
"743 1170 OFFCURVE",
"717 1152 OFFCURVE",
"712 1149 CURVE SMOOTH",
"694 1139 LINE",
"686 1133 OFFCURVE",
"679 1129 OFFCURVE",
"675 1126 CURVE SMOOTH",
"641 1105 LINE SMOOTH",
"623 1092 OFFCURVE",
"607 1085 OFFCURVE",
"597 1085 CURVE SMOOTH",
"592 1085 OFFCURVE",
"587 1087 OFFCURVE",
"581 1090 CURVE SMOOTH",
"571 1094 OFFCURVE",
"550 1106 OFFCURVE",
"518 1126 CURVE SMOOTH",
"495 1140 OFFCURVE",
"481 1148 OFFCURVE",
"477 1150 CURVE",
"436 1180 LINE",
"394 1208 LINE SMOOTH",
"372 1224 OFFCURVE",
"350 1239 OFFCURVE",
"328 1252 CURVE",
"328 709 LINE",
"140 709 LINE",
"166 683 OFFCURVE",
"204 644 OFFCURVE",
"255 592 CURVE SMOOTH",
"304 541 OFFCURVE",
"342 502 OFFCURVE",
"368 476 CURVE SMOOTH",
"394 451 OFFCURVE",
"432 412 OFFCURVE",
"482 361 CURVE SMOOTH",
"518 322 OFFCURVE",
"555 284 OFFCURVE",
"593 246 CURVE"
);
}
);
width = 1200;
}
);
note = uniE609;
unicode = E609;
},
{
color = 0;
glyphname = uniE60A;
lastChange = "2019-11-04 21:29:28 +0000";
layers = (
{
layerId = "F8C3375C-B372-4BAE-A3FB-5A8DC7FA7AB9";
paths = (
{
closed = 1;
nodes = (
"439 163 LINE",
"442 163 OFFCURVE",
"445 164 OFFCURVE",
"447 165 CURVE",
"475 165 OFFCURVE",
"499 190 OFFCURVE",
"515 212 CURVE",
"516 222 OFFCURVE",
"520 230 OFFCURVE",
"520 242 CURVE SMOOTH",
"520 248 OFFCURVE",
"514 259 OFFCURVE",
"511 265 CURVE SMOOTH",
"508 269 OFFCURVE",
"504 271 OFFCURVE",
"501 276 CURVE",
"501 284 OFFCURVE",
"490 288 OFFCURVE",
"490 300 CURVE SMOOTH",
"490 305 OFFCURVE",
"493 308 OFFCURVE",
"496 312 CURVE",
"501 313 OFFCURVE",
"506 321 OFFCURVE",
"509 325 CURVE",
"513 327 OFFCURVE",
"518 329 OFFCURVE",
"522 330 CURVE",
"523 331 OFFCURVE",
"528 336 OFFCURVE",
"530 333 CURVE",
"535 338 LINE",
"537 344 OFFCURVE",
"541 351 OFFCURVE",
"540 358 CURVE",
"535 369 OFFCURVE",
"523 373 OFFCURVE",
"519 384 CURVE",
"499 404 LINE",
"490 408 OFFCURVE",
"491 416 OFFCURVE",
"486 422 CURVE",
"488 428 OFFCURVE",
"490 434 OFFCURVE",
"492 440 CURVE",
"501 446 LINE",
"505 447 OFFCURVE",
"508 448 OFFCURVE",
"512 449 CURVE",
"516 454 OFFCURVE",
"544 469 OFFCURVE",
"550 469 CURVE",
"554 475 LINE",
"558 477 LINE",
"560 482 LINE",
"560 491 LINE",
"547 510 OFFCURVE",
"528 515 OFFCURVE",
"528 543 CURVE SMOOTH",
"528 552 OFFCURVE",
"535 561 OFFCURVE",
"543 565 CURVE",
"546 564 LINE",
"550 565 LINE",
"552 570 LINE",
"556 569 OFFCURVE",
"568 582 OFFCURVE",
"573 583 CURVE",
"577 589 OFFCURVE",
"582 620 OFFCURVE",
"582 630 CURVE",
"584 634 OFFCURVE",
"584 638 OFFCURVE",
"584 642 CURVE",
"587 646 OFFCURVE",
"588 650 OFFCURVE",
"590 654 CURVE",
"590 656 LINE",
"592 657 OFFCURVE",
"594 659 OFFCURVE",
"595 661 CURVE",
"600 662 OFFCURVE",
"605 664 OFFCURVE",
"609 667 CURVE",
"612 671 OFFCURVE",
"616 676 OFFCURVE",
"622 676 CURVE",
"627 680 OFFCURVE",
"632 683 OFFCURVE",
"637 686 CURVE",
"652 703 OFFCURVE",
"676 713 OFFCURVE",
"696 739 CURVE SMOOTH",
"743 802 OFFCURVE",
"741 834 OFFCURVE",
"741 914 CURVE",
"740 909 LINE",
"726 991 OFFCURVE",
"688 1055 OFFCURVE",
"607 1085 CURVE SMOOTH",
"583 1094 OFFCURVE",
"556 1104 OFFCURVE",
"530 1104 CURVE SMOOTH",
"516 1104 OFFCURVE",
"484 1098 OFFCURVE",
"472 1103 CURVE",
"463 1103 LINE SMOOTH",
"459 1103 OFFCURVE",
"455 1102 OFFCURVE",
"452 1101 CURVE",
"451 1108 OFFCURVE",
"451 1115 OFFCURVE",
"451 1122 CURVE SMOOTH",
"451 1209 OFFCURVE",
"512 1274 OFFCURVE",
"600 1274 CURVE SMOOTH",
"639 1274 OFFCURVE",
"692 1253 OFFCURVE",
"715 1220 CURVE",
"718 1209 OFFCURVE",
"728 1201 OFFCURVE",
"732 1191 CURVE SMOOTH",
"742 1164 OFFCURVE",
"747 1122 OFFCURVE",
"744 1095 CURVE",
"748 1094 OFFCURVE",
"754 1085 OFFCURVE",
"757 1082 CURVE",
"758 1079 OFFCURVE",
"761 1077 OFFCURVE",
"764 1076 CURVE",
"768 1071 LINE",
"773 1069 OFFCURVE",
"787 1052 OFFCURVE",
"795 1046 CURVE",
"804 1081 OFFCURVE",
"807 1091 OFFCURVE",
"807 1131 CURVE SMOOTH",
"807 1209 OFFCURVE",
"746 1300 OFFCURVE",
"669 1320 CURVE SMOOTH",
"647 1326 OFFCURVE",
"623 1335 OFFCURVE",
"600 1335 CURVE SMOOTH",
"519 1335 OFFCURVE",
"438 1297 OFFCURVE",
"408 1218 CURVE SMOOTH",
"399 1195 OFFCURVE",
"389 1160 OFFCURVE",
"389 1136 CURVE SMOOTH",
"389 1071 OFFCURVE",
"406 1016 OFFCURVE",
"457 973 CURVE",
"459 969 OFFCURVE",
"472 960 OFFCURVE",
"476 958 CURVE",
"483 951 LINE",
"488 949 OFFCURVE",
"492 947 OFFCURVE",
"496 944 CURVE",
"502 944 OFFCURVE",
"507 942 OFFCURVE",
"512 938 CURVE",
"517 937 OFFCURVE",
"521 934 OFFCURVE",
"527 934 CURVE SMOOTH",
"547 934 OFFCURVE",
"555 963 OFFCURVE",
"555 978 CURVE SMOOTH",
"555 997 OFFCURVE",
"538 1010 OFFCURVE",
"520 1009 CURVE",
"519 1011 LINE",
"516 1011 LINE",
"514 1013 OFFCURVE",
"508 1019 OFFCURVE",
"507 1018 CURVE",
"503 1020 LINE",
"503 1025 LINE",
"504 1026 OFFCURVE",
"506 1027 OFFCURVE",
"507 1026 CURVE",
"507 1025 LINE",
"511 1028 OFFCURVE",
"517 1027 OFFCURVE",
"522 1027 CURVE SMOOTH",
"540 1027 OFFCURVE",
"546 1023 OFFCURVE",
"560 1012 CURVE",
"574 1007 OFFCURVE",
"587 979 OFFCURVE",
"587 965 CURVE SMOOTH",
"587 932 OFFCURVE",
"555 903 OFFCURVE",
"523 903 CURVE SMOOTH",
"515 903 OFFCURVE",
"508 905 OFFCURVE",
"501 909 CURVE",
"487 909 OFFCURVE",
"471 911 OFFCURVE",
"460 920 CURVE SMOOTH",
"435 940 OFFCURVE",
"393 975 OFFCURVE",
"384 1007 CURVE",
"380 1012 OFFCURVE",
"376 1021 OFFCURVE",
"373 1027 CURVE",
"373 1034 OFFCURVE",
"366 1045 OFFCURVE",
"364 1053 CURVE",
"302 992 OFFCURVE",
"279 953 OFFCURVE",
"279 865 CURVE SMOOTH",
"279 805 OFFCURVE",
"314 740 OFFCURVE",
"358 701 CURVE",
"358 697 LINE",
"360 695 LINE",
"362 690 LINE",
"364 688 LINE",
"364 676 LINE SMOOTH",
"364 653 OFFCURVE",
"345 590 OFFCURVE",
"343 563 CURVE SMOOTH",
"337 469 OFFCURVE",
"302 352 OFFCURVE",
"302 262 CURVE SMOOTH",
"302 240 OFFCURVE",
"311 220 OFFCURVE",
"324 203 CURVE",
"325 198 OFFCURVE",
"328 194 OFFCURVE",
"333 192 CURVE",
"337 188 OFFCURVE",
"341 185 OFFCURVE",
"346 183 CURVE",
"355 229 OFFCURVE",
"359 276 OFFCURVE",
"367 322 CURVE SMOOTH",
"381 399 OFFCURVE",
"392 477 OFFCURVE",
"404 554 CURVE SMOOTH",
"407 572 OFFCURVE",
"417 658 OFFCURVE",
"422 665 CURVE SMOOTH",
"423 666 OFFCURVE",
"428 667 OFFCURVE",
"430 667 CURVE SMOOTH",
"434 667 OFFCURVE",
"437 667 OFFCURVE",
"441 665 CURVE",
"444 661 LINE",
"444 648 LINE SMOOTH",
"444 628 OFFCURVE",
"429 555 OFFCURVE",
"426 537 CURVE SMOOTH",
"418 485 OFFCURVE",
"412 432 OFFCURVE",
"404 380 CURVE SMOOTH",
"398 340 OFFCURVE",
"389 300 OFFCURVE",
"384 260 CURVE SMOOTH",
"380 233 OFFCURVE",
"370 202 OFFCURVE",
"371 175 CURVE",
"374 169 LINE",
"379 167 LINE",
"381 167 OFFCURVE",
"384 168 OFFCURVE",
"386 168 CURVE SMOOTH",
"403 168 OFFCURVE",
"421 163 OFFCURVE",
"439 163 CURVE"
);
},
{
closed = 1;
nodes = (
"835 203 LINE",
"838 204 OFFCURVE",
"841 206 OFFCURVE",
"841 209 CURVE",
"894 213 OFFCURVE",
"921 276 OFFCURVE",
"921 322 CURVE SMOOTH",
"921 328 OFFCURVE",
"920 333 OFFCURVE",
"920 339 CURVE",
"915 344 LINE",
"914 347 OFFCURVE",
"912 349 OFFCURVE",
"909 350 CURVE",
"906 350 OFFCURVE",
"903 352 OFFCURVE",
"901 354 CURVE",
"899 353 OFFCURVE",
"897 352 OFFCURVE",
"895 352 CURVE SMOOTH",
"891 352 OFFCURVE",
"883 356 OFFCURVE",
"878 357 CURVE",
"869 366 LINE",
"868 370 OFFCURVE",
"867 382 OFFCURVE",
"864 385 CURVE",
"866 396 OFFCURVE",
"875 421 OFFCURVE",
"875 427 CURVE SMOOTH",
"875 433 OFFCURVE",
"872 438 OFFCURVE",
"871 444 CURVE",
"864 449 OFFCURVE",
"857 451 OFFCURVE",
"849 454 CURVE",
"845 453 LINE",
"840 454 OFFCURVE",
"836 456 OFFCURVE",
"831 458 CURVE",
"825 458 LINE SMOOTH",
"822 458 OFFCURVE",
"818 459 OFFCURVE",
"815 459 CURVE",
"811 461 LINE",
"808 461 LINE",
"800 469 LINE",
"800 481 OFFCURVE",
"798 492 OFFCURVE",
"798 504 CURVE SMOOTH",
"798 514 OFFCURVE",
"807 535 OFFCURVE",
"817 537 CURVE",
"821 542 OFFCURVE",
"825 548 OFFCURVE",
"826 554 CURVE SMOOTH",
"826 558 LINE SMOOTH",
"826 561 OFFCURVE",
"823 563 OFFCURVE",
"821 564 CURVE",
"817 568 OFFCURVE",
"815 572 OFFCURVE",
"812 576 CURVE",
"807 575 LINE",
"804 579 OFFCURVE",
"799 582 OFFCURVE",
"795 583 CURVE",
"789 587 LINE SMOOTH",
"782 592 OFFCURVE",
"778 596 OFFCURVE",
"773 603 CURVE",
"773 612 LINE SMOOTH",
"773 621 OFFCURVE",
"778 625 OFFCURVE",
"780 633 CURVE",
"789 642 LINE",
"789 641 LINE SMOOTH",
"791 652 OFFCURVE",
"798 643 OFFCURVE",
"798 669 CURVE",
"796 674 OFFCURVE",
"793 679 OFFCURVE",
"790 684 CURVE",
"789 689 OFFCURVE",
"784 698 OFFCURVE",
"780 701 CURVE",
"779 703 OFFCURVE",
"779 706 OFFCURVE",
"779 709 CURVE",
"773 718 LINE",
"773 720 OFFCURVE",
"773 722 OFFCURVE",
"772 724 CURVE",
"773 727 OFFCURVE",
"773 730 OFFCURVE",
"773 733 CURVE",
"799 774 OFFCURVE",
"814 838 OFFCURVE",
"814 886 CURVE SMOOTH",
"814 998 OFFCURVE",
"764 1064 OFFCURVE",
"661 1101 CURVE",
"661 1100 LINE",
"658 1097 LINE",
"659 1095 OFFCURVE",
"656 1095 OFFCURVE",
"657 1094 CURVE",
"661 1092 LINE",
"726 1015 OFFCURVE",
"767 988 OFFCURVE",
"767 876 CURVE SMOOTH",
"767 725 OFFCURVE",
"653 685 OFFCURVE",
"646 648 CURVE",
"658 628 OFFCURVE",
"681 557 OFFCURVE",
"688 532 CURVE SMOOTH",
"702 485 OFFCURVE",
"728 434 OFFCURVE",
"749 390 CURVE SMOOTH",
"776 334 OFFCURVE",
"797 257 OFFCURVE",
"830 205 CURVE",
"830 204 LINE",
"831 204 OFFCURVE",
"834 204 OFFCURVE",
"835 203 CURVE"
);
},
{
closed = 1;
nodes = (
"792 199 LINE",
"791 200 OFFCURVE",
"793 200 OFFCURVE",
"793 200 CURVE",
"794 200 OFFCURVE",
"795 199 OFFCURVE",
"796 199 CURVE",
"796 204 LINE",
"733 345 OFFCURVE",
"681 489 OFFCURVE",
"618 630 CURVE",
"618 633 LINE",
"616 631 LINE",
"615 631 LINE",
"616 615 OFFCURVE",
"606 573 OFFCURVE",
"606 547 CURVE",
"643 455 OFFCURVE",
"677 363 OFFCURVE",
"718 273 CURVE SMOOTH",
"726 256 OFFCURVE",
"749 222 OFFCURVE",
"767 216 CURVE",
"769 212 LINE",
"771 211 LINE",
"775 211 OFFCURVE",
"777 208 OFFCURVE",
"779 205 CURVE",
"783 202 OFFCURVE",
"787 200 OFFCURVE",
"792 199 CURVE"
);
}
);
width = 1200;
}
);
note = uniE60A;
unicode = E60A;
},
{
color = 0;
glyphname = uniE60B;
lastChange = "2019-11-04 21:29:28 +0000";
layers = (
{
layerId = "F8C3375C-B372-4BAE-A3FB-5A8DC7FA7AB9";
paths = (
{
closed = 1;
nodes = (
"394 260 LINE",
"437 260 LINE",
"437 361 LINE",
"418 361 LINE SMOOTH",
"408 361 OFFCURVE",
"401 361 OFFCURVE",
"396 362 CURVE SMOOTH",
"385 364 OFFCURVE",
"375 368 OFFCURVE",
"367 374 CURVE SMOOTH",
"360 379 OFFCURVE",
"354 387 OFFCURVE",
"349 397 CURVE SMOOTH",
"347 401 OFFCURVE",
"345 406 OFFCURVE",
"343 412 CURVE SMOOTH",
"340 419 OFFCURVE",
"339 432 OFFCURVE",
"339 452 CURVE SMOOTH",
"339 455 OFFCURVE",
"339 457 OFFCURVE",
"340 459 CURVE",
"340 465 LINE",
"343 470 OFFCURVE",
"344 475 OFFCURVE",
"344 482 CURVE SMOOTH",
"344 493 LINE SMOOTH",
"344 496 OFFCURVE",
"345 499 OFFCURVE",
"345 501 CURVE",
"347 504 OFFCURVE",
"347 507 OFFCURVE",
"347 510 CURVE SMOOTH",
"347 518 LINE SMOOTH",
"347 522 OFFCURVE",
"348 525 OFFCURVE",
"349 528 CURVE",
"349 537 LINE SMOOTH",
"349 540 OFFCURVE",
"350 544 OFFCURVE",
"350 549 CURVE SMOOTH",
"350 557 LINE SMOOTH",
"350 563 OFFCURVE",
"351 571 OFFCURVE",
"353 579 CURVE SMOOTH",
"354 588 OFFCURVE",
"355 595 OFFCURVE",
"355 603 CURVE SMOOTH",
"355 627 OFFCURVE",
"353 648 OFFCURVE",
"347 664 CURVE SMOOTH",
"341 682 OFFCURVE",
"334 695 OFFCURVE",
"326 705 CURVE",
"320 710 OFFCURVE",
"309 720 OFFCURVE",
"294 732 CURVE",
"277 741 OFFCURVE",
"263 746 OFFCURVE",
"249 746 CURVE",
"249 752 LINE",
"263 752 OFFCURVE",
"277 756 OFFCURVE",
"292 763 CURVE SMOOTH",
"302 768 OFFCURVE",
"313 777 OFFCURVE",
"326 792 CURVE SMOOTH",
"344 815 OFFCURVE",
"355 846 OFFCURVE",
"355 891 CURVE SMOOTH",
"355 897 OFFCURVE",
"354 905 OFFCURVE",
"353 914 CURVE SMOOTH",
"351 922 OFFCURVE",
"350 929 OFFCURVE",
"350 935 CURVE SMOOTH",
"350 946 LINE SMOOTH",
"350 948 OFFCURVE",
"350 951 OFFCURVE",
"349 956 CURVE SMOOTH",
"349 960 OFFCURVE",
"349 963 OFFCURVE",
"349 965 CURVE",
"348 967 OFFCURVE",
"347 969 OFFCURVE",
"347 973 CURVE SMOOTH",
"347 983 LINE SMOOTH",
"347 986 OFFCURVE",
"347 988 OFFCURVE",
"345 991 CURVE",
"345 993 OFFCURVE",
"344 996 OFFCURVE",
"344 1001 CURVE SMOOTH",
"344 1009 LINE SMOOTH",
"344 1017 OFFCURVE",
"343 1023 OFFCURVE",
"340 1026 CURVE",
"340 1035 LINE",
"339 1037 OFFCURVE",
"339 1040 OFFCURVE",
"339 1043 CURVE SMOOTH",
"339 1061 OFFCURVE",
"340 1073 OFFCURVE",
"343 1080 CURVE",
"344 1091 OFFCURVE",
"349 1101 OFFCURVE",
"356 1108 CURVE SMOOTH",
"362 1114 OFFCURVE",
"370 1120 OFFCURVE",
"379 1125 CURVE SMOOTH",
"389 1131 OFFCURVE",
"402 1133 OFFCURVE",
"418 1133 CURVE SMOOTH",
"437 1133 LINE",
"437 1234 LINE",
"394 1234 LINE SMOOTH",
"367 1234 OFFCURVE",
"341 1231 OFFCURVE",
"317 1224 CURVE SMOOTH",
"298 1218 OFFCURVE",
"278 1208 OFFCURVE",
"258 1195 CURVE SMOOTH",
"243 1184 OFFCURVE",
"231 1167 OFFCURVE",
"221 1144 CURVE",
"214 1121 OFFCURVE",
"211 1097 OFFCURVE",
"211 1071 CURVE SMOOTH",
"211 1024 LINE SMOOTH",
"211 1018 OFFCURVE",
"211 1013 OFFCURVE",
"212 1010 CURVE",
"212 997 LINE",
"213 995 OFFCURVE",
"213 990 OFFCURVE",
"213 984 CURVE SMOOTH",
"213 973 LINE",
"216 962 LINE",
"216 957 OFFCURVE",
"217 953 OFFCURVE",
"217 950 CURVE SMOOTH",
"221 925 LINE",
"221 865 LINE SMOOTH",
"221 858 OFFCURVE",
"221 854 OFFCURVE",
"220 851 CURVE",
"219 840 OFFCURVE",
"215 831 OFFCURVE",
"209 824 CURVE SMOOTH",
"202 816 OFFCURVE",
"192 809 OFFCURVE",
"180 804 CURVE SMOOTH",
"166 797 OFFCURVE",
"149 793 OFFCURVE",
"129 793 CURVE",
"129 699 LINE",
"143 699 OFFCURVE",
"153 699 OFFCURVE",
"158 698 CURVE SMOOTH",
"170 696 OFFCURVE",
"183 691 OFFCURVE",
"197 682 CURVE SMOOTH",
"205 676 OFFCURVE",
"211 667 OFFCURVE",
"216 656 CURVE SMOOTH",
"219 648 OFFCURVE",
"221 640 OFFCURVE",
"221 631 CURVE SMOOTH",
"221 583 LINE SMOOTH",
"221 578 OFFCURVE",
"221 574 OFFCURVE",
"220 571 CURVE SMOOTH",
"219 569 OFFCURVE",
"219 565 OFFCURVE",
"219 559 CURVE",
"218 558 OFFCURVE",
"218 556 OFFCURVE",
"217 552 CURVE SMOOTH",
"217 549 OFFCURVE",
"217 547 OFFCURVE",
"216 545 CURVE",
"214 533 OFFCURVE",
"213 525 OFFCURVE",
"213 520 CURVE SMOOTH",
"213 510 LINE SMOOTH",
"213 505 OFFCURVE",
"213 501 OFFCURVE",
"212 498 CURVE",
"212 486 LINE",
"211 484 OFFCURVE",
"211 479 OFFCURVE",
"211 473 CURVE SMOOTH",
"211 424 LINE SMOOTH",
"211 397 OFFCURVE",
"214 372 OFFCURVE",
"221 348 CURVE",
"230 327 OFFCURVE",
"243 309 OFFCURVE",
"258 294 CURVE",
"277 281 OFFCURVE",
"297 273 OFFCURVE",
"317 268 CURVE SMOOTH",
"338 263 OFFCURVE",
"364 260 OFFCURVE",
"394 260 CURVE"
);
},
{
closed = 1;
nodes = (
"764 361 LINE",
"764 260 LINE",
"807 260 LINE SMOOTH",
"838 260 OFFCURVE",
"863 263 OFFCURVE",
"883 268 CURVE SMOOTH",
"903 273 OFFCURVE",
"922 281 OFFCURVE",
"941 294 CURVE SMOOTH",
"958 308 OFFCURVE",
"971 326 OFFCURVE",
"980 348 CURVE SMOOTH",
"990 372 OFFCURVE",
"995 397 OFFCURVE",
"995 424 CURVE SMOOTH",
"995 429 OFFCURVE",
"994 434 OFFCURVE",
"994 437 CURVE",
"992 447 OFFCURVE",
"991 454 OFFCURVE",
"991 459 CURVE",
"990 461 OFFCURVE",
"990 466 OFFCURVE",
"990 472 CURVE SMOOTH",
"990 485 LINE",
"988 490 OFFCURVE",
"988 493 OFFCURVE",
"988 498 CURVE",
"987 501 OFFCURVE",
"987 505 OFFCURVE",
"987 510 CURVE SMOOTH",
"987 520 LINE SMOOTH",
"987 526 OFFCURVE",
"986 535 OFFCURVE",
"984 548 CURVE SMOOTH",
"983 551 OFFCURVE",
"983 556 OFFCURVE",
"983 561 CURVE",
"980 571 LINE SMOOTH",
"979 574 OFFCURVE",
"979 578 OFFCURVE",
"979 583 CURVE SMOOTH",
"979 631 LINE SMOOTH",
"979 637 OFFCURVE",
"979 641 OFFCURVE",
"980 643 CURVE",
"981 648 OFFCURVE",
"985 657 OFFCURVE",
"992 671 CURVE",
"999 679 OFFCURVE",
"1008 686 OFFCURVE",
"1021 691 CURVE SMOOTH",
"1032 697 OFFCURVE",
"1049 699 OFFCURVE",
"1071 699 CURVE",
"1071 793 LINE",
"1062 793 OFFCURVE",
"1053 794 OFFCURVE",
"1043 796 CURVE SMOOTH",
"1029 799 OFFCURVE",
"1017 805 OFFCURVE",
"1004 813 CURVE SMOOTH",
"996 819 OFFCURVE",
"989 827 OFFCURVE",
"985 837 CURVE SMOOTH",
"981 844 OFFCURVE",
"979 853 OFFCURVE",
"979 864 CURVE SMOOTH",
"979 914 LINE SMOOTH",
"979 919 OFFCURVE",
"979 923 OFFCURVE",
"980 925 CURVE",
"984 950 LINE SMOOTH",
"986 959 OFFCURVE",
"987 967 OFFCURVE",
"987 973 CURVE SMOOTH",
"987 984 LINE SMOOTH",
"987 990 OFFCURVE",
"987 995 OFFCURVE",
"988 997 CURVE",
"988 1002 OFFCURVE",
"988 1006 OFFCURVE",
"990 1010 CURVE",
"990 1024 LINE SMOOTH",
"990 1029 OFFCURVE",
"990 1033 OFFCURVE",
"991 1035 CURVE",
"991 1046 LINE",
"994 1059 OFFCURVE",
"995 1067 OFFCURVE",
"995 1071 CURVE SMOOTH",
"995 1097 OFFCURVE",
"990 1122 OFFCURVE",
"980 1144 CURVE SMOOTH",
"970 1168 OFFCURVE",
"958 1185 OFFCURVE",
"944 1195 CURVE SMOOTH",
"926 1208 OFFCURVE",
"905 1218 OFFCURVE",
"884 1224 CURVE SMOOTH",
"860 1231 OFFCURVE",
"834 1234 OFFCURVE",
"807 1234 CURVE SMOOTH",
"764 1234 LINE",
"764 1133 LINE",
"783 1133 LINE",
"800 1130 OFFCURVE",
"813 1126 OFFCURVE",
"821 1123 CURVE SMOOTH",
"832 1118 OFFCURVE",
"839 1114 OFFCURVE",
"843 1108 CURVE",
"851 1101 OFFCURVE",
"856 1091 OFFCURVE",
"857 1080 CURVE",
"860 1071 OFFCURVE",
"862 1059 OFFCURVE",
"862 1043 CURVE SMOOTH",
"862 1041 OFFCURVE",
"862 1035 OFFCURVE",
"860 1026 CURVE SMOOTH",
"858 1019 OFFCURVE",
"857 1013 OFFCURVE",
"857 1008 CURVE SMOOTH",
"857 1004 OFFCURVE",
"856 998 OFFCURVE",
"854 991 CURVE",
"854 984 LINE SMOOTH",
"854 982 OFFCURVE",
"853 978 OFFCURVE",
"853 973 CURVE SMOOTH",
"853 965 LINE",
"851 958 OFFCURVE",
"851 952 OFFCURVE",
"851 946 CURVE SMOOTH",
"851 935 LINE SMOOTH",
"851 931 OFFCURVE",
"850 928 OFFCURVE",
"849 925 CURVE SMOOTH",
"847 912 OFFCURVE",
"846 905 OFFCURVE",
"846 903 CURVE",
"845 901 OFFCURVE",
"845 897 OFFCURVE",
"845 891 CURVE SMOOTH",
"845 883 OFFCURVE",
"845 873 OFFCURVE",
"847 860 CURVE SMOOTH",
"850 842 OFFCURVE",
"855 825 OFFCURVE",
"864 812 CURVE",
"874 792 LINE",
"888 778 OFFCURVE",
"900 769 OFFCURVE",
"908 763 CURVE",
"923 756 OFFCURVE",
"938 752 OFFCURVE",
"952 752 CURVE",
"952 746 LINE",
"945 746 OFFCURVE",
"930 742 OFFCURVE",
"908 732 CURVE",
"888 716 OFFCURVE",
"877 707 OFFCURVE",
"874 705 CURVE",
"864 688 OFFCURVE",
"856 674 OFFCURVE",
"853 663 CURVE SMOOTH",
"847 644 OFFCURVE",
"845 624 OFFCURVE",
"845 603 CURVE SMOOTH",
"845 597 OFFCURVE",
"845 593 OFFCURVE",
"846 591 CURVE",
"846 579 LINE",
"851 557 LINE",
"851 549 LINE SMOOTH",
"851 544 OFFCURVE",
"851 540 OFFCURVE",
"852 537 CURVE",
"852 534 OFFCURVE",
"853 531 OFFCURVE",
"853 528 CURVE SMOOTH",
"853 518 LINE SMOOTH",
"853 514 OFFCURVE",
"854 512 OFFCURVE",
"854 510 CURVE SMOOTH",
"854 501 LINE",
"856 493 OFFCURVE",
"857 488 OFFCURVE",
"857 482 CURVE SMOOTH",
"857 479 OFFCURVE",
"858 474 OFFCURVE",
"860 467 CURVE SMOOTH",
"862 459 OFFCURVE",
"862 455 OFFCURVE",
"862 452 CURVE SMOOTH",
"862 442 OFFCURVE",
"862 435 OFFCURVE",
"861 430 CURVE SMOOTH",
"860 416 OFFCURVE",
"856 405 OFFCURVE",
"852 397 CURVE",
"843 384 LINE SMOOTH",
"837 377 OFFCURVE",
"830 371 OFFCURVE",
"821 366 CURVE SMOOTH",
"815 363 OFFCURVE",
"802 361 OFFCURVE",
"783 361 CURVE SMOOTH",
"764 361 LINE"
);
}
);
width = 1200;
}
);
note = uniE60B;
unicode = E60B;
},
{
color = 0;
glyphname = uniE60C;
lastChange = "2019-11-04 21:29:28 +0000";
layers = (
{
layerId = "F8C3375C-B372-4BAE-A3FB-5A8DC7FA7AB9";
paths = (
{
closed = 1;
nodes = (
"811 254 LINE",
"860 254 OFFCURVE",
"904 259 OFFCURVE",
"943 272 CURVE SMOOTH",
"981 283 OFFCURVE",
"1012 300 OFFCURVE",
"1035 322 CURVE SMOOTH",
"1055 338 OFFCURVE",
"1075 363 OFFCURVE",
"1094 396 CURVE SMOOTH",
"1105 418 OFFCURVE",
"1111 441 OFFCURVE",
"1111 465 CURVE SMOOTH",
"1111 472 OFFCURVE",
"1111 478 OFFCURVE",
"1110 485 CURVE",
"1111 491 OFFCURVE",
"1111 497 OFFCURVE",
"1111 504 CURVE SMOOTH",
"1111 522 OFFCURVE",
"1107 539 OFFCURVE",
"1100 557 CURVE SMOOTH",
"1090 581 OFFCURVE",
"1078 601 OFFCURVE",
"1063 616 CURVE SMOOTH",
"1049 633 OFFCURVE",
"1029 650 OFFCURVE",
"1003 665 CURVE",
"986 678 OFFCURVE",
"958 693 OFFCURVE",
"921 711 CURVE",
"906 714 OFFCURVE",
"884 722 OFFCURVE",
"855 733 CURVE",
"839 743 OFFCURVE",
"824 751 OFFCURVE",
"811 757 CURVE SMOOTH",
"799 764 OFFCURVE",
"790 772 OFFCURVE",
"786 782 CURVE SMOOTH",
"782 791 OFFCURVE",
"779 803 OFFCURVE",
"778 817 CURVE",
"782 830 LINE",
"783 831 OFFCURVE",
"783 833 OFFCURVE",
"783 836 CURVE",
"784 839 OFFCURVE",
"784 841 OFFCURVE",
"785 842 CURVE",
"790 852 OFFCURVE",
"797 859 OFFCURVE",
"805 864 CURVE SMOOTH",
"815 870 OFFCURVE",
"826 875 OFFCURVE",
"839 880 CURVE SMOOTH",
"850 883 OFFCURVE",
"867 885 OFFCURVE",
"890 885 CURVE SMOOTH",
"899 885 OFFCURVE",
"915 884 OFFCURVE",
"939 882 CURVE SMOOTH",
"949 882 OFFCURVE",
"956 882 OFFCURVE",
"961 881 CURVE SMOOTH",
"970 879 OFFCURVE",
"983 876 OFFCURVE",
"999 871 CURVE",
"1007 867 OFFCURVE",
"1014 865 OFFCURVE",
"1019 864 CURVE",
"1032 859 OFFCURVE",
"1039 855 OFFCURVE",
"1040 850 CURVE",
"1083 991 LINE",
"1073 991 OFFCURVE",
"1062 995 OFFCURVE",
"1047 1001 CURVE",
"1040 1007 OFFCURVE",
"1025 1011 OFFCURVE",
"1003 1016 CURVE SMOOTH",
"983 1020 OFFCURVE",
"966 1022 OFFCURVE",
"951 1022 CURVE SMOOTH",
"938 1022 OFFCURVE",
"928 1023 OFFCURVE",
"922 1024 CURVE",
"890 1024 LINE SMOOTH",
"847 1024 OFFCURVE",
"807 1018 OFFCURVE",
"773 1007 CURVE SMOOTH",
"734 996 OFFCURVE",
"705 981 OFFCURVE",
"685 961 CURVE",
"662 943 OFFCURVE",
"643 920 OFFCURVE",
"628 889 CURVE SMOOTH",
"615 867 OFFCURVE",
"608 842 OFFCURVE",
"608 818 CURVE SMOOTH",
"608 811 OFFCURVE",
"609 805 OFFCURVE",
"609 799 CURVE SMOOTH",
"609 793 OFFCURVE",
"608 788 OFFCURVE",
"608 782 CURVE SMOOTH",
"608 763 OFFCURVE",
"613 745 OFFCURVE",
"621 725 CURVE SMOOTH",
"633 700 OFFCURVE",
"647 679 OFFCURVE",
"662 663 CURVE SMOOTH",
"677 647 OFFCURVE",
"700 631 OFFCURVE",
"728 614 CURVE",
"760 601 OFFCURVE",
"777 592 OFFCURVE",
"811 578 CURVE",
"819 576 OFFCURVE",
"839 569 OFFCURVE",
"870 556 CURVE SMOOTH",
"877 553 OFFCURVE",
"891 546 OFFCURVE",
"911 533 CURVE SMOOTH",
"920 528 OFFCURVE",
"927 518 OFFCURVE",
"932 503 CURVE SMOOTH",
"940 473 LINE",
"939 471 OFFCURVE",
"939 467 OFFCURVE",
"938 463 CURVE SMOOTH",
"936 459 OFFCURVE",
"935 457 OFFCURVE",
"934 455 CURVE",
"934 453 OFFCURVE",
"933 450 OFFCURVE",
"932 447 CURVE",
"930 444 OFFCURVE",
"930 441 OFFCURVE",
"929 439 CURVE SMOOTH",
"925 428 OFFCURVE",
"918 419 OFFCURVE",
"908 413 CURVE",
"870 397 LINE",
"856 394 OFFCURVE",
"838 392 OFFCURVE",
"815 392 CURVE SMOOTH",
"804 392 OFFCURVE",
"796 393 OFFCURVE",
"791 393 CURVE SMOOTH",
"764 396 LINE",
"738 400 LINE",
"715 404 LINE",
"705 407 OFFCURVE",
"690 414 OFFCURVE",
"668 422 CURVE SMOOTH",
"651 429 OFFCURVE",
"639 435 OFFCURVE",
"634 439 CURVE",
"594 298 LINE",
"612 288 OFFCURVE",
"626 282 OFFCURVE",
"635 278 CURVE",
"638 278 OFFCURVE",
"642 277 OFFCURVE",
"648 275 CURVE SMOOTH",
"654 273 OFFCURVE",
"657 272 OFFCURVE",
"659 272 CURVE",
"669 269 OFFCURVE",
"677 266 OFFCURVE",
"686 265 CURVE SMOOTH",
"707 261 OFFCURVE",
"727 258 OFFCURVE",
"746 257 CURVE SMOOTH",
"760 255 OFFCURVE",
"782 254 OFFCURVE",
"811 254 CURVE"
);
},
{
closed = 1;
nodes = (
"187 254 LINE",
"219 254 LINE SMOOTH",
"262 254 OFFCURVE",
"298 257 OFFCURVE",
"327 265 CURVE SMOOTH",
"364 275 OFFCURVE",
"392 291 OFFCURVE",
"413 315 CURVE SMOOTH",
"437 339 OFFCURVE",
"455 369 OFFCURVE",
"466 403 CURVE SMOOTH",
"477 436 OFFCURVE",
"482 471 OFFCURVE",
"482 509 CURVE SMOOTH",
"482 519 OFFCURVE",
"481 529 OFFCURVE",
"481 540 CURVE SMOOTH",
"486 1013 LINE",
"315 1013 LINE",
"317 545 LINE SMOOTH",
"316 514 OFFCURVE",
"313 488 OFFCURVE",
"307 465 CURVE SMOOTH",
"302 448 OFFCURVE",
"294 434 OFFCURVE",
"283 424 CURVE SMOOTH",
"273 414 OFFCURVE",
"262 406 OFFCURVE",
"248 400 CURVE SMOOTH",
"236 395 OFFCURVE",
"220 392 OFFCURVE",
"198 392 CURVE SMOOTH",
"194 392 OFFCURVE",
"185 393 OFFCURVE",
"172 395 CURVE",
"166 395 OFFCURVE",
"162 395 OFFCURVE",
"160 396 CURVE",
"142 400 LINE",
"136 400 OFFCURVE",
"129 402 OFFCURVE",
"122 405 CURVE",
"120 407 OFFCURVE",
"115 408 OFFCURVE",
"113 408 CURVE",
"89 267 LINE",
"102 267 OFFCURVE",
"113 265 OFFCURVE",
"121 260 CURVE",
"123 258 OFFCURVE",
"132 257 OFFCURVE",
"136 257 CURVE SMOOTH",
"149 256 OFFCURVE",
"161 255 OFFCURVE",
"170 255 CURVE",
"173 254 OFFCURVE",
"179 254 OFFCURVE",
"187 254 CURVE"
);
}
);
width = 1200;
}
);
note = uniE60C;
unicode = E60C;
},
{
color = 0;
glyphname = uniE60D;
lastChange = "2019-11-04 21:29:28 +0000";
layers = (
{
layerId = "F8C3375C-B372-4BAE-A3FB-5A8DC7FA7AB9";
paths = (
{
closed = 1;
nodes = (
"129 1059 LINE",
"129 524 LINE",
"220 524 LINE",
"220 975 LINE",
"833 975 LINE",
"833 1059 LINE",
"129 1059 LINE"
);
},
{
closed = 1;
nodes = (
"316 868 LINE",
"316 255 LINE",
"1071 255 LINE",
"1071 868 LINE",
"316 868 LINE"
);
},
{
closed = 1;
nodes = (
"1036 839 LINE",
"1036 302 LINE",
"861 504 LINE",
"749 377 LINE",
"534 611 LINE",
"347 381 LINE",
"347 839 LINE",
"1036 839 LINE"
);
},
{
closed = 1;
nodes = (
"861 594 LINE",
"875 594 OFFCURVE",
"887 596 OFFCURVE",
"896 600 CURVE SMOOTH",
"906 605 OFFCURVE",
"916 612 OFFCURVE",
"925 622 CURVE",
"933 627 OFFCURVE",
"939 636 OFFCURVE",
"944 649 CURVE SMOOTH",
"949 660 OFFCURVE",
"952 672 OFFCURVE",
"952 685 CURVE SMOOTH",
"952 698 OFFCURVE",
"949 709 OFFCURVE",
"944 717 CURVE",
"941 728 OFFCURVE",
"934 738 OFFCURVE",
"925 747 CURVE",
"912 757 OFFCURVE",
"902 763 OFFCURVE",
"896 766 CURVE SMOOTH",
"887 770 OFFCURVE",
"875 772 OFFCURVE",
"861 772 CURVE SMOOTH",
"847 772 OFFCURVE",
"835 770 OFFCURVE",
"826 766 CURVE SMOOTH",
"816 760 OFFCURVE",
"807 755 OFFCURVE",
"800 747 CURVE SMOOTH",
"789 732 OFFCURVE",
"783 723 OFFCURVE",
"781 717 CURVE",
"775 709 OFFCURVE",
"773 698 OFFCURVE",
"773 685 CURVE SMOOTH",
"773 672 OFFCURVE",
"775 660 OFFCURVE",
"781 649 CURVE SMOOTH",
"787 637 OFFCURVE",
"793 628 OFFCURVE",
"800 622 CURVE",
"805 613 OFFCURVE",
"815 606 OFFCURVE",
"826 600 CURVE SMOOTH",
"836 596 OFFCURVE",
"847 594 OFFCURVE",
"861 594 CURVE"
);
}
);
width = 1200;
}
);
note = uniE60D;
unicode = E60D;
},
{
color = 0;
glyphname = uniE60E;
lastChange = "2019-11-04 21:29:28 +0000";
layers = (
{
layerId = "F8C3375C-B372-4BAE-A3FB-5A8DC7FA7AB9";
paths = (
{
closed = 1;
nodes = (
"138 575 LINE",
"485 254 LINE",
"485 408 LINE",
"222 639 LINE",
"222 642 LINE",
"485 872 LINE",
"485 1024 LINE",
"138 702 LINE",
"138 575 LINE"
);
},
{
closed = 1;
nodes = (
"714 408 LINE",
"714 254 LINE",
"1062 571 LINE",
"1062 706 LINE",
"714 1024 LINE",
"714 872 LINE",
"986 642 LINE",
"986 639 LINE",
"714 408 LINE"
);
}
);
width = 1200;
}
);
note = uniE60E;
unicode = E60E;
},
{
color = 0;
glyphname = uniE60F;
lastChange = "2019-11-04 21:29:28 +0000";
layers = (
{
layerId = "F8C3375C-B372-4BAE-A3FB-5A8DC7FA7AB9";
paths = (
{
closed = 1;
nodes = (
"171 239 LINE",
"184 239 OFFCURVE",
"198 240 OFFCURVE",
"212 242 CURVE SMOOTH",
"262 249 OFFCURVE",
"325 273 OFFCURVE",
"401 313 CURVE SMOOTH",
"428 328 OFFCURVE",
"462 342 OFFCURVE",
"503 356 CURVE SMOOTH",
"512 360 OFFCURVE",
"523 363 OFFCURVE",
"535 366 CURVE SMOOTH",
"553 370 OFFCURVE",
"574 372 OFFCURVE",
"597 372 CURVE",
"603 371 OFFCURVE",
"612 371 OFFCURVE",
"625 371 CURVE SMOOTH",
"651 369 OFFCURVE",
"674 364 OFFCURVE",
"696 356 CURVE SMOOTH",
"737 342 OFFCURVE",
"771 328 OFFCURVE",
"797 313 CURVE SMOOTH",
"829 296 OFFCURVE",
"861 281 OFFCURVE",
"894 267 CURVE SMOOTH",
"938 250 OFFCURVE",
"980 241 OFFCURVE",
"1020 239 CURVE SMOOTH",
"1074 239 OFFCURVE",
"1118 251 OFFCURVE",
"1148 274 CURVE SMOOTH",
"1176 295 OFFCURVE",
"1192 322 OFFCURVE",
"1198 357 CURVE SMOOTH",
"1199 366 OFFCURVE",
"1199 375 OFFCURVE",
"1199 384 CURVE SMOOTH",
"1199 415 OFFCURVE",
"1193 440 OFFCURVE",
"1179 459 CURVE SMOOTH",
"1163 482 OFFCURVE",
"1137 495 OFFCURVE",
"1110 495 CURVE SMOOTH",
"1100 495 OFFCURVE",
"1090 492 OFFCURVE",
"1080 488 CURVE SMOOTH",
"1063 482 OFFCURVE",
"1050 466 OFFCURVE",
"1050 449 CURVE SMOOTH",
"1050 447 OFFCURVE",
"1050 445 OFFCURVE",
"1051 443 CURVE",
"1051 429 OFFCURVE",
"1059 416 OFFCURVE",
"1076 403 CURVE",
"1072 409 OFFCURVE",
"1071 415 OFFCURVE",
"1071 421 CURVE SMOOTH",
"1071 425 OFFCURVE",
"1072 429 OFFCURVE",
"1074 432 CURVE SMOOTH",
"1078 439 OFFCURVE",
"1086 443 OFFCURVE",
"1093 443 CURVE SMOOTH",
"1099 443 OFFCURVE",
"1105 441 OFFCURVE",
"1108 437 CURVE",
"1117 430 OFFCURVE",
"1122 418 OFFCURVE",
"1122 407 CURVE SMOOTH",
"1122 396 OFFCURVE",
"1118 386 OFFCURVE",
"1111 379 CURVE SMOOTH",
"1099 366 OFFCURVE",
"1084 359 OFFCURVE",
"1069 359 CURVE SMOOTH",
"1062 359 OFFCURVE",
"1055 360 OFFCURVE",
"1048 363 CURVE SMOOTH",
"1041 365 OFFCURVE",
"1026 374 OFFCURVE",
"1004 390 CURVE SMOOTH",
"988 403 OFFCURVE",
"976 415 OFFCURVE",
"968 423 CURVE SMOOTH",
"940 451 OFFCURVE",
"912 476 OFFCURVE",
"884 496 CURVE SMOOTH",
"844 525 OFFCURVE",
"803 539 OFFCURVE",
"757 539 CURVE SMOOTH",
"735 539 OFFCURVE",
"711 535 OFFCURVE",
"687 527 CURVE SMOOTH",
"651 512 OFFCURVE",
"622 486 OFFCURVE",
"600 450 CURVE",
"591 465 OFFCURVE",
"577 481 OFFCURVE",
"558 499 CURVE SMOOTH",
"527 526 OFFCURVE",
"488 539 OFFCURVE",
"442 539 CURVE SMOOTH",
"423 539 OFFCURVE",
"401 535 OFFCURVE",
"376 528 CURVE SMOOTH",
"335 513 OFFCURVE",
"295 485 OFFCURVE",
"255 446 CURVE SMOOTH",
"197 391 LINE",
"178 377 OFFCURVE",
"156 359 OFFCURVE",
"134 359 CURVE SMOOTH",
"132 359 OFFCURVE",
"129 359 OFFCURVE",
"127 360 CURVE",
"107 361 OFFCURVE",
"92 370 OFFCURVE",
"83 386 CURVE SMOOTH",
"80 392 OFFCURVE",
"79 400 OFFCURVE",
"79 407 CURVE SMOOTH",
"79 418 OFFCURVE",
"82 429 OFFCURVE",
"89 436 CURVE SMOOTH",
"93 441 OFFCURVE",
"99 443 OFFCURVE",
"105 443 CURVE SMOOTH",
"113 443 OFFCURVE",
"121 439 OFFCURVE",
"126 432 CURVE SMOOTH",
"128 429 OFFCURVE",
"129 426 OFFCURVE",
"129 422 CURVE SMOOTH",
"129 416 OFFCURVE",
"127 410 OFFCURVE",
"123 403 CURVE",
"134 409 OFFCURVE",
"142 418 OFFCURVE",
"147 431 CURVE",
"148 437 OFFCURVE",
"150 443 OFFCURVE",
"150 448 CURVE SMOOTH",
"150 457 OFFCURVE",
"147 465 OFFCURVE",
"142 471 CURVE SMOOTH",
"131 486 OFFCURVE",
"116 494 OFFCURVE",
"97 494 CURVE",
"70 497 OFFCURVE",
"42 486 OFFCURVE",
"24 464 CURVE SMOOTH",
"6 444 OFFCURVE",
"-2 416 OFFCURVE",
"0 381 CURVE SMOOTH",
"0 345 OFFCURVE",
"9 317 OFFCURVE",
"28 296 CURVE SMOOTH",
"50 269 OFFCURVE",
"80 252 OFFCURVE",
"119 245 CURVE SMOOTH",
"135 241 OFFCURVE",
"153 239 OFFCURVE",
"171 239 CURVE"
);
}
);
width = 1200;
}
);
note = uniE60F;
unicode = E60F;
},
{
color = 0;
glyphname = uniE610;
lastChange = "2019-11-04 21:29:28 +0000";
layers = (
{
layerId = "F8C3375C-B372-4BAE-A3FB-5A8DC7FA7AB9";
paths = (
{
closed = 1;
nodes = (
"600 1027 LINE",
"678 1027 OFFCURVE",
"746 1031 OFFCURVE",
"805 1040 CURVE SMOOTH",
"861 1046 OFFCURVE",
"889 1056 OFFCURVE",
"889 1068 CURVE SMOOTH",
"889 1076 OFFCURVE",
"873 1084 OFFCURVE",
"842 1091 CURVE SMOOTH",
"818 1096 OFFCURVE",
"776 1101 OFFCURVE",
"718 1105 CURVE",
"744 1207 LINE",
"886 1357 LINE",
"888 1357 LINE",
"888 1358 LINE",
"890 1360 OFFCURVE",
"889 1363 OFFCURVE",
"886 1367 CURVE",
"881 1378 OFFCURVE",
"872 1386 OFFCURVE",
"862 1390 CURVE SMOOTH",
"858 1391 OFFCURVE",
"856 1392 OFFCURVE",
"854 1392 CURVE SMOOTH",
"852 1392 OFFCURVE",
"850 1391 OFFCURVE",
"850 1390 CURVE",
"698 1230 LINE",
"668 1107 LINE",
"660 1107 OFFCURVE",
"649 1108 OFFCURVE",
"634 1108 CURVE SMOOTH",
"600 1108 LINE SMOOTH",
"521 1108 OFFCURVE",
"453 1104 OFFCURVE",
"396 1096 CURVE SMOOTH",
"339 1088 OFFCURVE",
"311 1079 OFFCURVE",
"311 1068 CURVE SMOOTH",
"311 1056 OFFCURVE",
"339 1046 OFFCURVE",
"396 1040 CURVE SMOOTH",
"456 1031 OFFCURVE",
"524 1027 OFFCURVE",
"600 1027 CURVE"
);
},
{
closed = 1;
nodes = (
"681 1046 LINE",
"663 1046 OFFCURVE",
"652 1048 OFFCURVE",
"648 1050 CURVE",
"648 1051 OFFCURVE",
"647 1052 OFFCURVE",
"647 1053 CURVE SMOOTH",
"647 1056 LINE",
"647 1056 OFFCURVE",
"648 1058 OFFCURVE",
"648 1058 CURVE",
"651 1061 LINE",
"654 1057 LINE",
"652 1056 LINE",
"652 1055 OFFCURVE",
"656 1054 OFFCURVE",
"663 1053 CURVE SMOOTH",
"671 1052 OFFCURVE",
"684 1052 OFFCURVE",
"701 1054 CURVE SMOOTH",
"707 1054 OFFCURVE",
"710 1055 OFFCURVE",
"710 1056 CURVE SMOOTH",
"710 1057 LINE",
"707 1057 LINE",
"710 1061 LINE",
"713 1061 OFFCURVE",
"715 1059 OFFCURVE",
"715 1054 CURVE SMOOTH",
"715 1050 OFFCURVE",
"711 1048 OFFCURVE",
"703 1048 CURVE SMOOTH",
"699 1048 LINE",
"697 1047 OFFCURVE",
"691 1046 OFFCURVE",
"681 1046 CURVE"
);
},
{
closed = 1;
nodes = (
"595 392 LINE",
"678 392 OFFCURVE",
"735 399 OFFCURVE",
"767 413 CURVE SMOOTH",
"816 433 LINE",
"841 663 LINE",
"824 646 OFFCURVE",
"796 630 OFFCURVE",
"775 630 CURVE SMOOTH",
"764 630 OFFCURVE",
"754 635 OFFCURVE",
"750 648 CURVE",
"748 663 OFFCURVE",
"759 680 OFFCURVE",
"782 699 CURVE SMOOTH",
"798 712 OFFCURVE",
"806 722 OFFCURVE",
"806 726 CURVE SMOOTH",
"806 728 OFFCURVE",
"804 729 OFFCURVE",
"801 729 CURVE SMOOTH",
"781 728 OFFCURVE",
"765 717 OFFCURVE",
"754 697 CURVE SMOOTH",
"738 671 OFFCURVE",
"719 632 OFFCURVE",
"698 580 CURVE SMOOTH",
"695 573 OFFCURVE",
"691 566 OFFCURVE",
"687 560 CURVE SMOOTH",
"681 552 OFFCURVE",
"677 547 OFFCURVE",
"672 547 CURVE SMOOTH",
"671 547 OFFCURVE",
"669 548 OFFCURVE",
"667 550 CURVE SMOOTH",
"665 552 OFFCURVE",
"664 556 OFFCURVE",
"664 560 CURVE SMOOTH",
"664 568 OFFCURVE",
"667 579 OFFCURVE",
"675 593 CURVE",
"688 622 OFFCURVE",
"698 643 OFFCURVE",
"702 657 CURVE",
"689 646 OFFCURVE",
"666 631 OFFCURVE",
"649 631 CURVE SMOOTH",
"641 631 OFFCURVE",
"633 635 OFFCURVE",
"630 645 CURVE",
"620 636 OFFCURVE",
"607 631 OFFCURVE",
"597 631 CURVE SMOOTH",
"583 631 OFFCURVE",
"573 640 OFFCURVE",
"574 662 CURVE",
"565 644 OFFCURVE",
"547 627 OFFCURVE",
"527 627 CURVE SMOOTH",
"522 627 OFFCURVE",
"518 628 OFFCURVE",
"514 630 CURVE SMOOTH",
"505 633 OFFCURVE",
"502 641 OFFCURVE",
"502 653 CURVE SMOOTH",
"502 671 OFFCURVE",
"511 696 OFFCURVE",
"519 716 CURVE SMOOTH",
"524 727 OFFCURVE",
"530 737 OFFCURVE",
"535 744 CURVE SMOOTH",
"541 750 OFFCURVE",
"545 753 OFFCURVE",
"548 753 CURVE SMOOTH",
"549 753 LINE SMOOTH",
"554 752 OFFCURVE",
"556 748 OFFCURVE",
"556 744 CURVE SMOOTH",
"556 741 OFFCURVE",
"555 739 OFFCURVE",
"553 735 CURVE SMOOTH",
"542 712 OFFCURVE",
"534 692 OFFCURVE",
"530 677 CURVE SMOOTH",
"528 671 OFFCURVE",
"527 666 OFFCURVE",
"527 662 CURVE SMOOTH",
"527 656 OFFCURVE",
"530 652 OFFCURVE",
"534 652 CURVE SMOOTH",
"540 652 OFFCURVE",
"548 657 OFFCURVE",
"558 669 CURVE SMOOTH",
"564 675 LINE",
"570 682 LINE SMOOTH",
"577 691 OFFCURVE",
"583 701 OFFCURVE",
"588 714 CURVE SMOOTH",
"591 720 OFFCURVE",
"593 726 OFFCURVE",
"595 729 CURVE SMOOTH",
"597 734 OFFCURVE",
"599 739 OFFCURVE",
"601 742 CURVE SMOOTH",
"607 750 OFFCURVE",
"611 754 OFFCURVE",
"615 754 CURVE SMOOTH",
"616 754 OFFCURVE",
"617 754 OFFCURVE",
"618 752 CURVE",
"620 750 OFFCURVE",
"621 748 OFFCURVE",
"621 744 CURVE SMOOTH",
"621 737 OFFCURVE",
"617 724 OFFCURVE",
"608 708 CURVE SMOOTH",
"599 691 OFFCURVE",
"594 678 OFFCURVE",
"594 669 CURVE SMOOTH",
"594 663 OFFCURVE",
"596 658 OFFCURVE",
"600 656 CURVE SMOOTH",
"603 654 OFFCURVE",
"609 654 OFFCURVE",
"614 657 CURVE",
"628 661 OFFCURVE",
"636 669 OFFCURVE",
"639 688 CURVE SMOOTH",
"641 700 OFFCURVE",
"647 718 OFFCURVE",
"656 741 CURVE SMOOTH",
"669 768 OFFCURVE",
"679 793 OFFCURVE",
"688 819 CURVE SMOOTH",
"692 831 OFFCURVE",
"696 841 OFFCURVE",
"701 846 CURVE SMOOTH",
"704 850 OFFCURVE",
"707 853 OFFCURVE",
"711 853 CURVE",
"711 853 OFFCURVE",
"712 852 OFFCURVE",
"713 852 CURVE",
"718 850 OFFCURVE",
"720 846 OFFCURVE",
"720 839 CURVE SMOOTH",
"720 830 OFFCURVE",
"717 818 OFFCURVE",
"710 803 CURVE SMOOTH",
"669 705 LINE SMOOTH",
"664 693 OFFCURVE",
"660 682 OFFCURVE",
"658 675 CURVE SMOOTH",
"657 669 OFFCURVE",
"656 664 OFFCURVE",
"656 661 CURVE SMOOTH",
"656 658 OFFCURVE",
"657 656 OFFCURVE",
"659 656 CURVE SMOOTH",
"660 656 OFFCURVE",
"661 656 OFFCURVE",
"662 657 CURVE",
"688 666 LINE SMOOTH",
"703 672 OFFCURVE",
"726 701 OFFCURVE",
"731 728 CURVE SMOOTH",
"733 735 OFFCURVE",
"735 741 OFFCURVE",
"737 744 CURVE SMOOTH",
"739 746 OFFCURVE",
"740 748 OFFCURVE",
"743 748 CURVE SMOOTH",
"744 748 LINE SMOOTH",
"752 748 OFFCURVE",
"756 746 OFFCURVE",
"756 741 CURVE SMOOTH",
"756 737 OFFCURVE",
"755 731 OFFCURVE",
"753 726 CURVE",
"767 740 OFFCURVE",
"790 755 OFFCURVE",
"807 755 CURVE SMOOTH",
"816 755 OFFCURVE",
"823 751 OFFCURVE",
"826 741 CURVE",
"828 737 OFFCURVE",
"828 733 OFFCURVE",
"828 729 CURVE SMOOTH",
"828 713 OFFCURVE",
"818 698 OFFCURVE",
"799 682 CURVE SMOOTH",
"775 663 OFFCURVE",
"767 654 OFFCURVE",
"776 654 CURVE SMOOTH",
"797 654 OFFCURVE",
"828 675 OFFCURVE",
"845 697 CURVE",
"884 1045 LINE",
"834 1029 LINE SMOOTH",
"801 1018 OFFCURVE",
"722 1013 OFFCURVE",
"596 1013 CURVE SMOOTH",
"473 1013 OFFCURVE",
"394 1018 OFFCURVE",
"362 1029 CURVE SMOOTH",
"314 1045 LINE",
"345 726 LINE",
"367 781 OFFCURVE",
"405 874 OFFCURVE",
"467 874 CURVE SMOOTH",
"484 874 OFFCURVE",
"499 864 OFFCURVE",
"513 843 CURVE SMOOTH",
"518 835 OFFCURVE",
"521 828 OFFCURVE",
"521 822 CURVE SMOOTH",
"521 816 OFFCURVE",
"518 813 OFFCURVE",
"512 813 CURVE SMOOTH",
"508 813 LINE",
"499 815 OFFCURVE",
"494 820 OFFCURVE",
"492 828 CURVE",
"486 839 OFFCURVE",
"481 845 OFFCURVE",
"473 846 CURVE SMOOTH",
"471 846 OFFCURVE",
"469 847 OFFCURVE",
"466 847 CURVE SMOOTH",
"456 847 OFFCURVE",
"445 841 OFFCURVE",
"433 828 CURVE SMOOTH",
"407 801 OFFCURVE",
"369 729 OFFCURVE",
"369 688 CURVE SMOOTH",
"369 684 OFFCURVE",
"369 682 OFFCURVE",
"370 678 CURVE SMOOTH",
"370 676 OFFCURVE",
"370 675 OFFCURVE",
"371 673 CURVE",
"373 663 OFFCURVE",
"378 658 OFFCURVE",
"386 658 CURVE SMOOTH",
"394 658 OFFCURVE",
"405 664 OFFCURVE",
"420 676 CURVE SMOOTH",
"437 692 OFFCURVE",
"449 706 OFFCURVE",
"455 718 CURVE SMOOTH",
"460 726 OFFCURVE",
"464 738 OFFCURVE",
"467 754 CURVE",
"467 758 OFFCURVE",
"469 760 OFFCURVE",
"470 763 CURVE SMOOTH",
"473 771 OFFCURVE",
"478 775 OFFCURVE",
"482 775 CURVE SMOOTH",
"484 775 OFFCURVE",
"485 775 OFFCURVE",
"486 774 CURVE",
"492 771 OFFCURVE",
"494 766 OFFCURVE",
"494 758 CURVE SMOOTH",
"494 754 OFFCURVE",
"494 748 OFFCURVE",
"492 741 CURVE SMOOTH",
"486 727 OFFCURVE",
"477 694 OFFCURVE",
"473 681 CURVE SMOOTH",
"471 675 OFFCURVE",
"469 665 OFFCURVE",
"464 650 CURVE SMOOTH",
"460 635 OFFCURVE",
"456 624 OFFCURVE",
"454 617 CURVE SMOOTH",
"452 612 OFFCURVE",
"450 607 OFFCURVE",
"448 603 CURVE SMOOTH",
"444 595 OFFCURVE",
"439 592 OFFCURVE",
"435 592 CURVE SMOOTH",
"434 592 OFFCURVE",
"432 592 OFFCURVE",
"431 593 CURVE SMOOTH",
"428 595 OFFCURVE",
"426 599 OFFCURVE",
"426 604 CURVE SMOOTH",
"426 610 OFFCURVE",
"428 618 OFFCURVE",
"431 627 CURVE SMOOTH",
"439 650 OFFCURVE",
"443 663 OFFCURVE",
"443 667 CURVE",
"433 657 OFFCURVE",
"424 647 OFFCURVE",
"408 637 CURVE SMOOTH",
"399 631 OFFCURVE",
"389 627 OFFCURVE",
"379 627 CURVE SMOOTH",
"371 627 OFFCURVE",
"363 629 OFFCURVE",
"354 633 CURVE",
"377 435 LINE",
"425 413 LINE SMOOTH",
"454 399 OFFCURVE",
"511 392 OFFCURVE",
"595 392 CURVE"
);
},
{
closed = 1;
nodes = (
"600 107 LINE",
"643 107 OFFCURVE",
"681 110 OFFCURVE",
"713 119 CURVE SMOOTH",
"743 126 OFFCURVE",
"758 135 OFFCURVE",
"758 146 CURVE SMOOTH",
"770 350 LINE",
"803 409 LINE",
"749 393 LINE SMOOTH",
"712 382 OFFCURVE",
"661 377 OFFCURVE",
"596 377 CURVE SMOOTH",
"533 377 OFFCURVE",
"482 382 OFFCURVE",
"445 393 CURVE SMOOTH",
"390 408 LINE",
"429 345 LINE",
"442 146 LINE SMOOTH",
"442 135 OFFCURVE",
"458 126 OFFCURVE",
"489 119 CURVE SMOOTH",
"521 110 OFFCURVE",
"558 107 OFFCURVE",
"600 107 CURVE"
);
}
);
width = 1200;
}
);
note = uniE610;
unicode = E610;
},
{
color = 0;
glyphname = uniE611;
lastChange = "2019-11-04 21:29:28 +0000";
layers = (
{
layerId = "F8C3375C-B372-4BAE-A3FB-5A8DC7FA7AB9";
paths = (
{
closed = 1;
nodes = (
"977 603 LINE",
"973 561 OFFCURVE",
"948 525 OFFCURVE",
"918 497 CURVE",
"912 546 OFFCURVE",
"909 596 OFFCURVE",
"909 646 CURVE SMOOTH",
"909 742 OFFCURVE",
"1055 726 OFFCURVE",
"1055 824 CURVE SMOOTH",
"1055 902 OFFCURVE",
"995 866 OFFCURVE",
"995 957 CURVE SMOOTH",
"995 1018 OFFCURVE",
"1029 1020 OFFCURVE",
"1029 1075 CURVE SMOOTH",
"1029 1119 OFFCURVE",
"985 1142 OFFCURVE",
"946 1142 CURVE",
"946 1151 OFFCURVE",
"942 1160 OFFCURVE",
"942 1170 CURVE SMOOTH",
"942 1180 OFFCURVE",
"944 1192 OFFCURVE",
"946 1202 CURVE",
"968 1234 OFFCURVE",
"1010 1244 OFFCURVE",
"1046 1250 CURVE",
"1019 1294 OFFCURVE",
"965 1314 OFFCURVE",
"916 1314 CURVE SMOOTH",
"837 1314 OFFCURVE",
"785 1270 OFFCURVE",
"739 1211 CURVE",
"732 1214 OFFCURVE",
"724 1217 OFFCURVE",
"716 1218 CURVE",
"715 1223 OFFCURVE",
"715 1227 OFFCURVE",
"715 1232 CURVE SMOOTH",
"715 1257 OFFCURVE",
"726 1288 OFFCURVE",
"738 1310 CURVE",
"698 1309 OFFCURVE",
"687 1301 OFFCURVE",
"658 1273 CURVE",
"651 1290 OFFCURVE",
"646 1308 OFFCURVE",
"646 1326 CURVE SMOOTH",
"646 1339 OFFCURVE",
"649 1351 OFFCURVE",
"654 1363 CURVE",
"607 1346 OFFCURVE",
"568 1317 OFFCURVE",
"560 1265 CURVE",
"543 1275 OFFCURVE",
"543 1315 OFFCURVE",
"543 1332 CURVE",
"504 1324 OFFCURVE",
"473 1250 OFFCURVE",
"474 1215 CURVE",
"469 1215 OFFCURVE",
"466 1212 OFFCURVE",
"461 1211 CURVE",
"415 1270 OFFCURVE",
"363 1314 OFFCURVE",
"284 1314 CURVE SMOOTH",
"226 1314 OFFCURVE",
"220 1300 OFFCURVE",
"173 1273 CURVE",
"154 1250 LINE",
"192 1247 OFFCURVE",
"243 1231 OFFCURVE",
"257 1192 CURVE",
"257 1186 OFFCURVE",
"259 1180 OFFCURVE",
"259 1175 CURVE SMOOTH",
"259 1165 OFFCURVE",
"256 1152 OFFCURVE",
"253 1142 CURVE",
"212 1142 OFFCURVE",
"171 1117 OFFCURVE",
"171 1073 CURVE SMOOTH",
"171 1041 OFFCURVE",
"189 1026 OFFCURVE",
"202 999 CURVE SMOOTH",
"206 990 OFFCURVE",
"205 968 OFFCURVE",
"205 957 CURVE SMOOTH",
"205 934 OFFCURVE",
"205 912 OFFCURVE",
"188 895 CURVE",
"162 890 OFFCURVE",
"145 847 OFFCURVE",
"145 824 CURVE SMOOTH",
"145 727 OFFCURVE",
"291 742 OFFCURVE",
"291 646 CURVE SMOOTH",
"291 596 OFFCURVE",
"288 546 OFFCURVE",
"282 497 CURVE",
"251 525 OFFCURVE",
"228 561 OFFCURVE",
"222 603 CURVE",
"187 558 OFFCURVE",
"169 537 OFFCURVE",
"169 480 CURVE SMOOTH",
"169 399 OFFCURVE",
"207 327 OFFCURVE",
"287 301 CURVE",
"317 234 OFFCURVE",
"374 190 OFFCURVE",
"447 182 CURVE",
"491 148 OFFCURVE",
"546 135 OFFCURVE",
"600 135 CURVE SMOOTH",
"654 135 OFFCURVE",
"710 146 OFFCURVE",
"752 182 CURVE",
"826 189 OFFCURVE",
"884 234 OFFCURVE",
"914 301 CURVE",
"999 331 OFFCURVE",
"1031 394 OFFCURVE",
"1031 481 CURVE SMOOTH",
"1031 542 OFFCURVE",
"1013 555 OFFCURVE",
"977 603 CURVE"
);
},
{
closed = 1;
nodes = (
"249 1254 LINE",
"243 1260 OFFCURVE",
"235 1265 OFFCURVE",
"226 1266 CURVE",
"244 1276 OFFCURVE",
"265 1278 OFFCURVE",
"285 1278 CURVE SMOOTH",
"347 1278 OFFCURVE",
"385 1244 OFFCURVE",
"418 1195 CURVE",
"411 1194 OFFCURVE",
"395 1184 OFFCURVE",
"390 1180 CURVE",
"371 1222 OFFCURVE",
"317 1256 OFFCURVE",
"271 1256 CURVE SMOOTH",
"263 1256 OFFCURVE",
"257 1254 OFFCURVE",
"249 1254 CURVE"
);
},
{
closed = 1;
nodes = (
"914 1278 LINE",
"935 1278 OFFCURVE",
"956 1275 OFFCURVE",
"975 1266 CURVE",
"966 1264 OFFCURVE",
"958 1258 OFFCURVE",
"950 1254 CURVE",
"942 1255 OFFCURVE",
"937 1256 OFFCURVE",
"929 1256 CURVE SMOOTH",
"885 1256 OFFCURVE",
"826 1222 OFFCURVE",
"810 1180 CURVE",
"806 1183 OFFCURVE",
"793 1190 OFFCURVE",
"792 1192 CURVE",
"789 1193 OFFCURVE",
"785 1194 OFFCURVE",
"782 1195 CURVE",
"814 1243 OFFCURVE",
"854 1278 OFFCURVE",
"914 1278 CURVE"
);
},
{
closed = 1;
nodes = (
"356 1158 LINE",
"347 1149 OFFCURVE",
"339 1141 OFFCURVE",
"331 1131 CURVE",
"322 1134 OFFCURVE",
"313 1137 OFFCURVE",
"304 1138 CURVE",
"291 1153 OFFCURVE",
"297 1198 OFFCURVE",
"277 1229 CURVE",
"326 1223 OFFCURVE",
"339 1200 OFFCURVE",
"356 1158 CURVE"
);
},
{
closed = 1;
nodes = (
"922 1229 LINE",
"902 1198 OFFCURVE",
"914 1166 OFFCURVE",
"897 1138 CURVE",
"887 1137 OFFCURVE",
"878 1134 OFFCURVE",
"869 1131 CURVE",
"861 1141 OFFCURVE",
"853 1149 OFFCURVE",
"844 1158 CURVE",
"859 1197 OFFCURVE",
"877 1224 OFFCURVE",
"922 1229 CURVE"
);
},
{
closed = 1;
nodes = (
"186 823 LINE",
"186 851 OFFCURVE",
"197 856 OFFCURVE",
"214 873 CURVE",
"214 861 OFFCURVE",
"211 850 OFFCURVE",
"209 838 CURVE",
"236 882 OFFCURVE",
"246 908 OFFCURVE",
"246 960 CURVE SMOOTH",
"246 988 OFFCURVE",
"244 1020 OFFCURVE",
"233 1046 CURVE",
"233 1035 OFFCURVE",
"235 1022 OFFCURVE",
"232 1012 CURVE",
"221 1032 OFFCURVE",
"205 1049 OFFCURVE",
"205 1073 CURVE SMOOTH",
"205 1100 OFFCURVE",
"238 1107 OFFCURVE",
"259 1107 CURVE SMOOTH",
"341 1107 OFFCURVE",
"429 1050 OFFCURVE",
"492 1003 CURVE",
"493 1001 LINE",
"506 992 LINE",
"471 1049 OFFCURVE",
"431 1090 OFFCURVE",
"370 1118 CURVE",
"406 1170 OFFCURVE",
"541 1192 OFFCURVE",
"600 1192 CURVE SMOOTH",
"671 1192 OFFCURVE",
"780 1172 OFFCURVE",
"830 1118 CURVE",
"770 1090 OFFCURVE",
"729 1048 OFFCURVE",
"695 992 CURVE",
"707 1001 LINE",
"708 1000 OFFCURVE",
"710 1002 OFFCURVE",
"709 1003 CURVE",
"772 1051 OFFCURVE",
"858 1107 OFFCURVE",
"941 1107 CURVE SMOOTH",
"963 1107 OFFCURVE",
"995 1100 OFFCURVE",
"995 1073 CURVE SMOOTH",
"995 1050 OFFCURVE",
"979 1031 OFFCURVE",
"968 1012 CURVE",
"965 1022 OFFCURVE",
"967 1035 OFFCURVE",
"967 1046 CURVE",
"955 1020 OFFCURVE",
"954 973 OFFCURVE",
"954 944 CURVE SMOOTH",
"954 907 OFFCURVE",
"973 869 OFFCURVE",
"992 839 CURVE",
"991 850 OFFCURVE",
"988 862 OFFCURVE",
"986 873 CURVE",
"1003 856 OFFCURVE",
"1014 851 OFFCURVE",
"1014 823 CURVE SMOOTH",
"1014 747 OFFCURVE",
"883 773 OFFCURVE",
"876 657 CURVE SMOOTH",
"875 646 OFFCURVE",
"875 635 OFFCURVE",
"875 624 CURVE SMOOTH",
"875 574 OFFCURVE",
"879 524 OFFCURVE",
"884 475 CURVE",
"854 464 OFFCURVE",
"821 460 OFFCURVE",
"789 459 CURVE",
"758 516 OFFCURVE",
"745 583 OFFCURVE",
"712 640 CURVE",
"722 567 OFFCURVE",
"741 495 OFFCURVE",
"769 426 CURVE",
"657 424 OFFCURVE",
"543 424 OFFCURVE",
"431 426 CURVE",
"462 493 OFFCURVE",
"477 568 OFFCURVE",
"489 640 CURVE",
"475 621 OFFCURVE",
"431 515 OFFCURVE",
"424 492 CURVE SMOOTH",
"421 481 OFFCURVE",
"417 469 OFFCURVE",
"411 459 CURVE",
"379 460 OFFCURVE",
"346 464 OFFCURVE",
"316 475 CURVE",
"323 536 OFFCURVE",
"326 596 OFFCURVE",
"326 657 CURVE SMOOTH",
"326 760 OFFCURVE",
"186 752 OFFCURVE",
"186 823 CURVE"
);
},
{
closed = 1;
nodes = (
"600 913 LINE",
"629 913 OFFCURVE",
"647 937 OFFCURVE",
"665 956 CURVE",
"646 943 OFFCURVE",
"623 935 OFFCURVE",
"600 935 CURVE SMOOTH",
"576 935 OFFCURVE",
"554 944 OFFCURVE",
"534 956 CURVE",
"553 937 OFFCURVE",
"571 913 OFFCURVE",
"600 913 CURVE"
);
},
{
closed = 1;
nodes = (
"309 902 LINE",
"309 831 OFFCURVE",
"357 788 OFFCURVE",
"427 788 CURVE SMOOTH",
"444 788 OFFCURVE",
"459 795 OFFCURVE",
"471 806 CURVE",
"476 795 OFFCURVE",
"481 780 OFFCURVE",
"481 767 CURVE SMOOTH",
"481 755 OFFCURVE",
"476 737 OFFCURVE",
"471 726 CURVE",
"491 752 OFFCURVE",
"507 769 OFFCURVE",
"505 803 CURVE",
"531 805 OFFCURVE",
"556 822 OFFCURVE",
"556 850 CURVE",
"544 846 OFFCURVE",
"532 843 OFFCURVE",
"520 843 CURVE SMOOTH",
"467 843 OFFCURVE",
"434 952 OFFCURVE",
"312 952 CURVE SMOOTH",
"298 952 OFFCURVE",
"285 948 OFFCURVE",
"271 948 CURVE",
"282 946 OFFCURVE",
"294 942 OFFCURVE",
"304 937 CURVE",
"292 941 OFFCURVE",
"286 908 OFFCURVE",
"286 901 CURVE SMOOTH",
"286 887 OFFCURVE",
"292 875 OFFCURVE",
"299 863 CURVE",
"300 876 OFFCURVE",
"302 890 OFFCURVE",
"309 902 CURVE"
);
},
{
closed = 1;
nodes = (
"695 803 LINE",
"695 798 LINE SMOOTH",
"695 769 OFFCURVE",
"713 748 OFFCURVE",
"728 726 CURVE",
"725 740 OFFCURVE",
"719 755 OFFCURVE",
"719 770 CURVE SMOOTH",
"719 783 OFFCURVE",
"726 794 OFFCURVE",
"729 806 CURVE",
"742 793 OFFCURVE",
"760 787 OFFCURVE",
"778 787 CURVE SMOOTH",
"847 787 OFFCURVE",
"888 836 OFFCURVE",
"892 902 CURVE",
"897 890 OFFCURVE",
"901 876 OFFCURVE",
"901 863 CURVE",
"909 875 OFFCURVE",
"914 886 OFFCURVE",
"914 900 CURVE SMOOTH",
"914 914 OFFCURVE",
"912 932 OFFCURVE",
"897 937 CURVE",
"907 943 OFFCURVE",
"918 945 OFFCURVE",
"929 948 CURVE",
"915 948 OFFCURVE",
"902 952 OFFCURVE",
"888 952 CURVE SMOOTH",
"760 952 OFFCURVE",
"741 843 OFFCURVE",
"672 843 CURVE SMOOTH",
"670 843 OFFCURVE",
"647 849 OFFCURVE",
"644 850 CURVE",
"644 823 OFFCURVE",
"670 805 OFFCURVE",
"695 803 CURVE"
);
},
{
closed = 1;
nodes = (
"355 913 LINE",
"394 891 OFFCURVE",
"438 862 OFFCURVE",
"462 824 CURVE",
"450 816 OFFCURVE",
"435 811 OFFCURVE",
"421 811 CURVE SMOOTH",
"378 811 OFFCURVE",
"350 839 OFFCURVE",
"350 882 CURVE SMOOTH",
"350 892 OFFCURVE",
"351 903 OFFCURVE",
"355 913 CURVE"
);
},
{
closed = 1;
nodes = (
"846 913 LINE",
"850 905 OFFCURVE",
"851 896 OFFCURVE",
"851 887 CURVE SMOOTH",
"851 846 OFFCURVE",
"826 810 OFFCURVE",
"782 810 CURVE SMOOTH",
"766 810 OFFCURVE",
"751 816 OFFCURVE",
"738 824 CURVE",
"764 862 OFFCURVE",
"807 891 OFFCURVE",
"846 913 CURVE"
);
},
{
closed = 1;
nodes = (
"992 838 LINE",
"992 839 LINE",
"992 838 LINE"
);
},
{
closed = 1;
nodes = (
"203 477 LINE",
"203 491 OFFCURVE",
"203 523 OFFCURVE",
"214 534 CURVE",
"239 458 OFFCURVE",
"318 427 OFFCURVE",
"392 426 CURVE",
"386 417 OFFCURVE",
"377 407 OFFCURVE",
"373 397 CURVE",
"361 386 OFFCURVE",
"356 371 OFFCURVE",
"356 356 CURVE SMOOTH",
"356 344 OFFCURVE",
"360 332 OFFCURVE",
"363 321 CURVE",
"267 321 OFFCURVE",
"203 380 OFFCURVE",
"203 477 CURVE"
);
},
{
closed = 1;
nodes = (
"838 321 LINE",
"842 334 OFFCURVE",
"844 347 OFFCURVE",
"844 360 CURVE SMOOTH",
"844 386 OFFCURVE",
"819 405 OFFCURVE",
"807 426 CURVE",
"883 426 OFFCURVE",
"960 458 OFFCURVE",
"987 534 CURVE",
"996 524 OFFCURVE",
"997 495 OFFCURVE",
"997 482 CURVE SMOOTH",
"997 384 OFFCURVE",
"938 321 OFFCURVE",
"838 321 CURVE"
);
},
{
closed = 1;
nodes = (
"604 168 LINE",
"547 168 OFFCURVE",
"493 191 OFFCURVE",
"454 233 CURVE",
"454 231 OFFCURVE",
"452 231 OFFCURVE",
"451 231 CURVE SMOOTH",
"432 231 OFFCURVE",
"390 336 OFFCURVE",
"390 353 CURVE SMOOTH",
"390 392 OFFCURVE",
"429 396 OFFCURVE",
"458 396 CURVE SMOOTH",
"743 396 LINE SMOOTH",
"769 396 OFFCURVE",
"810 391 OFFCURVE",
"810 356 CURVE SMOOTH",
"810 337 OFFCURVE",
"798 307 OFFCURVE",
"790 290 CURVE SMOOTH",
"756 213 OFFCURVE",
"688 168 OFFCURVE",
"604 168 CURVE"
);
},
{
closed = 1;
nodes = (
"524 359 LINE",
"452 359 LINE SMOOTH",
"439 359 OFFCURVE",
"432 357 OFFCURVE",
"426 345 CURVE",
"426 318 OFFCURVE",
"462 280 OFFCURVE",
"489 280 CURVE SMOOTH",
"512 280 OFFCURVE",
"544 315 OFFCURVE",
"546 337 CURVE",
"547 339 OFFCURVE",
"548 342 OFFCURVE",
"548 345 CURVE SMOOTH",
"548 356 OFFCURVE",
"532 359 OFFCURVE",
"524 359 CURVE"
);
},
{
closed = 1;
nodes = (
"747 359 LINE",
"678 359 LINE SMOOTH",
"669 359 OFFCURVE",
"652 358 OFFCURVE",
"652 345 CURVE SMOOTH",
"652 324 OFFCURVE",
"688 280 OFFCURVE",
"711 280 CURVE SMOOTH",
"740 280 OFFCURVE",
"771 317 OFFCURVE",
"775 343 CURVE",
"771 359 OFFCURVE",
"761 359 OFFCURVE",
"747 359 CURVE"
);
},
{
closed = 1;
nodes = (
"332 288 LINE",
"347 285 OFFCURVE",
"363 285 OFFCURVE",
"378 282 CURVE",
"385 262 OFFCURVE",
"396 244 OFFCURVE",
"407 227 CURVE",
"376 238 OFFCURVE",
"351 262 OFFCURVE",
"332 288 CURVE"
);
},
{
closed = 1;
nodes = (
"793 227 LINE",
"805 244 OFFCURVE",
"815 262 OFFCURVE",
"822 282 CURVE",
"837 284 OFFCURVE",
"852 286 OFFCURVE",
"867 288 CURVE",
"848 262 OFFCURVE",
"824 238 OFFCURVE",
"793 227 CURVE"
);
}
);
width = 1200;
}
);
note = uniE611;
unicode = E611;
},
{
color = 0;
glyphname = uniE612;
lastChange = "2019-11-04 21:29:28 +0000";
layers = (
{
layerId = "F8C3375C-B372-4BAE-A3FB-5A8DC7FA7AB9";
paths = (
{
closed = 1;
nodes = (
"180 1157 LINE",
"177 1043 LINE",
"982 1043 LINE",
"978 1157 LINE",
"180 1157 LINE"
);
},
{
closed = 1;
nodes = (
"177 895 LINE",
"180 782 LINE",
"867 782 LINE",
"869 895 LINE",
"177 895 LINE"
);
},
{
closed = 1;
nodes = (
"180 633 LINE",
"177 520 LINE",
"1023 520 LINE",
"1019 633 LINE",
"180 633 LINE"
);
},
{
closed = 1;
nodes = (
"177 371 LINE",
"180 257 LINE",
"668 257 LINE",
"670 371 LINE",
"177 371 LINE"
);
}
);
width = 1200;
}
);
note = uniE612;
unicode = E612;
},
{
color = 0;
glyphname = uniE613;
lastChange = "2019-11-04 21:29:28 +0000";
layers = (
{
layerId = "F8C3375C-B372-4BAE-A3FB-5A8DC7FA7AB9";
paths = (
{
closed = 1;
nodes = (
"108 1079 LINE",
"108 255 LINE",
"1092 255 LINE",
"1092 879 LINE SMOOTH",
"1092 891 OFFCURVE",
"1091 902 OFFCURVE",
"1086 911 CURVE SMOOTH",
"1077 931 OFFCURVE",
"1067 942 OFFCURVE",
"1043 951 CURVE",
"1036 955 OFFCURVE",
"1026 957 OFFCURVE",
"1015 957 CURVE SMOOTH",
"603 957 LINE",
"603 999 LINE SMOOTH",
"603 1013 OFFCURVE",
"602 1024 OFFCURVE",
"599 1030 CURVE SMOOTH",
"594 1041 OFFCURVE",
"589 1050 OFFCURVE",
"583 1057 CURVE",
"572 1065 OFFCURVE",
"562 1070 OFFCURVE",
"556 1073 CURVE SMOOTH",
"547 1078 OFFCURVE",
"536 1079 OFFCURVE",
"523 1079 CURVE SMOOTH",
"108 1079 LINE"
);
}
);
width = 1200;
}
);
note = uniE613;
unicode = E613;
},
{
color = 0;
glyphname = uniE614;
lastChange = "2019-11-04 21:29:28 +0000";
layers = (
{
layerId = "F8C3375C-B372-4BAE-A3FB-5A8DC7FA7AB9";
paths = (
{
closed = 1;
nodes = (
"302 499 LINE",
"253 256 LINE",
"424 256 LINE",
"470 499 LINE",
"641 499 LINE",
"595 256 LINE",
"767 256 LINE",
"812 499 LINE",
"1000 499 LINE",
"1000 624 LINE",
"842 624 LINE",
"872 777 LINE",
"1050 777 LINE",
"1050 902 LINE",
"897 902 LINE",
"946 1138 LINE",
"779 1138 LINE",
"729 902 LINE",
"558 902 LINE",
"608 1138 LINE",
"436 1138 LINE",
"389 902 LINE",
"203 902 LINE",
"203 777 LINE",
"363 777 LINE",
"333 624 LINE",
"150 624 LINE",
"150 499 LINE",
"302 499 LINE"
);
},
{
closed = 1;
nodes = (
"672 624 LINE",
"500 624 LINE",
"530 777 LINE",
"701 777 LINE",
"672 624 LINE"
);
}
);
width = 1200;
}
);
note = uniE614;
unicode = E614;
},
{
color = 0;
glyphname = uniE615;
lastChange = "2019-11-04 21:29:28 +0000";
layers = (
{
layerId = "F8C3375C-B372-4BAE-A3FB-5A8DC7FA7AB9";
paths = (
{
closed = 1;
nodes = (
"482 224 LINE",
"526 224 OFFCURVE",
"535 290 OFFCURVE",
"550 322 CURVE",
"590 322 OFFCURVE",
"629 326 OFFCURVE",
"669 326 CURVE",
"669 325 LINE",
"672 324 LINE",
"671 323 OFFCURVE",
"673 321 OFFCURVE",
"674 322 CURVE",
"674 319 LINE",
"681 303 OFFCURVE",
"689 287 OFFCURVE",
"696 271 CURVE SMOOTH",
"707 247 OFFCURVE",
"709 231 OFFCURVE",
"740 231 CURVE SMOOTH",
"757 231 OFFCURVE",
"773 248 OFFCURVE",
"789 248 CURVE",
"810 254 OFFCURVE",
"828 264 OFFCURVE",
"846 275 CURVE SMOOTH",
"871 289 OFFCURVE",
"901 286 OFFCURVE",
"901 327 CURVE SMOOTH",
"901 348 OFFCURVE",
"878 387 OFFCURVE",
"869 405 CURVE",
"869 417 LINE",
"873 420 LINE",
"874 425 OFFCURVE",
"876 429 OFFCURVE",
"881 430 CURVE",
"886 438 OFFCURVE",
"906 456 OFFCURVE",
"917 458 CURVE",
"918 462 OFFCURVE",
"920 470 OFFCURVE",
"924 471 CURVE",
"932 480 LINE",
"944 486 OFFCURVE",
"939 490 OFFCURVE",
"948 499 CURVE",
"952 499 LINE",
"962 493 OFFCURVE",
"973 493 OFFCURVE",
"983 486 CURVE",
"1000 482 OFFCURVE",
"1017 471 OFFCURVE",
"1035 471 CURVE SMOOTH",
"1045 471 OFFCURVE",
"1051 472 OFFCURVE",
"1060 477 CURVE SMOOTH",
"1062 478 OFFCURVE",
"1072 490 OFFCURVE",
"1074 493 CURVE SMOOTH",
"1080 503 OFFCURVE",
"1081 517 OFFCURVE",
"1085 528 CURVE SMOOTH",
"1093 548 OFFCURVE",
"1125 615 OFFCURVE",
"1125 634 CURVE SMOOTH",
"1125 666 OFFCURVE",
"1098 672 OFFCURVE",
"1074 682 CURVE SMOOTH",
"1055 690 OFFCURVE",
"1048 696 OFFCURVE",
"1027 699 CURVE",
"1027 739 OFFCURVE",
"1023 777 OFFCURVE",
"1023 817 CURVE SMOOTH",
"1023 818 OFFCURVE",
"1024 820 OFFCURVE",
"1024 821 CURVE",
"1027 824 LINE",
"1035 822 OFFCURVE",
"1054 835 OFFCURVE",
"1060 839 CURVE SMOOTH",
"1083 855 OFFCURVE",
"1118 852 OFFCURVE",
"1118 891 CURVE SMOOTH",
"1118 897 OFFCURVE",
"1109 921 OFFCURVE",
"1107 926 CURVE",
"1104 929 OFFCURVE",
"1102 935 OFFCURVE",
"1100 939 CURVE",
"1100 946 OFFCURVE",
"1067 1019 OFFCURVE",
"1056 1033 CURVE",
"1053 1034 OFFCURVE",
"1051 1036 OFFCURVE",
"1050 1039 CURVE",
"1047 1043 OFFCURVE",
"1042 1047 OFFCURVE",
"1038 1050 CURVE",
"1035 1050 OFFCURVE",
"1032 1051 OFFCURVE",
"1029 1052 CURVE",
"1021 1052 LINE SMOOTH",
"1007 1052 OFFCURVE",
"956 1023 OFFCURVE",
"944 1018 CURVE",
"936 1018 LINE",
"934 1020 OFFCURVE",
"932 1022 OFFCURVE",
"929 1022 CURVE",
"921 1028 OFFCURVE",
"917 1039 OFFCURVE",
"909 1044 CURVE",
"904 1052 OFFCURVE",
"897 1060 OFFCURVE",
"890 1066 CURVE",
"879 1069 OFFCURVE",
"858 1095 OFFCURVE",
"846 1101 CURVE",
"858 1129 OFFCURVE",
"878 1156 OFFCURVE",
"878 1187 CURVE SMOOTH",
"878 1199 OFFCURVE",
"873 1211 OFFCURVE",
"863 1218 CURVE",
"859 1224 OFFCURVE",
"853 1227 OFFCURVE",
"846 1228 CURVE",
"831 1239 OFFCURVE",
"735 1274 OFFCURVE",
"714 1274 CURVE SMOOTH",
"708 1274 OFFCURVE",
"700 1274 OFFCURVE",
"696 1270 CURVE",
"677 1263 OFFCURVE",
"655 1203 OFFCURVE",
"650 1181 CURVE",
"627 1172 OFFCURVE",
"562 1175 OFFCURVE",
"530 1175 CURVE",
"529 1176 OFFCURVE",
"527 1177 OFFCURVE",
"526 1178 CURVE",
"526 1181 LINE",
"523 1188 OFFCURVE",
"516 1205 OFFCURVE",
"510 1210 CURVE",
"506 1237 OFFCURVE",
"487 1267 OFFCURVE",
"457 1267 CURVE SMOOTH",
"446 1267 OFFCURVE",
"435 1260 OFFCURVE",
"425 1258 CURVE",
"421 1255 OFFCURVE",
"399 1246 OFFCURVE",
"395 1246 CURVE",
"367 1228 OFFCURVE",
"299 1217 OFFCURVE",
"299 1175 CURVE SMOOTH",
"299 1168 OFFCURVE",
"302 1161 OFFCURVE",
"302 1154 CURVE",
"314 1136 OFFCURVE",
"320 1114 OFFCURVE",
"331 1095 CURVE",
"331 1084 LINE",
"328 1084 LINE",
"328 1082 LINE",
"327 1079 OFFCURVE",
"270 1030 OFFCURVE",
"261 1012 CURVE",
"248 1001 LINE",
"239 1003 OFFCURVE",
"223 1005 OFFCURVE",
"216 1010 CURVE SMOOTH",
"212 1013 OFFCURVE",
"205 1018 OFFCURVE",
"200 1018 CURVE",
"188 1023 OFFCURVE",
"176 1029 OFFCURVE",
"162 1029 CURVE SMOOTH",
"139 1029 OFFCURVE",
"133 1016 OFFCURVE",
"122 998 CURVE",
"120 983 OFFCURVE",
"108 970 OFFCURVE",
"104 955 CURVE SMOOTH",
"97 929 OFFCURVE",
"75 890 OFFCURVE",
"75 867 CURVE SMOOTH",
"75 844 OFFCURVE",
"87 833 OFFCURVE",
"107 824 CURVE",
"111 824 OFFCURVE",
"122 818 OFFCURVE",
"125 816 CURVE SMOOTH",
"136 808 OFFCURVE",
"157 804 OFFCURVE",
"170 799 CURVE",
"175 767 OFFCURVE",
"177 713 OFFCURVE",
"177 679 CURVE",
"173 679 LINE",
"170 676 LINE",
"170 675 LINE",
"152 669 OFFCURVE",
"138 660 OFFCURVE",
"122 652 CURVE SMOOTH",
"96 640 OFFCURVE",
"82 642 OFFCURVE",
"82 607 CURVE SMOOTH",
"82 596 OFFCURVE",
"87 584 OFFCURVE",
"93 575 CURVE",
"95 562 OFFCURVE",
"133 479 OFFCURVE",
"136 475 CURVE",
"138 469 OFFCURVE",
"154 452 OFFCURVE",
"161 452 CURVE",
"165 450 OFFCURVE",
"172 448 OFFCURVE",
"176 448 CURVE SMOOTH",
"196 448 OFFCURVE",
"234 472 OFFCURVE",
"256 481 CURVE",
"265 481 LINE",
"272 477 OFFCURVE",
"294 453 OFFCURVE",
"301 446 CURVE",
"303 439 OFFCURVE",
"336 411 OFFCURVE",
"339 408 CURVE",
"343 407 OFFCURVE",
"347 404 OFFCURVE",
"350 401 CURVE",
"348 395 OFFCURVE",
"347 389 OFFCURVE",
"344 384 CURVE",
"344 366 OFFCURVE",
"320 339 OFFCURVE",
"320 314 CURVE SMOOTH",
"320 309 OFFCURVE",
"320 301 OFFCURVE",
"324 297 CURVE",
"326 292 OFFCURVE",
"330 287 OFFCURVE",
"333 282 CURVE",
"344 277 OFFCURVE",
"456 231 OFFCURVE",
"461 231 CURVE",
"467 227 OFFCURVE",
"474 224 OFFCURVE",
"482 224 CURVE"
);
},
{
closed = 1;
nodes = (
"596 536 LINE",
"468 536 OFFCURVE",
"384 619 OFFCURVE",
"384 745 CURVE SMOOTH",
"384 878 OFFCURVE",
"468 965 OFFCURVE",
"596 965 CURVE SMOOTH",
"727 965 OFFCURVE",
"813 878 OFFCURVE",
"813 745 CURVE SMOOTH",
"813 619 OFFCURVE",
"727 536 OFFCURVE",
"596 536 CURVE"
);
}
);
width = 1200;
}
);
note = uniE615;
unicode = E615;
},
{
color = 0;
glyphname = uniE616;
lastChange = "2019-11-04 21:29:28 +0000";
layers = (
{
layerId = "F8C3375C-B372-4BAE-A3FB-5A8DC7FA7AB9";
paths = (
{
closed = 1;
nodes = (
"334 314 LINE",
"334 245 LINE",
"601 245 LINE",
"601 314 LINE",
"1200 314 LINE",
"1200 717 LINE",
"1 717 LINE",
"1 314 LINE",
"334 314 LINE"
);
},
{
closed = 1;
nodes = (
"200 381 LINE",
"67 381 LINE",
"67 649 LINE",
"334 649 LINE",
"334 381 LINE",
"267 381 LINE",
"267 581 LINE",
"200 581 LINE",
"200 381 LINE"
);
},
{
closed = 1;
nodes = (
"536 314 LINE",
"401 314 LINE",
"401 649 LINE",
"667 649 LINE",
"667 381 LINE",
"536 381 LINE",
"536 314 LINE"
);
},
{
closed = 1;
nodes = (
"867 381 LINE",
"734 381 LINE",
"734 649 LINE",
"1136 649 LINE",
"1136 381 LINE",
"1067 381 LINE",
"1067 581 LINE",
"1001 581 LINE",
"1001 381 LINE",
"934 381 LINE",
"934 581 LINE",
"867 581 LINE",
"867 381 LINE"
);
},
{
closed = 1;
nodes = (
"536 581 LINE",
"536 449 LINE",
"601 449 LINE",
"601 581 LINE",
"536 581 LINE"
);
}
);
width = 1200;
}
);
note = uniE616;
unicode = E616;
},
{
color = 0;
glyphname = uniE617;
lastChange = "2019-11-04 21:29:28 +0000";
layers = (
{
layerId = "F8C3375C-B372-4BAE-A3FB-5A8DC7FA7AB9";
paths = (
{
closed = 1;
nodes = (
"125 941 LINE",
"128 235 LINE",
"449 368 LINE",
"450 722 LINE",
"470 739 LINE",
"484 755 OFFCURVE",
"498 769 OFFCURVE",
"511 782 CURVE SMOOTH",
"533 805 OFFCURVE",
"549 820 OFFCURVE",
"560 827 CURVE SMOOTH",
"577 839 OFFCURVE",
"590 845 OFFCURVE",
"599 845 CURVE SMOOTH",
"609 845 OFFCURVE",
"622 839 OFFCURVE",
"640 827 CURVE SMOOTH",
"652 819 OFFCURVE",
"668 804 OFFCURVE",
"690 782 CURVE",
"691 782 OFFCURVE",
"704 767 OFFCURVE",
"728 739 CURVE",
"749 722 LINE",
"750 368 LINE",
"1071 235 LINE",
"1074 941 LINE",
"940 1043 LINE SMOOTH",
"915 1061 OFFCURVE",
"888 1081 OFFCURVE",
"860 1101 CURVE SMOOTH",
"813 1139 OFFCURVE",
"760 1176 OFFCURVE",
"700 1212 CURVE",
"675 1230 OFFCURVE",
"654 1243 OFFCURVE",
"637 1252 CURVE SMOOTH",
"620 1260 OFFCURVE",
"607 1263 OFFCURVE",
"599 1263 CURVE SMOOTH",
"592 1263 OFFCURVE",
"579 1260 OFFCURVE",
"561 1252 CURVE SMOOTH",
"530 1235 OFFCURVE",
"483 1205 OFFCURVE",
"419 1161 CURVE SMOOTH",
"389 1141 OFFCURVE",
"336 1101 OFFCURVE",
"260 1043 CURVE SMOOTH",
"192 990 LINE",
"125 941 LINE"
);
}
);
width = 1200;
}
);
note = uniE617;
unicode = E617;
},
{
color = 0;
glyphname = uniE618;
lastChange = "2019-11-04 21:29:28 +0000";
layers = (
{
layerId = "F8C3375C-B372-4BAE-A3FB-5A8DC7FA7AB9";
paths = (
{
closed = 1;
nodes = (
"138 575 LINE",
"485 254 LINE",
"485 408 LINE",
"222 639 LINE",
"222 642 LINE",
"485 872 LINE",
"485 1024 LINE",
"138 702 LINE",
"138 575 LINE"
);
},
{
closed = 1;
nodes = (
"714 408 LINE",
"714 254 LINE",
"1062 571 LINE",
"1062 706 LINE",
"714 1024 LINE",
"714 872 LINE",
"986 642 LINE",
"986 639 LINE",
"714 408 LINE"
);
}
);
width = 1200;
}
);
note = uniE618;
unicode = E618;
},
{
color = 0;
glyphname = uniE619;
lastChange = "2019-11-04 21:29:28 +0000";
layers = (
{
layerId = "F8C3375C-B372-4BAE-A3FB-5A8DC7FA7AB9";
paths = (
{
closed = 1;
nodes = (
"852 256 LINE",
"1029 256 LINE",
"1030 265 OFFCURVE",
"1030 273 OFFCURVE",
"1030 283 CURVE SMOOTH",
"1030 381 OFFCURVE",
"1010 479 OFFCURVE",
"971 576 CURVE SMOOTH",
"927 681 OFFCURVE",
"866 772 OFFCURVE",
"788 850 CURVE SMOOTH",
"711 932 OFFCURVE",
"620 995 OFFCURVE",
"516 1041 CURVE SMOOTH",
"414 1090 OFFCURVE",
"301 1114 OFFCURVE",
"175 1113 CURVE",
"175 933 LINE",
"222 932 OFFCURVE",
"266 926 OFFCURVE",
"309 917 CURVE SMOOTH",
"344 912 OFFCURVE",
"385 899 OFFCURVE",
"434 878 CURVE SMOOTH",
"478 859 OFFCURVE",
"516 839 OFFCURVE",
"549 817 CURVE SMOOTH",
"583 795 OFFCURVE",
"616 766 OFFCURVE",
"649 731 CURVE",
"678 706 OFFCURVE",
"708 671 OFFCURVE",
"738 628 CURVE SMOOTH",
"760 597 OFFCURVE",
"780 559 OFFCURVE",
"799 514 CURVE SMOOTH",
"815 475 OFFCURVE",
"828 434 OFFCURVE",
"837 390 CURVE SMOOTH",
"846 326 OFFCURVE",
"851 282 OFFCURVE",
"852 256 CURVE"
);
},
{
closed = 1;
nodes = (
"576 256 LINE",
"751 256 LINE",
"751 302 OFFCURVE",
"746 344 OFFCURVE",
"738 383 CURVE SMOOTH",
"728 423 OFFCURVE",
"714 462 OFFCURVE",
"697 501 CURVE SMOOTH",
"680 542 OFFCURVE",
"658 577 OFFCURVE",
"633 607 CURVE SMOOTH",
"607 639 OFFCURVE",
"577 670 OFFCURVE",
"544 700 CURVE SMOOTH",
"526 714 OFFCURVE",
"498 732 OFFCURVE",
"460 755 CURVE SMOOTH",
"434 771 OFFCURVE",
"405 787 OFFCURVE",
"371 800 CURVE SMOOTH",
"339 811 OFFCURVE",
"307 820 OFFCURVE",
"275 825 CURVE SMOOTH",
"248 830 OFFCURVE",
"214 832 OFFCURVE",
"173 832 CURVE",
"173 664 LINE",
"173 664 OFFCURVE",
"173 662 OFFCURVE",
"174 662 CURVE",
"174 659 OFFCURVE",
"175 658 OFFCURVE",
"177 658 CURVE",
"177 656 LINE",
"182 651 LINE",
"184 651 LINE",
"184 650 OFFCURVE",
"184 649 OFFCURVE",
"185 649 CURVE SMOOTH",
"213 649 LINE SMOOTH",
"216 649 OFFCURVE",
"218 649 OFFCURVE",
"218 648 CURVE",
"226 648 LINE",
"227 647 OFFCURVE",
"229 647 OFFCURVE",
"231 647 CURVE",
"280 636 OFFCURVE",
"317 624 OFFCURVE",
"343 612 CURVE SMOOTH",
"377 597 OFFCURVE",
"409 578 OFFCURVE",
"437 555 CURVE SMOOTH",
"466 528 OFFCURVE",
"490 498 OFFCURVE",
"506 468 CURVE",
"526 438 OFFCURVE",
"542 402 OFFCURVE",
"553 360 CURVE",
"554 359 OFFCURVE",
"554 357 OFFCURVE",
"556 355 CURVE",
"558 348 LINE SMOOTH",
"560 343 OFFCURVE",
"561 338 OFFCURVE",
"561 335 CURVE SMOOTH",
"563 320 LINE",
"566 309 LINE SMOOTH",
"568 303 OFFCURVE",
"571 288 OFFCURVE",
"572 281 CURVE SMOOTH",
"572 276 OFFCURVE",
"573 272 OFFCURVE",
"573 270 CURVE",
"574 268 OFFCURVE",
"574 266 OFFCURVE",
"575 263 CURVE",
"575 260 OFFCURVE",
"575 257 OFFCURVE",
"576 256 CURVE"
);
},
{
closed = 1;
nodes = (
"289 256 LINE",
"305 256 OFFCURVE",
"321 258 OFFCURVE",
"336 264 CURVE SMOOTH",
"350 270 OFFCURVE",
"363 278 OFFCURVE",
"375 290 CURVE SMOOTH",
"388 303 OFFCURVE",
"396 316 OFFCURVE",
"400 328 CURVE SMOOTH",
"407 345 OFFCURVE",
"411 361 OFFCURVE",
"411 376 CURVE SMOOTH",
"411 390 OFFCURVE",
"407 406 OFFCURVE",
"400 423 CURVE SMOOTH",
"395 437 OFFCURVE",
"388 449 OFFCURVE",
"377 460 CURVE SMOOTH",
"367 471 OFFCURVE",
"354 480 OFFCURVE",
"339 485 CURVE SMOOTH",
"322 492 OFFCURVE",
"306 496 OFFCURVE",
"292 496 CURVE SMOOTH",
"278 496 OFFCURVE",
"262 492 OFFCURVE",
"245 485 CURVE SMOOTH",
"230 479 OFFCURVE",
"218 471 OFFCURVE",
"207 460 CURVE SMOOTH",
"194 449 OFFCURVE",
"184 437 OFFCURVE",
"178 423 CURVE SMOOTH",
"173 407 OFFCURVE",
"170 391 OFFCURVE",
"170 376 CURVE SMOOTH",
"170 360 OFFCURVE",
"173 345 OFFCURVE",
"178 328 CURVE",
"184 315 OFFCURVE",
"193 302 OFFCURVE",
"207 290 CURVE SMOOTH",
"219 278 OFFCURVE",
"231 269 OFFCURVE",
"244 264 CURVE SMOOTH",
"256 258 OFFCURVE",
"271 256 OFFCURVE",
"289 256 CURVE"
);
}
);
width = 1200;
}
);
note = uniE619;
unicode = E619;
},
{
color = 0;
glyphname = uniE61A;
lastChange = "2019-11-04 21:29:28 +0000";
layers = (
{
layerId = "F8C3375C-B372-4BAE-A3FB-5A8DC7FA7AB9";
paths = (
{
closed = 1;
nodes = (
"546 235 LINE",
"571 235 OFFCURVE",
"590 244 OFFCURVE",
"604 265 CURVE",
"612 263 OFFCURVE",
"620 262 OFFCURVE",
"625 262 CURVE SMOOTH",
"669 262 OFFCURVE",
"705 290 OFFCURVE",
"707 325 CURVE",
"729 325 OFFCURVE",
"742 349 OFFCURVE",
"742 378 CURVE SMOOTH",
"742 384 OFFCURVE",
"741 390 OFFCURVE",
"740 393 CURVE",
"737 412 OFFCURVE",
"696 483 OFFCURVE",
"672 520 CURVE",
"692 504 OFFCURVE",
"720 496 OFFCURVE",
"755 496 CURVE SMOOTH",
"786 496 OFFCURVE",
"804 504 OFFCURVE",
"808 520 CURVE",
"829 504 OFFCURVE",
"854 496 OFFCURVE",
"884 496 CURVE SMOOTH",
"923 496 OFFCURVE",
"958 514 OFFCURVE",
"961 537 CURVE",
"972 533 OFFCURVE",
"984 531 OFFCURVE",
"999 531 CURVE SMOOTH",
"1052 531 OFFCURVE",
"1098 561 OFFCURVE",
"1098 595 CURVE SMOOTH",
"1098 599 OFFCURVE",
"1097 601 OFFCURVE",
"1097 605 CURVE",
"1159 610 OFFCURVE",
"1185 649 OFFCURVE",
"1185 696 CURVE SMOOTH",
"1185 726 OFFCURVE",
"1177 748 OFFCURVE",
"1162 761 CURVE SMOOTH",
"1135 786 OFFCURVE",
"1063 809 OFFCURVE",
"948 831 CURVE SMOOTH",
"871 844 OFFCURVE",
"791 856 OFFCURVE",
"707 866 CURVE",
"708 867 OFFCURVE",
"710 873 OFFCURVE",
"714 883 CURVE",
"714 885 OFFCURVE",
"715 888 OFFCURVE",
"716 891 CURVE",
"718 894 OFFCURVE",
"718 897 OFFCURVE",
"719 899 CURVE",
"725 902 OFFCURVE",
"739 907 OFFCURVE",
"759 913 CURVE",
"774 880 LINE",
"869 878 OFFCURVE",
"933 912 OFFCURVE",
"963 982 CURVE SMOOTH",
"971 999 OFFCURVE",
"977 1026 OFFCURVE",
"983 1062 CURVE",
"986 1071 OFFCURVE",
"988 1090 OFFCURVE",
"990 1102 CURVE SMOOTH",
"991 1109 OFFCURVE",
"993 1114 OFFCURVE",
"995 1117 CURVE",
"1001 1132 LINE SMOOTH",
"1009 1153 OFFCURVE",
"1031 1183 OFFCURVE",
"1055 1210 CURVE",
"1043 1213 OFFCURVE",
"1029 1215 OFFCURVE",
"1011 1215 CURVE SMOOTH",
"918 1215 OFFCURVE",
"810 1148 OFFCURVE",
"771 1057 CURVE",
"760 1061 OFFCURVE",
"742 1066 OFFCURVE",
"718 1071 CURVE",
"712 1095 OFFCURVE",
"701 1124 OFFCURVE",
"674 1160 CURVE SMOOTH",
"660 1178 OFFCURVE",
"645 1195 OFFCURVE",
"627 1210 CURVE SMOOTH",
"592 1239 OFFCURVE",
"533 1263 OFFCURVE",
"469 1263 CURVE SMOOTH",
"359 1263 OFFCURVE",
"246 1217 OFFCURVE",
"161 1135 CURVE SMOOTH",
"71 1050 OFFCURVE",
"15 927 OFFCURVE",
"15 781 CURVE SMOOTH",
"15 661 OFFCURVE",
"55 539 OFFCURVE",
"115 446 CURVE SMOOTH",
"172 360 OFFCURVE",
"239 304 OFFCURVE",
"288 304 CURVE SMOOTH",
"329 304 OFFCURVE",
"367 333 OFFCURVE",
"376 364 CURVE",
"384 341 OFFCURVE",
"396 309 OFFCURVE",
"412 267 CURVE SMOOTH",
"418 250 OFFCURVE",
"446 236 OFFCURVE",
"467 236 CURVE SMOOTH",
"479 236 OFFCURVE",
"488 241 OFFCURVE",
"495 249 CURVE",
"510 239 OFFCURVE",
"527 235 OFFCURVE",
"546 235 CURVE"
);
},
{
closed = 1;
nodes = (
"914 961 LINE",
"909 967 OFFCURVE",
"866 1005 OFFCURVE",
"853 1012 CURVE",
"881 1073 OFFCURVE",
"912 1117 OFFCURVE",
"945 1146 CURVE",
"904 1128 OFFCURVE",
"863 1080 OFFCURVE",
"837 1023 CURVE",
"833 1026 OFFCURVE",
"827 1030 OFFCURVE",
"820 1035 CURVE",
"799 1045 LINE",
"833 1120 OFFCURVE",
"914 1177 OFFCURVE",
"1000 1182 CURVE",
"970 1156 OFFCURVE",
"954 1119 OFFCURVE",
"953 1074 CURVE SMOOTH",
"952 1027 OFFCURVE",
"939 990 OFFCURVE",
"914 961 CURVE"
);
},
{
closed = 1;
nodes = (
"467 897 LINE",
"412 897 OFFCURVE",
"365 942 OFFCURVE",
"365 999 CURVE SMOOTH",
"365 1054 OFFCURVE",
"412 1101 OFFCURVE",
"467 1101 CURVE SMOOTH",
"524 1101 OFFCURVE",
"569 1055 OFFCURVE",
"569 999 CURVE SMOOTH",
"569 942 OFFCURVE",
"525 897 OFFCURVE",
"467 897 CURVE"
);
},
{
closed = 1;
nodes = (
"468 939 LINE",
"499 939 OFFCURVE",
"529 959 OFFCURVE",
"529 999 CURVE SMOOTH",
"529 1039 OFFCURVE",
"499 1059 OFFCURVE",
"468 1059 CURVE SMOOTH",
"438 1059 OFFCURVE",
"407 1039 OFFCURVE",
"407 999 CURVE SMOOTH",
"407 959 OFFCURVE",
"438 939 OFFCURVE",
"468 939 CURVE"
);
},
{
closed = 1;
nodes = (
"468 1005 LINE",
"450 1005 OFFCURVE",
"433 1012 OFFCURVE",
"433 1026 CURVE SMOOTH",
"433 1041 OFFCURVE",
"450 1048 OFFCURVE",
"468 1048 CURVE SMOOTH",
"486 1048 OFFCURVE",
"503 1041 OFFCURVE",
"503 1026 CURVE SMOOTH",
"503 1012 OFFCURVE",
"486 1005 OFFCURVE",
"468 1005 CURVE"
);
},
{
closed = 1;
nodes = (
"659 903 LINE",
"650 924 OFFCURVE",
"646 943 OFFCURVE",
"646 959 CURVE SMOOTH",
"646 991 OFFCURVE",
"656 1020 OFFCURVE",
"676 1045 CURVE",
"735 1045 OFFCURVE",
"802 1013 OFFCURVE",
"833 990 CURVE SMOOTH",
"849 979 OFFCURVE",
"862 967 OFFCURVE",
"873 956 CURVE",
"843 969 OFFCURVE",
"812 976 OFFCURVE",
"780 976 CURVE SMOOTH",
"759 976 OFFCURVE",
"739 971 OFFCURVE",
"720 960 CURVE SMOOTH",
"711 955 OFFCURVE",
"699 952 OFFCURVE",
"686 952 CURVE SMOOTH",
"675 952 OFFCURVE",
"663 954 OFFCURVE",
"648 959 CURVE",
"659 948 OFFCURVE",
"671 943 OFFCURVE",
"684 943 CURVE SMOOTH",
"686 943 OFFCURVE",
"691 944 OFFCURVE",
"700 946 CURVE SMOOTH",
"718 951 OFFCURVE",
"735 955 OFFCURVE",
"751 958 CURVE",
"751 955 OFFCURVE",
"752 953 OFFCURVE",
"752 952 CURVE SMOOTH",
"752 944 LINE",
"731 939 OFFCURVE",
"700 926 OFFCURVE",
"659 903 CURVE"
);
},
{
closed = 1;
nodes = (
"794 912 LINE",
"786 931 OFFCURVE",
"782 948 OFFCURVE",
"782 963 CURVE",
"783 963 LINE SMOOTH",
"793 963 OFFCURVE",
"815 960 OFFCURVE",
"817 958 CURVE",
"817 946 LINE",
"816 941 OFFCURVE",
"816 939 OFFCURVE",
"816 939 CURVE",
"817 939 OFFCURVE",
"818 941 OFFCURVE",
"821 946 CURVE",
"825 956 LINE",
"854 951 OFFCURVE",
"876 945 OFFCURVE",
"889 938 CURVE",
"860 920 OFFCURVE",
"829 912 OFFCURVE",
"794 912 CURVE"
);
},
{
closed = 1;
nodes = (
"470 372 LINE",
"387 372 OFFCURVE",
"313 395 OFFCURVE",
"248 440 CURVE SMOOTH",
"180 484 OFFCURVE",
"130 544 OFFCURVE",
"98 618 CURVE",
"127 604 OFFCURVE",
"161 597 OFFCURVE",
"199 597 CURVE SMOOTH",
"244 597 OFFCURVE",
"286 608 OFFCURVE",
"300 622 CURVE",
"337 611 OFFCURVE",
"371 606 OFFCURVE",
"399 606 CURVE SMOOTH",
"499 606 OFFCURVE",
"591 676 OFFCURVE",
"641 784 CURVE",
"657 797 OFFCURVE",
"667 809 OFFCURVE",
"673 819 CURVE",
"723 816 OFFCURVE",
"789 807 OFFCURVE",
"869 794 CURVE SMOOTH",
"927 786 OFFCURVE",
"983 774 OFFCURVE",
"1037 760 CURVE SMOOTH",
"1086 748 OFFCURVE",
"1100 740 OFFCURVE",
"1106 712 CURVE",
"1029 722 OFFCURVE",
"925 732 OFFCURVE",
"795 742 CURVE SMOOTH",
"794 742 LINE SMOOTH",
"787 744 OFFCURVE",
"767 744 OFFCURVE",
"761 744 CURVE SMOOTH",
"755 745 OFFCURVE",
"746 746 OFFCURVE",
"737 746 CURVE",
"1033 690 LINE",
"1097 676 LINE",
"1082 656 OFFCURVE",
"1059 645 OFFCURVE",
"1028 645 CURVE SMOOTH",
"1016 645 OFFCURVE",
"1007 646 OFFCURVE",
"1000 648 CURVE",
"1005 643 OFFCURVE",
"1007 635 OFFCURVE",
"1007 627 CURVE SMOOTH",
"1007 604 OFFCURVE",
"978 585 OFFCURVE",
"941 585 CURVE SMOOTH",
"931 585 OFFCURVE",
"918 587 OFFCURVE",
"901 592 CURVE",
"903 586 OFFCURVE",
"904 582 OFFCURVE",
"904 578 CURVE SMOOTH",
"904 565 OFFCURVE",
"894 556 OFFCURVE",
"874 548 CURVE SMOOTH",
"866 545 OFFCURVE",
"856 543 OFFCURVE",
"844 543 CURVE SMOOTH",
"824 543 OFFCURVE",
"802 549 OFFCURVE",
"778 560 CURVE",
"778 543 OFFCURVE",
"755 531 OFFCURVE",
"725 531 CURVE SMOOTH",
"693 531 OFFCURVE",
"668 541 OFFCURVE",
"651 560 CURVE SMOOTH",
"650 561 OFFCURVE",
"650 562 OFFCURVE",
"650 564 CURVE",
"646 567 LINE SMOOTH",
"647 566 OFFCURVE",
"648 564 OFFCURVE",
"650 562 CURVE",
"651 560 OFFCURVE",
"652 558 OFFCURVE",
"652 556 CURVE",
"654 554 OFFCURVE",
"654 548 OFFCURVE",
"655 548 CURVE",
"656 546 OFFCURVE",
"656 543 OFFCURVE",
"656 537 CURVE SMOOTH",
"656 516 OFFCURVE",
"647 488 OFFCURVE",
"627 458 CURVE SMOOTH",
"616 443 OFFCURVE",
"604 428 OFFCURVE",
"590 416 CURVE SMOOTH",
"562 390 OFFCURVE",
"518 372 OFFCURVE",
"470 372 CURVE"
);
}
);
width = 1200;
}
);
note = uniE61A;
unicode = E61A;
},
{
color = 0;
glyphname = uniE61B;
lastChange = "2019-11-04 21:29:28 +0000";
layers = (
{
layerId = "F8C3375C-B372-4BAE-A3FB-5A8DC7FA7AB9";
paths = (
{
closed = 1;
nodes = (
"766 1059 LINE",
"817 1059 OFFCURVE",
"875 1071 OFFCURVE",
"899 1091 CURVE SMOOTH",
"914 1104 OFFCURVE",
"922 1119 OFFCURVE",
"922 1135 CURVE SMOOTH",
"922 1158 OFFCURVE",
"905 1182 OFFCURVE",
"872 1201 CURVE SMOOTH",
"844 1216 OFFCURVE",
"804 1223 OFFCURVE",
"751 1223 CURVE SMOOTH",
"743 1223 OFFCURVE",
"728 1223 OFFCURVE",
"706 1221 CURVE SMOOTH",
"622 1214 OFFCURVE",
"568 1197 OFFCURVE",
"545 1168 CURVE SMOOTH",
"522 1140 OFFCURVE",
"482 1123 OFFCURVE",
"425 1119 CURVE SMOOTH",
"417 1119 OFFCURVE",
"409 1118 OFFCURVE",
"402 1118 CURVE SMOOTH",
"389 1118 OFFCURVE",
"378 1120 OFFCURVE",
"370 1123 CURVE SMOOTH",
"355 1129 OFFCURVE",
"347 1139 OFFCURVE",
"347 1148 CURVE SMOOTH",
"347 1155 OFFCURVE",
"351 1161 OFFCURVE",
"359 1165 CURVE SMOOTH",
"374 1172 OFFCURVE",
"390 1175 OFFCURVE",
"408 1175 CURVE SMOOTH",
"416 1175 OFFCURVE",
"424 1174 OFFCURVE",
"433 1173 CURVE SMOOTH",
"447 1170 OFFCURVE",
"458 1167 OFFCURVE",
"464 1163 CURVE",
"472 1168 OFFCURVE",
"477 1174 OFFCURVE",
"477 1181 CURVE",
"472 1198 OFFCURVE",
"444 1206 OFFCURVE",
"394 1204 CURVE SMOOTH",
"351 1200 OFFCURVE",
"327 1191 OFFCURVE",
"321 1176 CURVE SMOOTH",
"313 1159 OFFCURVE",
"311 1148 OFFCURVE",
"312 1140 CURVE SMOOTH",
"319 1101 OFFCURVE",
"374 1074 OFFCURVE",
"445 1074 CURVE SMOOTH",
"452 1074 OFFCURVE",
"459 1074 OFFCURVE",
"466 1075 CURVE SMOOTH",
"523 1080 OFFCURVE",
"568 1096 OFFCURVE",
"599 1122 CURVE SMOOTH",
"630 1148 OFFCURVE",
"679 1163 OFFCURVE",
"746 1170 CURVE",
"757 1170 OFFCURVE",
"767 1171 OFFCURVE",
"777 1171 CURVE SMOOTH",
"796 1171 OFFCURVE",
"812 1169 OFFCURVE",
"825 1166 CURVE SMOOTH",
"847 1159 OFFCURVE",
"858 1147 OFFCURVE",
"858 1135 CURVE SMOOTH",
"858 1127 OFFCURVE",
"853 1119 OFFCURVE",
"841 1114 CURVE SMOOTH",
"823 1105 OFFCURVE",
"797 1099 OFFCURVE",
"774 1099 CURVE SMOOTH",
"757 1099 OFFCURVE",
"741 1102 OFFCURVE",
"730 1108 CURVE SMOOTH",
"717 1115 OFFCURVE",
"710 1123 OFFCURVE",
"707 1133 CURVE",
"689 1131 OFFCURVE",
"675 1127 OFFCURVE",
"670 1119 CURVE",
"665 1114 OFFCURVE",
"662 1108 OFFCURVE",
"662 1103 CURVE SMOOTH",
"662 1102 OFFCURVE",
"663 1101 OFFCURVE",
"663 1099 CURVE SMOOTH",
"664 1088 OFFCURVE",
"677 1078 OFFCURVE",
"702 1068 CURVE SMOOTH",
"717 1062 OFFCURVE",
"741 1059 OFFCURVE",
"766 1059 CURVE"
);
},
{
closed = 1;
nodes = (
"632 927 LINE",
"793 927 OFFCURVE",
"926 940 OFFCURVE",
"1032 968 CURVE",
"1089 980 OFFCURVE",
"1130 995 OFFCURVE",
"1157 1012 CURVE SMOOTH",
"1184 1029 OFFCURVE",
"1197 1045 OFFCURVE",
"1197 1062 CURVE SMOOTH",
"1197 1086 OFFCURVE",
"1175 1108 OFFCURVE",
"1130 1126 CURVE",
"1141 1118 OFFCURVE",
"1147 1108 OFFCURVE",
"1147 1097 CURVE SMOOTH",
"1147 1079 OFFCURVE",
"1135 1063 OFFCURVE",
"1110 1051 CURVE SMOOTH",
"1056 1021 OFFCURVE",
"964 999 OFFCURVE",
"836 987 CURVE SMOOTH",
"779 981 OFFCURVE",
"713 978 OFFCURVE",
"636 978 CURVE SMOOTH",
"498 978 OFFCURVE",
"379 989 OFFCURVE",
"279 1011 CURVE SMOOTH",
"235 1022 OFFCURVE",
"198 1035 OFFCURVE",
"169 1050 CURVE SMOOTH",
"143 1063 OFFCURVE",
"130 1078 OFFCURVE",
"130 1095 CURVE SMOOTH",
"130 1109 OFFCURVE",
"140 1122 OFFCURVE",
"157 1135 CURVE",
"125 1123 OFFCURVE",
"102 1112 OFFCURVE",
"87 1101 CURVE SMOOTH",
"72 1089 OFFCURVE",
"64 1076 OFFCURVE",
"64 1062 CURVE SMOOTH",
"65 1045 OFFCURVE",
"79 1029 OFFCURVE",
"107 1012 CURVE SMOOTH",
"163 979 OFFCURVE",
"264 953 OFFCURVE",
"411 937 CURVE SMOOTH",
"483 930 OFFCURVE",
"556 927 OFFCURVE",
"632 927 CURVE"
);
},
{
closed = 1;
nodes = (
"603 259 LINE",
"612 259 OFFCURVE",
"622 259 OFFCURVE",
"631 260 CURVE SMOOTH",
"638 260 LINE SMOOTH",
"647 259 OFFCURVE",
"657 259 OFFCURVE",
"667 259 CURVE SMOOTH",
"720 259 OFFCURVE",
"772 268 OFFCURVE",
"823 285 CURVE SMOOTH",
"870 302 OFFCURVE",
"906 327 OFFCURVE",
"931 360 CURVE",
"934 360 LINE",
"941 397 OFFCURVE",
"952 431 OFFCURVE",
"967 461 CURVE",
"972 467 OFFCURVE",
"992 495 OFFCURVE",
"1028 546 CURVE SMOOTH",
"1050 577 OFFCURVE",
"1070 606 OFFCURVE",
"1089 633 CURVE",
"1140 727 OFFCURVE",
"1177 836 OFFCURVE",
"1200 961 CURVE",
"1177 929 OFFCURVE",
"1123 902 OFFCURVE",
"1038 884 CURVE SMOOTH",
"928 857 OFFCURVE",
"794 844 OFFCURVE",
"636 844 CURVE SMOOTH",
"491 844 OFFCURVE",
"357 857 OFFCURVE",
"234 884 CURVE SMOOTH",
"187 895 OFFCURVE",
"151 908 OFFCURVE",
"124 921 CURVE SMOOTH",
"98 934 OFFCURVE",
"80 947 OFFCURVE",
"72 961 CURVE",
"80 901 OFFCURVE",
"95 841 OFFCURVE",
"115 784 CURVE",
"90 767 OFFCURVE",
"68 748 OFFCURVE",
"51 726 CURVE SMOOTH",
"17 682 OFFCURVE",
"0 635 OFFCURVE",
"0 585 CURVE SMOOTH",
"0 527 OFFCURVE",
"24 478 OFFCURVE",
"72 439 CURVE SMOOTH",
"105 414 OFFCURVE",
"140 402 OFFCURVE",
"179 402 CURVE SMOOTH",
"191 402 OFFCURVE",
"203 403 OFFCURVE",
"216 406 CURVE",
"221 406 OFFCURVE",
"232 410 OFFCURVE",
"248 415 CURVE SMOOTH",
"264 421 OFFCURVE",
"275 425 OFFCURVE",
"280 426 CURVE",
"237 426 OFFCURVE",
"198 440 OFFCURVE",
"162 470 CURVE",
"119 500 OFFCURVE",
"94 540 OFFCURVE",
"89 591 CURVE",
"86 603 OFFCURVE",
"85 616 OFFCURVE",
"85 628 CURVE SMOOTH",
"85 661 OFFCURVE",
"94 691 OFFCURVE",
"114 720 CURVE",
"120 727 OFFCURVE",
"126 733 OFFCURVE",
"133 739 CURVE",
"149 701 OFFCURVE",
"166 665 OFFCURVE",
"183 633 CURVE SMOOTH",
"191 619 OFFCURVE",
"212 591 OFFCURVE",
"244 546 CURVE SMOOTH",
"261 522 OFFCURVE",
"281 494 OFFCURVE",
"304 461 CURVE",
"317 436 OFFCURVE",
"330 402 OFFCURVE",
"342 360 CURVE",
"368 322 OFFCURVE",
"406 297 OFFCURVE",
"453 285 CURVE",
"503 268 OFFCURVE",
"553 259 OFFCURVE",
"603 259 CURVE"
);
}
);
width = 1200;
}
);
note = uniE61B;
unicode = E61B;
},
{
color = 0;
glyphname = uniE61C;
lastChange = "2019-11-04 21:29:28 +0000";
layers = (
{
layerId = "F8C3375C-B372-4BAE-A3FB-5A8DC7FA7AB9";
paths = (
{
closed = 1;
nodes = (
"566 195 LINE",
"565 199 LINE",
"578 198 OFFCURVE",
"592 197 OFFCURVE",
"605 197 CURVE SMOOTH",
"639 197 OFFCURVE",
"673 201 OFFCURVE",
"707 205 CURVE",
"708 202 LINE",
"705 197 LINE",
"720 197 LINE",
"725 202 OFFCURVE",
"739 251 OFFCURVE",
"741 261 CURVE",
"734 250 OFFCURVE",
"728 237 OFFCURVE",
"722 226 CURVE",
"717 228 OFFCURVE",
"712 229 OFFCURVE",
"707 229 CURVE",
"704 235 OFFCURVE",
"703 236 OFFCURVE",
"703 243 CURVE",
"699 248 OFFCURVE",
"700 270 OFFCURVE",
"703 276 CURVE",
"700 282 LINE",
"700 305 OFFCURVE",
"698 327 OFFCURVE",
"698 350 CURVE SMOOTH",
"698 395 OFFCURVE",
"698 444 OFFCURVE",
"704 488 CURVE",
"703 493 LINE",
"706 494 OFFCURVE",
"707 498 OFFCURVE",
"705 500 CURVE",
"705 504 OFFCURVE",
"705 509 OFFCURVE",
"707 513 CURVE",
"706 520 OFFCURVE",
"711 522 OFFCURVE",
"708 531 CURVE",
"730 629 OFFCURVE",
"750 732 OFFCURVE",
"823 807 CURVE",
"821 808 OFFCURVE",
"820 808 OFFCURVE",
"819 808 CURVE SMOOTH",
"812 808 OFFCURVE",
"775 774 OFFCURVE",
"769 768 CURVE",
"766 766 OFFCURVE",
"764 763 OFFCURVE",
"763 760 CURVE",
"752 756 OFFCURVE",
"750 744 OFFCURVE",
"745 735 CURVE SMOOTH",
"708 675 OFFCURVE",
"675 612 OFFCURVE",
"662 542 CURVE",
"661 542 OFFCURVE",
"659 541 OFFCURVE",
"657 541 CURVE",
"657 549 OFFCURVE",
"656 557 OFFCURVE",
"656 565 CURVE SMOOTH",
"656 577 OFFCURVE",
"658 589 OFFCURVE",
"658 602 CURVE",
"661 606 OFFCURVE",
"667 695 OFFCURVE",
"667 707 CURVE",
"668 707 LINE",
"668 722 OFFCURVE",
"675 739 OFFCURVE",
"672 754 CURVE",
"675 760 OFFCURVE",
"700 910 OFFCURVE",
"703 929 CURVE",
"705 931 LINE",
"705 941 OFFCURVE",
"741 1062 OFFCURVE",
"745 1074 CURVE SMOOTH",
"763 1126 OFFCURVE",
"816 1269 OFFCURVE",
"857 1309 CURVE SMOOTH",
"872 1324 OFFCURVE",
"896 1337 OFFCURVE",
"917 1337 CURVE SMOOTH",
"942 1337 OFFCURVE",
"971 1315 OFFCURVE",
"989 1299 CURVE",
"990 1296 OFFCURVE",
"1003 1283 OFFCURVE",
"1007 1278 CURVE",
"995 1314 OFFCURVE",
"956 1334 OFFCURVE",
"924 1346 CURVE SMOOTH",
"920 1348 LINE",
"915 1348 LINE SMOOTH",
"836 1348 OFFCURVE",
"834 1320 OFFCURVE",
"779 1278 CURVE",
"778 1273 LINE",
"777 1273 LINE",
"685 1184 OFFCURVE",
"629 992 OFFCURVE",
"609 873 CURVE SMOOTH",
"605 847 OFFCURVE",
"602 820 OFFCURVE",
"597 795 CURVE SMOOTH",
"590 760 OFFCURVE",
"589 725 OFFCURVE",
"583 690 CURVE",
"584 691 LINE",
"581 650 OFFCURVE",
"573 609 OFFCURVE",
"573 568 CURVE",
"571 563 LINE",
"571 555 OFFCURVE",
"571 547 OFFCURVE",
"571 539 CURVE",
"568 534 LINE",
"569 531 OFFCURVE",
"570 529 OFFCURVE",
"570 526 CURVE",
"568 519 OFFCURVE",
"569 510 OFFCURVE",
"569 503 CURVE",
"563 511 OFFCURVE",
"561 521 OFFCURVE",
"557 530 CURVE SMOOTH",
"540 568 OFFCURVE",
"488 630 OFFCURVE",
"445 641 CURVE",
"445 643 LINE",
"419 650 OFFCURVE",
"391 647 OFFCURVE",
"367 653 CURVE",
"366 650 LINE",
"367 647 OFFCURVE",
"370 646 OFFCURVE",
"373 645 CURVE",
"376 646 LINE",
"423 637 OFFCURVE",
"446 616 OFFCURVE",
"479 584 CURVE SMOOTH",
"485 578 OFFCURVE",
"486 569 OFFCURVE",
"494 563 CURVE",
"518 523 OFFCURVE",
"536 479 OFFCURVE",
"542 433 CURVE",
"543 433 LINE",
"543 426 OFFCURVE",
"548 420 OFFCURVE",
"545 412 CURVE",
"547 412 LINE",
"547 402 LINE",
"549 399 OFFCURVE",
"550 395 OFFCURVE",
"551 392 CURVE",
"549 386 LINE",
"551 378 LINE",
"549 374 OFFCURVE",
"547 367 OFFCURVE",
"552 365 CURVE",
"552 342 OFFCURVE",
"552 318 OFFCURVE",
"552 295 CURVE SMOOTH",
"552 286 OFFCURVE",
"552 276 OFFCURVE",
"552 266 CURVE",
"550 266 LINE SMOOTH",
"548 266 OFFCURVE",
"550 261 OFFCURVE",
"550 260 CURVE",
"547 260 LINE",
"545 266 OFFCURVE",
"538 286 OFFCURVE",
"539 292 CURVE",
"537 295 LINE",
"535 290 OFFCURVE",
"537 277 OFFCURVE",
"537 271 CURVE",
"538 271 LINE",
"538 235 LINE",
"523 235 OFFCURVE",
"513 229 OFFCURVE",
"498 229 CURVE SMOOTH",
"497 229 LINE",
"493 234 OFFCURVE",
"489 240 OFFCURVE",
"483 244 CURVE",
"485 238 OFFCURVE",
"488 232 OFFCURVE",
"491 227 CURVE",
"486 222 LINE",
"487 216 LINE",
"502 209 OFFCURVE",
"522 205 OFFCURVE",
"538 202 CURVE",
"538 198 LINE",
"540 198 OFFCURVE",
"546 196 OFFCURVE",
"549 196 CURVE",
"554 198 OFFCURVE",
"561 197 OFFCURVE",
"566 195 CURVE"
);
},
{
closed = 1;
nodes = (
"260 151 LINE",
"258 150 LINE",
"291 150 OFFCURVE",
"324 152 OFFCURVE",
"356 158 CURVE",
"367 156 LINE",
"372 172 OFFCURVE",
"374 195 OFFCURVE",
"376 211 CURVE",
"375 210 LINE",
"370 197 OFFCURVE",
"366 184 OFFCURVE",
"360 171 CURVE",
"351 174 OFFCURVE",
"344 175 OFFCURVE",
"335 176 CURVE",
"335 181 LINE",
"332 184 LINE",
"332 190 OFFCURVE",
"331 204 OFFCURVE",
"334 210 CURVE",
"332 215 LINE",
"335 238 OFFCURVE",
"338 260 OFFCURVE",
"343 282 CURVE",
"345 285 OFFCURVE",
"348 288 OFFCURVE",
"348 292 CURVE",
"349 293 LINE",
"356 310 OFFCURVE",
"376 325 OFFCURVE",
"395 321 CURVE",
"400 324 LINE",
"398 326 LINE",
"391 325 LINE",
"385 327 OFFCURVE",
"377 326 OFFCURVE",
"371 326 CURVE SMOOTH",
"353 326 OFFCURVE",
"333 313 OFFCURVE",
"321 301 CURVE",
"321 314 LINE",
"320 314 LINE",
"316 334 OFFCURVE",
"318 355 OFFCURVE",
"313 375 CURVE",
"314 377 OFFCURVE",
"314 379 OFFCURVE",
"314 380 CURVE SMOOTH",
"314 418 OFFCURVE",
"303 462 OFFCURVE",
"297 501 CURVE",
"298 506 LINE",
"298 546 OFFCURVE",
"258 687 OFFCURVE",
"260 713 CURVE",
"257 716 LINE",
"257 696 LINE",
"260 696 LINE",
"258 692 OFFCURVE",
"261 681 OFFCURVE",
"260 676 CURVE SMOOTH",
"259 673 OFFCURVE",
"258 669 OFFCURVE",
"258 666 CURVE SMOOTH",
"258 662 OFFCURVE",
"259 658 OFFCURVE",
"260 654 CURVE",
"261 654 LINE",
"261 641 LINE",
"260 636 OFFCURVE",
"259 631 OFFCURVE",
"262 627 CURVE",
"261 624 OFFCURVE",
"261 621 OFFCURVE",
"260 618 CURVE",
"262 615 OFFCURVE",
"263 595 OFFCURVE",
"264 590 CURVE",
"262 595 LINE",
"262 568 LINE SMOOTH",
"262 542 OFFCURVE",
"270 477 OFFCURVE",
"264 462 CURVE",
"265 457 LINE",
"266 457 LINE",
"266 367 LINE",
"268 367 LINE",
"268 365 OFFCURVE",
"268 362 OFFCURVE",
"269 360 CURVE",
"268 357 OFFCURVE",
"268 354 OFFCURVE",
"268 351 CURVE SMOOTH",
"268 348 OFFCURVE",
"268 345 OFFCURVE",
"269 342 CURVE",
"269 337 OFFCURVE",
"268 331 OFFCURVE",
"266 326 CURVE",
"256 357 OFFCURVE",
"223 412 OFFCURVE",
"193 424 CURVE",
"199 417 OFFCURVE",
"212 403 OFFCURVE",
"216 393 CURVE",
"217 393 LINE",
"226 374 OFFCURVE",
"233 359 OFFCURVE",
"237 339 CURVE",
"238 339 LINE",
"243 310 OFFCURVE",
"253 283 OFFCURVE",
"253 254 CURVE",
"256 254 LINE",
"256 245 OFFCURVE",
"258 196 OFFCURVE",
"260 193 CURVE",
"258 187 OFFCURVE",
"258 182 OFFCURVE",
"258 176 CURVE",
"256 183 OFFCURVE",
"252 190 OFFCURVE",
"252 197 CURVE",
"244 216 LINE",
"244 218 OFFCURVE",
"243 222 OFFCURVE",
"241 223 CURVE",
"240 219 OFFCURVE",
"239 215 OFFCURVE",
"239 212 CURVE SMOOTH",
"239 209 OFFCURVE",
"241 209 OFFCURVE",
"243 209 CURVE",
"243 199 OFFCURVE",
"245 190 OFFCURVE",
"245 181 CURVE SMOOTH",
"245 179 OFFCURVE",
"244 178 OFFCURVE",
"244 176 CURVE",
"236 176 OFFCURVE",
"230 173 OFFCURVE",
"222 172 CURVE",
"217 177 OFFCURVE",
"215 186 OFFCURVE",
"207 186 CURVE",
"209 182 OFFCURVE",
"212 178 OFFCURVE",
"215 175 CURVE",
"209 172 OFFCURVE",
"203 169 OFFCURVE",
"198 165 CURVE",
"198 164 LINE",
"203 160 OFFCURVE",
"209 157 OFFCURVE",
"216 156 CURVE",
"220 153 OFFCURVE",
"254 151 OFFCURVE",
"260 151 CURVE"
);
}
);
width = 1200;
}
);
note = uniE61C;
unicode = E61C;
},
{
color = 0;
glyphname = uniE61D;
lastChange = "2019-11-04 21:29:28 +0000";
layers = (
{
layerId = "F8C3375C-B372-4BAE-A3FB-5A8DC7FA7AB9";
paths = (
{
closed = 1;
nodes = (
"599 172 LINE",
"618 172 OFFCURVE",
"635 177 OFFCURVE",
"653 188 CURVE SMOOTH",
"691 209 OFFCURVE",
"712 222 OFFCURVE",
"716 224 CURVE SMOOTH",
"857 305 LINE SMOOTH",
"888 324 OFFCURVE",
"925 345 OFFCURVE",
"967 369 CURVE SMOOTH",
"988 380 OFFCURVE",
"1003 390 OFFCURVE",
"1013 395 CURVE SMOOTH",
"1069 427 LINE SMOOTH",
"1082 435 OFFCURVE",
"1092 446 OFFCURVE",
"1101 460 CURVE SMOOTH",
"1109 475 OFFCURVE",
"1114 490 OFFCURVE",
"1114 505 CURVE SMOOTH",
"1114 994 LINE SMOOTH",
"1114 1007 OFFCURVE",
"1109 1022 OFFCURVE",
"1101 1039 CURVE",
"1092 1052 OFFCURVE",
"1082 1063 OFFCURVE",
"1069 1071 CURVE SMOOTH",
"1012 1103 OFFCURVE",
"966 1129 OFFCURVE",
"930 1151 CURVE SMOOTH",
"814 1218 LINE",
"721 1270 LINE",
"653 1310 LINE SMOOTH",
"638 1320 OFFCURVE",
"621 1326 OFFCURVE",
"605 1326 CURVE SMOOTH",
"586 1326 OFFCURVE",
"569 1322 OFFCURVE",
"555 1314 CURVE SMOOTH",
"532 1301 OFFCURVE",
"501 1282 OFFCURVE",
"462 1261 CURVE SMOOTH",
"380 1213 OFFCURVE",
"337 1188 OFFCURVE",
"335 1188 CURVE",
"331 1185 OFFCURVE",
"291 1162 OFFCURVE",
"213 1118 CURVE SMOOTH",
"187 1103 OFFCURVE",
"140 1076 OFFCURVE",
"130 1071 CURVE",
"115 1060 OFFCURVE",
"104 1047 OFFCURVE",
"97 1033 CURVE SMOOTH",
"89 1021 OFFCURVE",
"86 1005 OFFCURVE",
"86 986 CURVE SMOOTH",
"86 505 LINE SMOOTH",
"86 490 OFFCURVE",
"90 475 OFFCURVE",
"99 460 CURVE SMOOTH",
"110 443 OFFCURVE",
"120 432 OFFCURVE",
"129 427 CURVE SMOOTH",
"293 334 LINE SMOOTH",
"310 324 OFFCURVE",
"331 312 OFFCURVE",
"359 296 CURVE SMOOTH",
"387 280 OFFCURVE",
"406 269 OFFCURVE",
"418 262 CURVE SMOOTH",
"502 214 LINE SMOOTH",
"510 209 OFFCURVE",
"519 205 OFFCURVE",
"529 199 CURVE SMOOTH",
"538 193 OFFCURVE",
"544 190 OFFCURVE",
"546 189 CURVE SMOOTH",
"564 178 OFFCURVE",
"582 172 OFFCURVE",
"599 172 CURVE"
);
},
{
closed = 1;
nodes = (
"598 407 LINE",
"584 407 OFFCURVE",
"570 408 OFFCURVE",
"555 410 CURVE SMOOTH",
"512 414 OFFCURVE",
"469 428 OFFCURVE",
"428 452 CURVE SMOOTH",
"376 482 OFFCURVE",
"335 524 OFFCURVE",
"304 578 CURVE SMOOTH",
"282 617 OFFCURVE",
"267 657 OFFCURVE",
"261 699 CURVE SMOOTH",
"258 716 OFFCURVE",
"257 733 OFFCURVE",
"257 749 CURVE SMOOTH",
"257 776 OFFCURVE",
"260 801 OFFCURVE",
"267 827 CURVE SMOOTH",
"276 871 OFFCURVE",
"293 911 OFFCURVE",
"318 947 CURVE SMOOTH",
"343 980 OFFCURVE",
"375 1010 OFFCURVE",
"415 1037 CURVE SMOOTH",
"450 1060 OFFCURVE",
"493 1076 OFFCURVE",
"546 1087 CURVE SMOOTH",
"565 1090 OFFCURVE",
"582 1092 OFFCURVE",
"599 1092 CURVE SMOOTH",
"605 1092 OFFCURVE",
"612 1092 OFFCURVE",
"618 1091 CURVE SMOOTH",
"638 1090 OFFCURVE",
"661 1086 OFFCURVE",
"687 1080 CURVE SMOOTH",
"729 1069 OFFCURVE",
"769 1049 OFFCURVE",
"807 1020 CURVE SMOOTH",
"844 992 OFFCURVE",
"873 960 OFFCURVE",
"895 921 CURVE",
"855 895 OFFCURVE",
"806 867 OFFCURVE",
"748 836 CURVE",
"738 852 OFFCURVE",
"722 868 OFFCURVE",
"701 886 CURVE SMOOTH",
"681 901 OFFCURVE",
"660 910 OFFCURVE",
"637 916 CURVE SMOOTH",
"625 919 OFFCURVE",
"614 920 OFFCURVE",
"602 920 CURVE SMOOTH",
"598 920 OFFCURVE",
"593 920 OFFCURVE",
"589 920 CURVE SMOOTH",
"578 919 OFFCURVE",
"563 915 OFFCURVE",
"542 909 CURVE SMOOTH",
"510 897 OFFCURVE",
"484 877 OFFCURVE",
"463 850 CURVE SMOOTH",
"444 824 OFFCURVE",
"432 793 OFFCURVE",
"428 758 CURVE",
"427 723 OFFCURVE",
"435 692 OFFCURVE",
"452 663 CURVE",
"456 654 OFFCURVE",
"467 641 OFFCURVE",
"483 624 CURVE",
"507 607 OFFCURVE",
"521 597 OFFCURVE",
"526 594 CURVE",
"549 586 OFFCURVE",
"565 582 OFFCURVE",
"574 581 CURVE SMOOTH",
"584 580 OFFCURVE",
"593 579 OFFCURVE",
"602 579 CURVE SMOOTH",
"627 579 OFFCURVE",
"651 584 OFFCURVE",
"673 594 CURVE SMOOTH",
"707 612 OFFCURVE",
"732 635 OFFCURVE",
"747 663 CURVE",
"819 623 LINE SMOOTH",
"836 612 OFFCURVE",
"861 597 OFFCURVE",
"895 578 CURVE",
"873 539 OFFCURVE",
"844 505 OFFCURVE",
"808 478 CURVE SMOOTH",
"771 450 OFFCURVE",
"732 430 OFFCURVE",
"689 419 CURVE SMOOTH",
"659 411 OFFCURVE",
"629 407 OFFCURVE",
"598 407 CURVE"
);
},
{
closed = 1;
nodes = (
"853 663 LINE",
"797 663 LINE",
"797 720 LINE",
"739 720 LINE",
"739 778 LINE",
"797 778 LINE",
"797 836 LINE",
"853 836 LINE",
"853 778 LINE",
"912 778 LINE",
"912 720 LINE",
"853 720 LINE",
"853 663 LINE"
);
},
{
closed = 1;
nodes = (
"1047 663 LINE",
"991 663 LINE",
"991 720 LINE",
"935 720 LINE",
"935 778 LINE",
"991 778 LINE",
"991 836 LINE",
"1047 836 LINE",
"1047 778 LINE",
"1103 778 LINE",
"1103 720 LINE",
"1047 720 LINE",
"1047 663 LINE"
);
}
);
width = 1200;
}
);
note = uniE61D;
unicode = E61D;
},
{
color = 0;
glyphname = uniE61E;
lastChange = "2019-11-04 21:29:28 +0000";
layers = (
{
layerId = "F8C3375C-B372-4BAE-A3FB-5A8DC7FA7AB9";
paths = (
{
closed = 1;
nodes = (
"599 171 LINE",
"618 171 OFFCURVE",
"636 176 OFFCURVE",
"653 186 CURVE SMOOTH",
"684 204 OFFCURVE",
"765 250 OFFCURVE",
"784 262 CURVE SMOOTH",
"858 305 LINE SMOOTH",
"884 320 OFFCURVE",
"935 350 OFFCURVE",
"969 369 CURVE SMOOTH",
"989 380 OFFCURVE",
"1004 389 OFFCURVE",
"1014 394 CURVE SMOOTH",
"1029 402 OFFCURVE",
"1048 413 OFFCURVE",
"1070 427 CURVE SMOOTH",
"1083 435 OFFCURVE",
"1093 445 OFFCURVE",
"1102 458 CURVE",
"1110 474 OFFCURVE",
"1115 489 OFFCURVE",
"1115 504 CURVE SMOOTH",
"1115 994 LINE SMOOTH",
"1115 1007 OFFCURVE",
"1110 1022 OFFCURVE",
"1102 1040 CURVE",
"1095 1050 OFFCURVE",
"1084 1060 OFFCURVE",
"1070 1071 CURVE",
"1014 1103 OFFCURVE",
"967 1129 OFFCURVE",
"931 1152 CURVE SMOOTH",
"893 1173 OFFCURVE",
"855 1195 OFFCURVE",
"815 1219 CURVE SMOOTH",
"723 1271 LINE SMOOTH",
"691 1290 OFFCURVE",
"668 1304 OFFCURVE",
"653 1312 CURVE SMOOTH",
"641 1320 OFFCURVE",
"625 1326 OFFCURVE",
"606 1327 CURVE SMOOTH",
"586 1327 OFFCURVE",
"569 1324 OFFCURVE",
"555 1316 CURVE SMOOTH",
"513 1290 OFFCURVE",
"482 1273 OFFCURVE",
"463 1262 CURVE SMOOTH",
"453 1256 OFFCURVE",
"433 1244 OFFCURVE",
"404 1228 CURVE SMOOTH",
"376 1212 OFFCURVE",
"352 1198 OFFCURVE",
"335 1188 CURVE SMOOTH",
"228 1126 OFFCURVE",
"159 1087 OFFCURVE",
"130 1071 CURVE",
"115 1060 OFFCURVE",
"104 1048 OFFCURVE",
"97 1035 CURVE SMOOTH",
"89 1022 OFFCURVE",
"86 1006 OFFCURVE",
"86 988 CURVE SMOOTH",
"86 504 LINE SMOOTH",
"86 490 OFFCURVE",
"90 475 OFFCURVE",
"99 458 CURVE",
"101 458 OFFCURVE",
"102 458 OFFCURVE",
"102 456 CURVE",
"114 441 OFFCURVE",
"123 431 OFFCURVE",
"129 427 CURVE SMOOTH",
"260 353 OFFCURVE",
"357 298 OFFCURVE",
"419 262 CURVE SMOOTH",
"503 214 LINE SMOOTH",
"519 205 OFFCURVE",
"543 191 OFFCURVE",
"548 188 CURVE",
"562 176 OFFCURVE",
"579 171 OFFCURVE",
"599 171 CURVE"
);
},
{
closed = 1;
nodes = (
"597 406 LINE",
"584 406 OFFCURVE",
"569 407 OFFCURVE",
"555 409 CURVE SMOOTH",
"511 414 OFFCURVE",
"469 427 OFFCURVE",
"428 450 CURVE SMOOTH",
"376 481 OFFCURVE",
"335 523 OFFCURVE",
"304 577 CURVE SMOOTH",
"281 616 OFFCURVE",
"267 658 OFFCURVE",
"261 700 CURVE SMOOTH",
"259 716 OFFCURVE",
"258 731 OFFCURVE",
"258 746 CURVE SMOOTH",
"258 774 OFFCURVE",
"261 801 OFFCURVE",
"267 828 CURVE SMOOTH",
"276 871 OFFCURVE",
"293 910 OFFCURVE",
"318 946 CURVE SMOOTH",
"345 983 OFFCURVE",
"378 1014 OFFCURVE",
"415 1037 CURVE SMOOTH",
"459 1064 OFFCURVE",
"502 1081 OFFCURVE",
"548 1087 CURVE SMOOTH",
"565 1090 OFFCURVE",
"589 1092 OFFCURVE",
"619 1092 CURVE SMOOTH",
"642 1090 OFFCURVE",
"665 1086 OFFCURVE",
"688 1079 CURVE SMOOTH",
"728 1069 OFFCURVE",
"768 1050 OFFCURVE",
"808 1019 CURVE SMOOTH",
"846 993 OFFCURVE",
"875 960 OFFCURVE",
"897 921 CURVE",
"857 895 OFFCURVE",
"808 867 OFFCURVE",
"750 835 CURVE",
"740 852 OFFCURVE",
"723 869 OFFCURVE",
"701 886 CURVE SMOOTH",
"682 901 OFFCURVE",
"661 911 OFFCURVE",
"638 914 CURVE",
"627 918 OFFCURVE",
"615 920 OFFCURVE",
"602 920 CURVE SMOOTH",
"583 920 OFFCURVE",
"563 916 OFFCURVE",
"542 908 CURVE SMOOTH",
"513 897 OFFCURVE",
"486 878 OFFCURVE",
"463 850 CURVE SMOOTH",
"444 825 OFFCURVE",
"432 794 OFFCURVE",
"428 758 CURVE SMOOTH",
"427 723 OFFCURVE",
"435 692 OFFCURVE",
"452 663 CURVE SMOOTH",
"463 644 OFFCURVE",
"474 631 OFFCURVE",
"484 623 CURVE SMOOTH",
"499 610 OFFCURVE",
"514 601 OFFCURVE",
"527 595 CURVE SMOOTH",
"540 590 OFFCURVE",
"555 584 OFFCURVE",
"574 580 CURVE SMOOTH",
"584 578 OFFCURVE",
"593 578 OFFCURVE",
"601 578 CURVE SMOOTH",
"627 578 OFFCURVE",
"652 584 OFFCURVE",
"674 595 CURVE SMOOTH",
"707 612 OFFCURVE",
"732 635 OFFCURVE",
"748 663 CURVE",
"820 622 LINE SMOOTH",
"837 611 OFFCURVE",
"863 596 OFFCURVE",
"897 577 CURVE",
"874 538 OFFCURVE",
"846 505 OFFCURVE",
"810 478 CURVE SMOOTH",
"772 450 OFFCURVE",
"732 430 OFFCURVE",
"689 419 CURVE SMOOTH",
"659 410 OFFCURVE",
"629 406 OFFCURVE",
"597 406 CURVE"
);
}
);
width = 1200;
}
);
note = uniE61E;
unicode = E61E;
},
{
color = 0;
glyphname = uniE61F;
lastChange = "2019-11-04 21:29:28 +0000";
layers = (
{
layerId = "F8C3375C-B372-4BAE-A3FB-5A8DC7FA7AB9";
paths = (
{
closed = 1;
nodes = (
"304 649 LINE",
"42 254 LINE",
"239 254 LINE",
"501 649 LINE",
"239 1044 LINE",
"42 1044 LINE",
"304 649 LINE"
);
},
{
closed = 1;
nodes = (
"567 649 LINE",
"304 254 LINE",
"501 254 LINE",
"664 502 LINE",
"829 254 LINE",
"1028 254 LINE",
"501 1044 LINE",
"304 1044 LINE",
"567 649 LINE"
);
},
{
closed = 1;
nodes = (
"720 814 LINE",
"809 682 LINE",
"1158 682 LINE",
"1158 814 LINE",
"720 814 LINE"
);
},
{
closed = 1;
nodes = (
"852 616 LINE",
"940 486 LINE",
"1158 486 LINE",
"1158 616 LINE",
"852 616 LINE"
);
}
);
width = 1200;
}
);
note = uniE61F;
unicode = E61F;
},
{
color = 0;
glyphname = uniE620;
lastChange = "2019-11-04 21:29:28 +0000";
layers = (
{
layerId = "F8C3375C-B372-4BAE-A3FB-5A8DC7FA7AB9";
paths = (
{
closed = 1;
nodes = (
"941 945 LINE",
"1005 945 OFFCURVE",
"1071 987 OFFCURVE",
"1071 1069 CURVE SMOOTH",
"1071 1140 OFFCURVE",
"1014 1200 OFFCURVE",
"945 1200 CURVE SMOOTH",
"871 1200 OFFCURVE",
"815 1144 OFFCURVE",
"815 1074 CURVE",
"809 988 OFFCURVE",
"874 945 OFFCURVE",
"941 945 CURVE"
);
},
{
closed = 1;
nodes = (
"536 258 LINE",
"647 258 OFFCURVE",
"738 277 OFFCURVE",
"855 451 CURVE",
"871 439 OFFCURVE",
"901 510 OFFCURVE",
"943 665 CURVE",
"943 775 OFFCURVE",
"900 877 OFFCURVE",
"826 951 CURVE SMOOTH",
"753 1026 OFFCURVE",
"652 1072 OFFCURVE",
"542 1072 CURVE SMOOTH",
"427 1072 OFFCURVE",
"326 1030 OFFCURVE",
"250 955 CURVE SMOOTH",
"173 879 OFFCURVE",
"129 775 OFFCURVE",
"129 665 CURVE SMOOTH",
"129 555 OFFCURVE",
"173 452 OFFCURVE",
"248 377 CURVE SMOOTH",
"323 302 OFFCURVE",
"426 258 OFFCURVE",
"536 258 CURVE"
);
},
{
closed = 1;
nodes = (
"729 687 LINE",
"655 687 OFFCURVE",
"600 744 OFFCURVE",
"600 815 CURVE SMOOTH",
"600 885 OFFCURVE",
"660 943 OFFCURVE",
"729 943 CURVE SMOOTH",
"803 943 OFFCURVE",
"857 885 OFFCURVE",
"857 815 CURVE SMOOTH",
"857 741 OFFCURVE",
"800 687 OFFCURVE",
"729 687 CURVE"
);
}
);
width = 1200;
}
);
note = uniE620;
unicode = E620;
},
{
color = 0;
glyphname = uniE621;
lastChange = "2019-11-04 21:29:28 +0000";
layers = (
{
layerId = "F8C3375C-B372-4BAE-A3FB-5A8DC7FA7AB9";
paths = (
{
closed = 1;
nodes = (
"601 1305 LINE",
"611 1305 OFFCURVE",
"621 1309 OFFCURVE",
"632 1317 CURVE",
"639 1327 OFFCURVE",
"643 1338 OFFCURVE",
"643 1348 CURVE SMOOTH",
"643 1361 OFFCURVE",
"639 1371 OFFCURVE",
"632 1378 CURVE SMOOTH",
"623 1387 OFFCURVE",
"613 1392 OFFCURVE",
"601 1392 CURVE SMOOTH",
"588 1392 OFFCURVE",
"577 1387 OFFCURVE",
"570 1378 CURVE",
"562 1371 OFFCURVE",
"557 1361 OFFCURVE",
"557 1348 CURVE SMOOTH",
"557 1337 OFFCURVE",
"562 1327 OFFCURVE",
"570 1318 CURVE SMOOTH",
"576 1310 OFFCURVE",
"586 1305 OFFCURVE",
"601 1305 CURVE"
);
},
{
closed = 1;
nodes = (
"600 1134 LINE",
"613 1134 OFFCURVE",
"623 1139 OFFCURVE",
"632 1148 CURVE SMOOTH",
"639 1156 OFFCURVE",
"643 1166 OFFCURVE",
"643 1177 CURVE SMOOTH",
"643 1187 OFFCURVE",
"639 1197 OFFCURVE",
"632 1209 CURVE",
"624 1216 OFFCURVE",
"614 1220 OFFCURVE",
"601 1220 CURVE SMOOTH",
"586 1220 OFFCURVE",
"576 1216 OFFCURVE",
"570 1209 CURVE SMOOTH",
"562 1199 OFFCURVE",
"557 1189 OFFCURVE",
"557 1178 CURVE SMOOTH",
"557 1166 OFFCURVE",
"562 1156 OFFCURVE",
"570 1147 CURVE SMOOTH",
"576 1139 OFFCURVE",
"586 1134 OFFCURVE",
"600 1134 CURVE"
);
},
{
closed = 1;
nodes = (
"601 961 LINE",
"613 961 OFFCURVE",
"623 966 OFFCURVE",
"632 976 CURVE SMOOTH",
"639 986 OFFCURVE",
"643 996 OFFCURVE",
"643 1006 CURVE SMOOTH",
"643 1016 OFFCURVE",
"639 1026 OFFCURVE",
"632 1037 CURVE",
"623 1046 OFFCURVE",
"613 1050 OFFCURVE",
"601 1050 CURVE",
"586 1048 OFFCURVE",
"576 1044 OFFCURVE",
"570 1036 CURVE",
"562 1029 OFFCURVE",
"557 1019 OFFCURVE",
"557 1006 CURVE SMOOTH",
"557 995 OFFCURVE",
"562 984 OFFCURVE",
"570 976 CURVE",
"577 966 OFFCURVE",
"588 961 OFFCURVE",
"601 961 CURVE"
);
},
{
closed = 1;
nodes = (
"600 792 LINE",
"613 792 OFFCURVE",
"624 795 OFFCURVE",
"632 803 CURVE",
"639 816 OFFCURVE",
"643 827 OFFCURVE",
"643 835 CURVE SMOOTH",
"643 847 OFFCURVE",
"639 857 OFFCURVE",
"632 865 CURVE SMOOTH",
"623 873 OFFCURVE",
"613 878 OFFCURVE",
"601 878 CURVE SMOOTH",
"586 878 OFFCURVE",
"576 874 OFFCURVE",
"570 866 CURVE",
"562 859 OFFCURVE",
"557 848 OFFCURVE",
"557 835 CURVE SMOOTH",
"557 824 OFFCURVE",
"562 814 OFFCURVE",
"570 803 CURVE SMOOTH",
"576 795 OFFCURVE",
"586 792 OFFCURVE",
"600 792 CURVE"
);
},
{
closed = 1;
nodes = (
"601 620 LINE",
"626 620 OFFCURVE",
"643 637 OFFCURVE",
"643 665 CURVE SMOOTH",
"643 673 OFFCURVE",
"639 684 OFFCURVE",
"632 695 CURVE",
"623 703 OFFCURVE",
"613 708 OFFCURVE",
"601 708 CURVE SMOOTH",
"586 708 OFFCURVE",
"576 703 OFFCURVE",
"570 695 CURVE SMOOTH",
"562 685 OFFCURVE",
"557 675 OFFCURVE",
"557 665 CURVE SMOOTH",
"557 651 OFFCURVE",
"562 641 OFFCURVE",
"570 633 CURVE SMOOTH",
"576 625 OFFCURVE",
"586 620 OFFCURVE",
"601 620 CURVE"
);
},
{
closed = 1;
nodes = (
"601 449 LINE",
"611 451 OFFCURVE",
"621 455 OFFCURVE",
"632 462 CURVE",
"639 473 OFFCURVE",
"643 484 OFFCURVE",
"643 492 CURVE SMOOTH",
"643 502 OFFCURVE",
"639 512 OFFCURVE",
"632 522 CURVE SMOOTH",
"623 532 OFFCURVE",
"613 537 OFFCURVE",
"601 537 CURVE SMOOTH",
"588 537 OFFCURVE",
"577 532 OFFCURVE",
"570 522 CURVE",
"562 516 OFFCURVE",
"557 507 OFFCURVE",
"557 493 CURVE SMOOTH",
"557 481 OFFCURVE",
"562 471 OFFCURVE",
"570 461 CURVE SMOOTH",
"578 453 OFFCURVE",
"588 449 OFFCURVE",
"601 449 CURVE"
);
},
{
closed = 1;
nodes = (
"601 278 LINE",
"614 278 OFFCURVE",
"624 282 OFFCURVE",
"632 290 CURVE",
"639 301 OFFCURVE",
"643 311 OFFCURVE",
"643 321 CURVE SMOOTH",
"643 333 OFFCURVE",
"639 343 OFFCURVE",
"632 351 CURVE SMOOTH",
"623 361 OFFCURVE",
"613 365 OFFCURVE",
"601 365 CURVE",
"586 363 OFFCURVE",
"576 358 OFFCURVE",
"570 350 CURVE",
"562 344 OFFCURVE",
"557 334 OFFCURVE",
"557 321 CURVE SMOOTH",
"557 310 OFFCURVE",
"562 301 OFFCURVE",
"570 291 CURVE SMOOTH",
"576 282 OFFCURVE",
"586 278 OFFCURVE",
"601 278 CURVE"
);
},
{
closed = 1;
nodes = (
"601 107 LINE",
"612 107 OFFCURVE",
"622 111 OFFCURVE",
"632 121 CURVE SMOOTH",
"639 129 OFFCURVE",
"643 139 OFFCURVE",
"643 151 CURVE SMOOTH",
"643 161 OFFCURVE",
"639 171 OFFCURVE",
"632 181 CURVE",
"621 189 OFFCURVE",
"611 193 OFFCURVE",
"601 193 CURVE SMOOTH",
"588 193 OFFCURVE",
"578 189 OFFCURVE",
"570 181 CURVE SMOOTH",
"562 173 OFFCURVE",
"557 162 OFFCURVE",
"557 151 CURVE SMOOTH",
"557 137 OFFCURVE",
"562 127 OFFCURVE",
"570 120 CURVE",
"577 111 OFFCURVE",
"588 107 OFFCURVE",
"601 107 CURVE"
);
}
);
width = 1200;
}
);
note = uniE621;
unicode = E621;
},
{
color = 0;
glyphname = uniE622;
lastChange = "2019-11-04 21:29:28 +0000";
layers = (
{
layerId = "F8C3375C-B372-4BAE-A3FB-5A8DC7FA7AB9";
paths = (
{
closed = 1;
nodes = (
"172 977 LINE",
"379 216 LINE",
"466 216 LINE",
"466 525 LINE",
"513 525 LINE",
"723 216 LINE",
"1028 216 LINE",
"667 761 LINE",
"667 792 LINE",
"1004 1282 LINE",
"687 1282 LINE",
"513 1012 LINE",
"466 1012 LINE",
"466 1276 LINE",
"172 1276 LINE",
"172 977 LINE"
);
}
);
width = 1200;
}
);
note = uniE622;
unicode = E622;
},
{
color = 0;
glyphname = uniE623;
lastChange = "2019-11-04 21:29:28 +0000";
layers = (
{
layerId = "F8C3375C-B372-4BAE-A3FB-5A8DC7FA7AB9";
paths = (
{
closed = 1;
nodes = (
"364 583 LINE",
"308 257 LINE",
"600 409 LINE",
"892 257 LINE",
"836 583 LINE",
"1071 808 LINE",
"745 856 LINE",
"600 1153 LINE",
"454 856 LINE",
"129 808 LINE",
"364 583 LINE"
);
}
);
width = 1200;
}
);
note = uniE623;
unicode = E623;
},
{
color = 0;
glyphname = uniE624;
lastChange = "2019-11-04 21:29:28 +0000";
layers = (
{
layerId = "F8C3375C-B372-4BAE-A3FB-5A8DC7FA7AB9";
paths = (
{
closed = 1;
nodes = (
"597 698 LINE",
"654 698 OFFCURVE",
"702 717 OFFCURVE",
"740 756 CURVE SMOOTH",
"780 795 OFFCURVE",
"800 844 OFFCURVE",
"800 899 CURVE SMOOTH",
"800 957 OFFCURVE",
"780 1005 OFFCURVE",
"740 1042 CURVE SMOOTH",
"702 1082 OFFCURVE",
"655 1102 OFFCURVE",
"597 1102 CURVE SMOOTH",
"541 1102 OFFCURVE",
"493 1082 OFFCURVE",
"452 1042 CURVE SMOOTH",
"414 1003 OFFCURVE",
"395 956 OFFCURVE",
"395 899 CURVE SMOOTH",
"395 844 OFFCURVE",
"414 797 OFFCURVE",
"452 756 CURVE SMOOTH",
"493 717 OFFCURVE",
"541 698 OFFCURVE",
"597 698 CURVE"
);
},
{
closed = 1;
nodes = (
"353 256 LINE",
"464 256 OFFCURVE",
"554 346 OFFCURVE",
"554 456 CURVE SMOOTH",
"554 514 OFFCURVE",
"534 562 OFFCURVE",
"495 601 CURVE SMOOTH",
"455 641 OFFCURVE",
"408 661 OFFCURVE",
"353 661 CURVE SMOOTH",
"297 661 OFFCURVE",
"249 641 OFFCURVE",
"209 601 CURVE SMOOTH",
"169 562 OFFCURVE",
"150 514 OFFCURVE",
"150 456 CURVE SMOOTH",
"150 401 OFFCURVE",
"169 354 OFFCURVE",
"209 315 CURVE SMOOTH",
"248 276 OFFCURVE",
"297 256 OFFCURVE",
"353 256 CURVE"
);
},
{
closed = 1;
nodes = (
"847 256 LINE",
"902 256 OFFCURVE",
"950 276 OFFCURVE",
"989 315 CURVE SMOOTH",
"1029 352 OFFCURVE",
"1050 399 OFFCURVE",
"1050 456 CURVE SMOOTH",
"1050 516 OFFCURVE",
"1029 564 OFFCURVE",
"989 601 CURVE SMOOTH",
"950 641 OFFCURVE",
"902 661 OFFCURVE",
"847 661 CURVE SMOOTH",
"791 661 OFFCURVE",
"742 641 OFFCURVE",
"702 601 CURVE SMOOTH",
"664 563 OFFCURVE",
"645 514 OFFCURVE",
"645 456 CURVE SMOOTH",
"645 401 OFFCURVE",
"664 354 OFFCURVE",
"702 315 CURVE SMOOTH",
"742 276 OFFCURVE",
"790 256 OFFCURVE",
"847 256 CURVE"
);
}
);
width = 1200;
}
);
note = uniE624;
unicode = E624;
},
{
color = 0;
glyphname = uniE625;
lastChange = "2019-11-04 21:29:28 +0000";
layers = (
{
layerId = "F8C3375C-B372-4BAE-A3FB-5A8DC7FA7AB9";
paths = (
{
closed = 1;
nodes = (
"843 214 LINE",
"864 214 OFFCURVE",
"883 218 OFFCURVE",
"900 227 CURVE SMOOTH",
"945 254 OFFCURVE",
"969 320 OFFCURVE",
"969 405 CURVE SMOOTH",
"969 439 OFFCURVE",
"965 477 OFFCURVE",
"957 516 CURVE",
"957 518 OFFCURVE",
"957 521 OFFCURVE",
"956 524 CURVE SMOOTH",
"955 527 OFFCURVE",
"955 530 OFFCURVE",
"955 532 CURVE",
"951 548 LINE",
"962 552 LINE",
"972 555 LINE SMOOTH",
"1113 603 OFFCURVE",
"1200 675 OFFCURVE",
"1200 750 CURVE SMOOTH",
"1200 821 OFFCURVE",
"1117 893 OFFCURVE",
"987 938 CURVE SMOOTH",
"984 939 OFFCURVE",
"978 941 OFFCURVE",
"968 944 CURVE",
"967 945 OFFCURVE",
"963 946 OFFCURVE",
"959 947 CURVE SMOOTH",
"948 950 LINE",
"949 953 OFFCURVE",
"950 958 OFFCURVE",
"951 963 CURVE SMOOTH",
"953 976 LINE SMOOTH",
"963 1020 OFFCURVE",
"968 1061 OFFCURVE",
"968 1097 CURVE SMOOTH",
"968 1182 OFFCURVE",
"944 1246 OFFCURVE",
"899 1271 CURVE SMOOTH",
"883 1280 OFFCURVE",
"865 1284 OFFCURVE",
"845 1284 CURVE SMOOTH",
"785 1284 OFFCURVE",
"707 1247 OFFCURVE",
"631 1179 CURVE SMOOTH",
"628 1176 OFFCURVE",
"623 1172 OFFCURVE",
"616 1165 CURVE SMOOTH",
"601 1152 LINE",
"591 1161 LINE SMOOTH",
"588 1163 OFFCURVE",
"585 1166 OFFCURVE",
"582 1169 CURVE SMOOTH",
"500 1243 OFFCURVE",
"418 1284 OFFCURVE",
"355 1284 CURVE SMOOTH",
"334 1284 OFFCURVE",
"316 1279 OFFCURVE",
"299 1270 CURVE SMOOTH",
"255 1244 OFFCURVE",
"233 1182 OFFCURVE",
"233 1101 CURVE SMOOTH",
"233 1067 OFFCURVE",
"236 1029 OFFCURVE",
"244 990 CURVE SMOOTH",
"248 971 LINE",
"253 950 LINE",
"237 946 OFFCURVE",
"222 941 OFFCURVE",
"208 937 CURVE SMOOTH",
"80 892 OFFCURVE",
"1 821 OFFCURVE",
"1 750 CURVE SMOOTH",
"1 676 OFFCURVE",
"86 603 OFFCURVE",
"220 555 CURVE SMOOTH",
"229 552 LINE SMOOTH",
"232 551 OFFCURVE",
"234 550 OFFCURVE",
"236 550 CURVE",
"252 546 LINE",
"248 524 LINE",
"243 503 LINE SMOOTH",
"236 465 OFFCURVE",
"233 431 OFFCURVE",
"233 399 CURVE SMOOTH",
"233 316 OFFCURVE",
"256 254 OFFCURVE",
"299 229 CURVE SMOOTH",
"316 220 OFFCURVE",
"336 215 OFFCURVE",
"357 215 CURVE SMOOTH",
"419 215 OFFCURVE",
"498 253 OFFCURVE",
"578 322 CURVE SMOOTH",
"584 327 OFFCURVE",
"592 334 OFFCURVE",
"603 345 CURVE",
"610 338 OFFCURVE",
"621 328 OFFCURVE",
"635 316 CURVE SMOOTH",
"711 250 OFFCURVE",
"784 214 OFFCURVE",
"843 214 CURVE"
);
},
{
closed = 1;
nodes = (
"899 962 LINE",
"848 974 OFFCURVE",
"795 982 OFFCURVE",
"738 988 CURVE",
"712 1027 OFFCURVE",
"678 1069 OFFCURVE",
"636 1114 CURVE",
"649 1127 OFFCURVE",
"659 1135 OFFCURVE",
"665 1140 CURVE SMOOTH",
"733 1199 OFFCURVE",
"798 1232 OFFCURVE",
"842 1234 CURVE SMOOTH",
"845 1234 LINE SMOOTH",
"856 1234 OFFCURVE",
"865 1231 OFFCURVE",
"873 1227 CURVE SMOOTH",
"901 1211 OFFCURVE",
"916 1165 OFFCURVE",
"916 1099 CURVE SMOOTH",
"916 1066 OFFCURVE",
"912 1027 OFFCURVE",
"904 986 CURVE SMOOTH",
"902 976 LINE",
"900 971 OFFCURVE",
"899 965 OFFCURVE",
"899 962 CURVE"
);
},
{
closed = 1;
nodes = (
"303 963 LINE",
"300 975 OFFCURVE",
"297 987 OFFCURVE",
"295 1001 CURVE SMOOTH",
"288 1038 OFFCURVE",
"285 1073 OFFCURVE",
"285 1103 CURVE SMOOTH",
"285 1165 OFFCURVE",
"299 1210 OFFCURVE",
"325 1224 CURVE SMOOTH",
"334 1230 OFFCURVE",
"345 1233 OFFCURVE",
"355 1233 CURVE SMOOTH",
"401 1233 OFFCURVE",
"474 1195 OFFCURVE",
"547 1132 CURVE SMOOTH",
"550 1129 OFFCURVE",
"553 1126 OFFCURVE",
"556 1124 CURVE",
"565 1114 LINE",
"529 1078 OFFCURVE",
"495 1035 OFFCURVE",
"463 988 CURVE",
"417 984 OFFCURVE",
"365 976 OFFCURVE",
"303 963 CURVE"
);
},
{
closed = 1;
nodes = (
"529 993 LINE",
"538 1004 OFFCURVE",
"561 1033 OFFCURVE",
"601 1078 CURVE",
"621 1056 OFFCURVE",
"645 1027 OFFCURVE",
"671 993 CURVE",
"656 993 OFFCURVE",
"633 994 OFFCURVE",
"602 994 CURVE SMOOTH",
"570 994 OFFCURVE",
"546 993 OFFCURVE",
"529 993 CURVE"
);
},
{
closed = 1;
nodes = (
"710 559 LINE",
"601 555 LINE SMOOTH",
"550 555 OFFCURVE",
"514 556 OFFCURVE",
"492 559 CURVE",
"472 588 OFFCURVE",
"452 618 OFFCURVE",
"433 652 CURVE SMOOTH",
"414 688 OFFCURVE",
"397 720 OFFCURVE",
"382 749 CURVE",
"406 797 OFFCURVE",
"423 829 OFFCURVE",
"433 846 CURVE SMOOTH",
"447 871 OFFCURVE",
"467 902 OFFCURVE",
"491 939 CURVE",
"563 942 OFFCURVE",
"599 943 OFFCURVE",
"601 943 CURVE SMOOTH",
"710 939 LINE",
"734 903 OFFCURVE",
"753 873 OFFCURVE",
"768 847 CURVE SMOOTH",
"782 822 OFFCURVE",
"814 760 OFFCURVE",
"819 749 CURVE",
"801 712 OFFCURVE",
"784 680 OFFCURVE",
"768 653 CURVE SMOOTH",
"753 625 OFFCURVE",
"733 593 OFFCURVE",
"710 559 CURVE"
);
},
{
closed = 1;
nodes = (
"355 809 LINE",
"342 840 OFFCURVE",
"329 875 OFFCURVE",
"316 914 CURVE",
"361 922 OFFCURVE",
"397 929 OFFCURVE",
"425 933 CURVE",
"408 905 LINE SMOOTH",
"399 892 OFFCURVE",
"393 880 OFFCURVE",
"389 873 CURVE SMOOTH",
"373 844 OFFCURVE",
"362 823 OFFCURVE",
"355 809 CURVE"
);
},
{
closed = 1;
nodes = (
"846 809 LINE",
"840 823 OFFCURVE",
"819 858 OFFCURVE",
"812 873 CURVE",
"808 878 OFFCURVE",
"802 888 OFFCURVE",
"795 903 CURVE SMOOTH",
"793 907 OFFCURVE",
"789 911 OFFCURVE",
"785 918 CURVE SMOOTH",
"781 925 OFFCURVE",
"778 929 OFFCURVE",
"776 933 CURVE",
"823 926 OFFCURVE",
"859 920 OFFCURVE",
"884 912 CURVE",
"877 886 OFFCURVE",
"864 852 OFFCURVE",
"846 809 CURVE"
);
},
{
closed = 1;
nodes = (
"266 595 LINE",
"252 599 LINE SMOOTH",
"250 600 OFFCURVE",
"248 601 OFFCURVE",
"244 602 CURVE SMOOTH",
"241 603 OFFCURVE",
"238 604 OFFCURVE",
"236 605 CURVE SMOOTH",
"176 626 OFFCURVE",
"129 650 OFFCURVE",
"97 678 CURVE SMOOTH",
"67 705 OFFCURVE",
"51 729 OFFCURVE",
"51 750 CURVE SMOOTH",
"51 795 OFFCURVE",
"119 851 OFFCURVE",
"225 888 CURVE",
"230 889 OFFCURVE",
"237 892 OFFCURVE",
"247 895 CURVE SMOOTH",
"249 896 OFFCURVE",
"253 897 OFFCURVE",
"257 898 CURVE SMOOTH",
"267 901 LINE",
"285 844 OFFCURVE",
"304 793 OFFCURVE",
"326 749 CURVE",
"307 709 OFFCURVE",
"287 658 OFFCURVE",
"266 595 CURVE"
);
},
{
closed = 1;
nodes = (
"936 598 LINE",
"921 645 OFFCURVE",
"901 696 OFFCURVE",
"876 750 CURVE",
"901 809 OFFCURVE",
"921 858 OFFCURVE",
"935 901 CURVE",
"936 900 OFFCURVE",
"939 899 OFFCURVE",
"943 898 CURVE SMOOTH",
"946 897 OFFCURVE",
"950 896 OFFCURVE",
"952 895 CURVE",
"955 895 OFFCURVE",
"961 892 OFFCURVE",
"970 888 CURVE",
"1078 852 OFFCURVE",
"1149 795 OFFCURVE",
"1149 750 CURVE SMOOTH",
"1149 703 OFFCURVE",
"1074 644 OFFCURVE",
"956 603 CURVE",
"954 603 OFFCURVE",
"942 599 OFFCURVE",
"936 598 CURVE"
);
},
{
closed = 1;
nodes = (
"601 643 LINE",
"653 643 OFFCURVE",
"707 679 OFFCURVE",
"707 750 CURVE SMOOTH",
"707 821 OFFCURVE",
"653 856 OFFCURVE",
"601 856 CURVE SMOOTH",
"547 856 OFFCURVE",
"493 821 OFFCURVE",
"493 750 CURVE SMOOTH",
"493 679 OFFCURVE",
"547 643 OFFCURVE",
"601 643 CURVE"
);
},
{
closed = 1;
nodes = (
"776 566 LINE",
"793 593 LINE SMOOTH",
"801 607 OFFCURVE",
"808 618 OFFCURVE",
"812 626 CURVE SMOOTH",
"846 690 LINE",
"862 656 OFFCURVE",
"876 620 OFFCURVE",
"887 584 CURVE",
"860 577 OFFCURVE",
"823 571 OFFCURVE",
"776 566 CURVE"
);
},
{
closed = 1;
nodes = (
"408 593 LINE",
"426 565 LINE",
"394 568 OFFCURVE",
"357 573 OFFCURVE",
"316 582 CURVE",
"323 610 OFFCURVE",
"336 646 OFFCURVE",
"355 689 CURVE",
"360 679 OFFCURVE",
"371 658 OFFCURVE",
"389 626 CURVE SMOOTH",
"393 618 OFFCURVE",
"400 607 OFFCURVE",
"408 593 CURVE"
);
},
{
closed = 1;
nodes = (
"843 265 LINE",
"799 265 OFFCURVE",
"735 297 OFFCURVE",
"668 354 CURVE SMOOTH",
"665 357 OFFCURVE",
"660 361 OFFCURVE",
"653 368 CURVE SMOOTH",
"638 381 LINE",
"678 425 OFFCURVE",
"711 468 OFFCURVE",
"738 510 CURVE",
"797 515 OFFCURVE",
"851 524 OFFCURVE",
"901 535 CURVE",
"906 520 LINE",
"906 519 OFFCURVE",
"906 517 OFFCURVE",
"907 514 CURVE SMOOTH",
"908 510 OFFCURVE",
"908 508 OFFCURVE",
"908 506 CURVE",
"915 470 OFFCURVE",
"917 437 OFFCURVE",
"917 406 CURVE SMOOTH",
"917 386 OFFCURVE",
"916 366 OFFCURVE",
"914 348 CURVE",
"906 308 OFFCURVE",
"893 282 OFFCURVE",
"874 273 CURVE",
"866 267 OFFCURVE",
"855 265 OFFCURVE",
"843 265 CURVE"
);
},
{
closed = 1;
nodes = (
"358 264 LINE",
"346 264 OFFCURVE",
"335 267 OFFCURVE",
"326 273 CURVE SMOOTH",
"299 288 OFFCURVE",
"284 332 OFFCURVE",
"284 395 CURVE SMOOTH",
"284 424 OFFCURVE",
"287 457 OFFCURVE",
"294 492 CURVE",
"295 507 OFFCURVE",
"298 520 OFFCURVE",
"302 532 CURVE",
"355 521 OFFCURVE",
"408 513 OFFCURVE",
"464 510 CURVE",
"500 458 OFFCURVE",
"534 414 OFFCURVE",
"567 381 CURVE",
"558 373 OFFCURVE",
"551 366 OFFCURVE",
"544 361 CURVE",
"499 321 OFFCURVE",
"453 293 OFFCURVE",
"409 276 CURVE SMOOTH",
"390 269 OFFCURVE",
"373 264 OFFCURVE",
"358 264 CURVE"
);
},
{
closed = 1;
nodes = (
"602 418 LINE",
"567 460 OFFCURVE",
"543 489 OFFCURVE",
"531 506 CURVE",
"541 505 OFFCURVE",
"553 504 OFFCURVE",
"565 504 CURVE SMOOTH",
"638 504 LINE SMOOTH",
"649 504 OFFCURVE",
"661 505 OFFCURVE",
"672 506 CURVE",
"647 470 OFFCURVE",
"623 441 OFFCURVE",
"602 418 CURVE"
);
}
);
width = 1200;
}
);
note = uniE625;
unicode = E625;
},
{
color = 0;
glyphname = uniE626;
lastChange = "2019-11-04 21:29:28 +0000";
layers = (
{
layerId = "F8C3375C-B372-4BAE-A3FB-5A8DC7FA7AB9";
paths = (
{
closed = 1;
nodes = (
"292 129 LINE",
"328 129 OFFCURVE",
"343 166 OFFCURVE",
"359 168 CURVE",
"366 173 OFFCURVE",
"371 175 OFFCURVE",
"379 178 CURVE",
"448 158 OFFCURVE",
"507 143 OFFCURVE",
"580 143 CURVE SMOOTH",
"666 143 OFFCURVE",
"752 159 OFFCURVE",
"830 194 CURVE",
"834 192 LINE",
"838 187 OFFCURVE",
"879 152 OFFCURVE",
"884 147 CURVE SMOOTH",
"887 144 OFFCURVE",
"889 140 OFFCURVE",
"894 138 CURVE",
"895 136 OFFCURVE",
"898 134 OFFCURVE",
"900 134 CURVE SMOOTH",
"903 134 OFFCURVE",
"907 136 OFFCURVE",
"909 137 CURVE",
"928 137 OFFCURVE",
"948 153 OFFCURVE",
"948 173 CURVE SMOOTH",
"948 204 OFFCURVE",
"920 226 OFFCURVE",
"898 243 CURVE",
"915 266 LINE SMOOTH",
"969 338 OFFCURVE",
"986 435 OFFCURVE",
"986 524 CURVE SMOOTH",
"986 583 OFFCURVE",
"982 642 OFFCURVE",
"982 701 CURVE",
"987 697 LINE",
"1000 693 OFFCURVE",
"1007 682 OFFCURVE",
"1022 682 CURVE SMOOTH",
"1033 682 OFFCURVE",
"1050 698 OFFCURVE",
"1052 708 CURVE",
"1056 711 OFFCURVE",
"1056 716 OFFCURVE",
"1056 720 CURVE SMOOTH",
"1056 764 OFFCURVE",
"1008 756 OFFCURVE",
"982 772 CURVE",
"978 772 LINE",
"978 867 OFFCURVE",
"973 961 OFFCURVE",
"968 1056 CURVE SMOOTH",
"967 1075 OFFCURVE",
"951 1143 OFFCURVE",
"952 1148 CURVE",
"955 1151 LINE",
"964 1151 OFFCURVE",
"1000 1180 OFFCURVE",
"1005 1189 CURVE SMOOTH",
"1010 1198 OFFCURVE",
"1014 1221 OFFCURVE",
"1014 1232 CURVE SMOOTH",
"1014 1287 OFFCURVE",
"970 1320 OFFCURVE",
"918 1320 CURVE SMOOTH",
"896 1320 OFFCURVE",
"881 1312 OFFCURVE",
"860 1304 CURVE",
"767 1367 OFFCURVE",
"693 1369 OFFCURVE",
"585 1369 CURVE SMOOTH",
"528 1369 OFFCURVE",
"460 1354 OFFCURVE",
"405 1338 CURVE SMOOTH",
"363 1326 OFFCURVE",
"325 1296 OFFCURVE",
"307 1290 CURVE",
"303 1290 LINE SMOOTH",
"301 1290 OFFCURVE",
"297 1291 OFFCURVE",
"295 1292 CURVE SMOOTH",
"286 1298 OFFCURVE",
"266 1300 OFFCURVE",
"256 1300 CURVE SMOOTH",
"202 1300 OFFCURVE",
"157 1275 OFFCURVE",
"157 1216 CURVE SMOOTH",
"157 1172 OFFCURVE",
"180 1144 OFFCURVE",
"220 1129 CURVE",
"220 1128 OFFCURVE",
"221 1126 OFFCURVE",
"221 1125 CURVE SMOOTH",
"221 1086 OFFCURVE",
"210 1049 OFFCURVE",
"210 1010 CURVE SMOOTH",
"210 971 OFFCURVE",
"212 932 OFFCURVE",
"212 893 CURVE SMOOTH",
"212 865 OFFCURVE",
"226 791 OFFCURVE",
"230 760 CURVE",
"208 758 OFFCURVE",
"144 737 OFFCURVE",
"144 710 CURVE SMOOTH",
"144 697 OFFCURVE",
"165 667 OFFCURVE",
"179 667 CURVE SMOOTH",
"192 667 OFFCURVE",
"211 684 OFFCURVE",
"222 691 CURVE",
"222 375 LINE SMOOTH",
"222 320 OFFCURVE",
"268 269 OFFCURVE",
"303 232 CURVE",
"281 214 OFFCURVE",
"249 199 OFFCURVE",
"249 165 CURVE SMOOTH",
"249 147 OFFCURVE",
"276 129 OFFCURVE",
"292 129 CURVE"
);
},
{
closed = 1;
nodes = (
"562 158 LINE",
"521 158 OFFCURVE",
"423 168 OFFCURVE",
"393 193 CURVE",
"385 194 OFFCURVE",
"361 222 OFFCURVE",
"347 228 CURVE",
"336 239 OFFCURVE",
"324 230 OFFCURVE",
"307 244 CURVE SMOOTH",
"287 261 OFFCURVE",
"271 287 OFFCURVE",
"259 310 CURVE SMOOTH",
"226 372 OFFCURVE",
"232 444 OFFCURVE",
"232 512 CURVE SMOOTH",
"232 602 OFFCURVE",
"240 692 OFFCURVE",
"240 782 CURVE SMOOTH",
"240 803 OFFCURVE",
"234 828 OFFCURVE",
"231 849 CURVE SMOOTH",
"225 891 OFFCURVE",
"222 935 OFFCURVE",
"222 978 CURVE SMOOTH",
"222 1264 OFFCURVE",
"347 1355 OFFCURVE",
"618 1355 CURVE SMOOTH",
"956 1355 OFFCURVE",
"959 1130 OFFCURVE",
"964 862 CURVE SMOOTH",
"966 740 OFFCURVE",
"973 619 OFFCURVE",
"973 497 CURVE SMOOTH",
"973 420 OFFCURVE",
"938 287 OFFCURVE",
"873 241 CURVE",
"865 240 OFFCURVE",
"854 233 OFFCURVE",
"848 228 CURVE SMOOTH",
"819 202 OFFCURVE",
"789 187 OFFCURVE",
"751 177 CURVE SMOOTH",
"690 162 OFFCURVE",
"624 158 OFFCURVE",
"562 158 CURVE"
);
},
{
closed = 1;
nodes = (
"738 1078 LINE",
"750 1078 OFFCURVE",
"774 1085 OFFCURVE",
"785 1090 CURVE SMOOTH",
"836 1113 OFFCURVE",
"848 1150 OFFCURVE",
"848 1203 CURVE SMOOTH",
"848 1264 OFFCURVE",
"778 1308 OFFCURVE",
"722 1308 CURVE SMOOTH",
"660 1308 OFFCURVE",
"612 1247 OFFCURVE",
"612 1189 CURVE SMOOTH",
"612 1149 OFFCURVE",
"649 1099 OFFCURVE",
"686 1084 CURVE SMOOTH",
"699 1079 OFFCURVE",
"724 1078 OFFCURVE",
"738 1078 CURVE"
);
},
{
closed = 1;
nodes = (
"950 1161 LINE",
"947 1175 OFFCURVE",
"937 1193 OFFCURVE",
"932 1207 CURVE",
"937 1214 OFFCURVE",
"945 1221 OFFCURVE",
"948 1229 CURVE",
"948 1237 LINE SMOOTH",
"948 1263 OFFCURVE",
"925 1257 OFFCURVE",
"909 1257 CURVE SMOOTH",
"906 1257 OFFCURVE",
"904 1258 OFFCURVE",
"902 1258 CURVE",
"899 1263 OFFCURVE",
"882 1284 OFFCURVE",
"877 1288 CURVE",
"877 1290 OFFCURVE",
"876 1291 OFFCURVE",
"876 1293 CURVE SMOOTH",
"876 1294 OFFCURVE",
"877 1295 OFFCURVE",
"877 1296 CURVE",
"881 1297 OFFCURVE",
"902 1307 OFFCURVE",
"904 1307 CURVE SMOOTH",
"923 1307 LINE SMOOTH",
"926 1307 OFFCURVE",
"929 1305 OFFCURVE",
"931 1304 CURVE",
"973 1304 OFFCURVE",
"1000 1273 OFFCURVE",
"1000 1232 CURVE SMOOTH",
"1000 1201 OFFCURVE",
"981 1173 OFFCURVE",
"952 1163 CURVE",
"950 1161 LINE"
);
},
{
closed = 1;
nodes = (
"728 1086 LINE",
"677 1086 OFFCURVE",
"618 1130 OFFCURVE",
"618 1185 CURVE SMOOTH",
"618 1259 OFFCURVE",
"667 1299 OFFCURVE",
"739 1299 CURVE SMOOTH",
"794 1299 OFFCURVE",
"842 1240 OFFCURVE",
"842 1188 CURVE SMOOTH",
"842 1123 OFFCURVE",
"789 1086 OFFCURVE",
"728 1086 CURVE"
);
},
{
closed = 1;
nodes = (
"439 1065 LINE",
"489 1065 OFFCURVE",
"524 1092 OFFCURVE",
"549 1133 CURVE SMOOTH",
"561 1153 OFFCURVE",
"559 1175 OFFCURVE",
"559 1198 CURVE SMOOTH",
"559 1209 OFFCURVE",
"552 1220 OFFCURVE",
"547 1229 CURVE SMOOTH",
"520 1278 OFFCURVE",
"484 1292 OFFCURVE",
"430 1292 CURVE SMOOTH",
"368 1292 OFFCURVE",
"324 1240 OFFCURVE",
"324 1180 CURVE SMOOTH",
"324 1115 OFFCURVE",
"373 1065 OFFCURVE",
"439 1065 CURVE"
);
},
{
closed = 1;
nodes = (
"222 1144 LINE",
"191 1160 OFFCURVE",
"168 1171 OFFCURVE",
"168 1212 CURVE SMOOTH",
"168 1255 OFFCURVE",
"205 1288 OFFCURVE",
"247 1288 CURVE SMOOTH",
"261 1288 OFFCURVE",
"276 1288 OFFCURVE",
"288 1280 CURVE",
"294 1279 LINE",
"295 1278 LINE",
"295 1275 LINE",
"293 1272 OFFCURVE",
"290 1267 OFFCURVE",
"287 1265 CURVE",
"281 1256 OFFCURVE",
"273 1246 OFFCURVE",
"266 1237 CURVE",
"244 1237 LINE SMOOTH",
"241 1237 OFFCURVE",
"238 1236 OFFCURVE",
"236 1235 CURVE",
"231 1227 OFFCURVE",
"226 1219 OFFCURVE",
"224 1210 CURVE",
"228 1201 OFFCURVE",
"235 1194 OFFCURVE",
"241 1186 CURVE",
"239 1177 OFFCURVE",
"236 1169 OFFCURVE",
"234 1160 CURVE",
"231 1158 OFFCURVE",
"228 1150 OFFCURVE",
"226 1146 CURVE",
"222 1144 LINE"
);
},
{
closed = 1;
nodes = (
"438 1073 LINE",
"378 1073 OFFCURVE",
"330 1120 OFFCURVE",
"330 1180 CURVE SMOOTH",
"330 1247 OFFCURVE",
"382 1286 OFFCURVE",
"445 1286 CURVE SMOOTH",
"454 1286 OFFCURVE",
"464 1281 OFFCURVE",
"473 1280 CURVE SMOOTH",
"527 1272 OFFCURVE",
"552 1227 OFFCURVE",
"552 1176 CURVE SMOOTH",
"552 1114 OFFCURVE",
"496 1073 OFFCURVE",
"438 1073 CURVE"
);
},
{
closed = 1;
nodes = (
"669 1147 LINE",
"673 1147 OFFCURVE",
"678 1148 OFFCURVE",
"682 1148 CURVE",
"700 1157 OFFCURVE",
"707 1164 OFFCURVE",
"707 1185 CURVE SMOOTH",
"707 1207 OFFCURVE",
"689 1223 OFFCURVE",
"667 1223 CURVE SMOOTH",
"658 1223 OFFCURVE",
"650 1218 OFFCURVE",
"645 1211 CURVE",
"635 1206 OFFCURVE",
"630 1197 OFFCURVE",
"630 1186 CURVE SMOOTH",
"630 1164 OFFCURVE",
"647 1147 OFFCURVE",
"669 1147 CURVE"
);
},
{
closed = 1;
nodes = (
"378 1139 LINE",
"403 1139 OFFCURVE",
"417 1153 OFFCURVE",
"417 1178 CURVE SMOOTH",
"417 1198 OFFCURVE",
"398 1212 OFFCURVE",
"379 1212 CURVE SMOOTH",
"369 1212 LINE",
"351 1205 OFFCURVE",
"340 1193 OFFCURVE",
"340 1173 CURVE SMOOTH",
"340 1163 OFFCURVE",
"347 1148 OFFCURVE",
"355 1143 CURVE",
"363 1142 OFFCURVE",
"370 1139 OFFCURVE",
"378 1139 CURVE"
);
},
{
closed = 1;
nodes = (
"566 918 LINE",
"576 918 OFFCURVE",
"587 931 OFFCURVE",
"594 937 CURVE",
"601 925 OFFCURVE",
"604 920 OFFCURVE",
"619 920 CURVE SMOOTH",
"626 920 OFFCURVE",
"634 921 OFFCURVE",
"639 927 CURVE",
"652 931 OFFCURVE",
"645 985 OFFCURVE",
"645 995 CURVE",
"667 995 OFFCURVE",
"687 996 OFFCURVE",
"687 1023 CURVE SMOOTH",
"687 1046 OFFCURVE",
"665 1076 OFFCURVE",
"641 1076 CURVE",
"636 1109 OFFCURVE",
"616 1114 OFFCURVE",
"585 1114 CURVE SMOOTH",
"564 1114 OFFCURVE",
"546 1102 OFFCURVE",
"537 1084 CURVE",
"537 1081 OFFCURVE",
"536 1078 OFFCURVE",
"535 1075 CURVE",
"532 1073 OFFCURVE",
"529 1071 OFFCURVE",
"525 1071 CURVE",
"509 1062 OFFCURVE",
"496 1042 OFFCURVE",
"496 1024 CURVE SMOOTH",
"496 1013 OFFCURVE",
"504 1005 OFFCURVE",
"512 999 CURVE",
"524 997 OFFCURVE",
"532 995 OFFCURVE",
"544 995 CURVE",
"541 982 OFFCURVE",
"539 972 OFFCURVE",
"539 959 CURVE SMOOTH",
"539 949 OFFCURVE",
"542 920 OFFCURVE",
"556 920 CURVE",
"559 919 OFFCURVE",
"563 918 OFFCURVE",
"566 918 CURVE"
);
},
{
closed = 1;
nodes = (
"646 1001 LINE",
"627 1001 OFFCURVE",
"609 1016 OFFCURVE",
"590 1016 CURVE SMOOTH",
"571 1016 OFFCURVE",
"551 1003 OFFCURVE",
"530 1003 CURVE SMOOTH",
"517 1003 OFFCURVE",
"504 1012 OFFCURVE",
"504 1026 CURVE SMOOTH",
"504 1042 OFFCURVE",
"513 1051 OFFCURVE",
"524 1062 CURVE",
"526 1063 OFFCURVE",
"535 1067 OFFCURVE",
"537 1067 CURVE SMOOTH",
"542 1067 OFFCURVE",
"547 1066 OFFCURVE",
"551 1063 CURVE",
"556 1062 OFFCURVE",
"563 1061 OFFCURVE",
"567 1057 CURVE",
"583 1054 LINE",
"602 1060 OFFCURVE",
"617 1056 OFFCURVE",
"632 1073 CURVE",
"635 1073 LINE",
"639 1069 LINE",
"660 1062 OFFCURVE",
"681 1046 OFFCURVE",
"681 1022 CURVE SMOOTH",
"681 1018 OFFCURVE",
"680 1013 OFFCURVE",
"678 1009 CURVE",
"670 1004 OFFCURVE",
"656 1001 OFFCURVE",
"646 1001 CURVE"
);
},
{
closed = 1;
nodes = (
"562 926 LINE",
"546 926 OFFCURVE",
"546 945 OFFCURVE",
"546 957 CURVE SMOOTH",
"546 970 OFFCURVE",
"548 984 OFFCURVE",
"549 997 CURVE",
"568 1005 LINE",
"574 1005 OFFCURVE",
"579 1007 OFFCURVE",
"585 1009 CURVE",
"588 1009 LINE",
"590 1007 LINE",
"590 975 LINE SMOOTH",
"590 968 OFFCURVE",
"587 943 OFFCURVE",
"583 937 CURVE",
"583 926 OFFCURVE",
"570 926 OFFCURVE",
"562 926 CURVE"
);
},
{
closed = 1;
nodes = (
"619 927 LINE",
"612 927 LINE SMOOTH",
"605 927 OFFCURVE",
"602 935 OFFCURVE",
"602 941 CURVE",
"600 947 OFFCURVE",
"599 949 OFFCURVE",
"599 955 CURVE",
"597 958 OFFCURVE",
"596 962 OFFCURVE",
"596 965 CURVE SMOOTH",
"596 978 OFFCURVE",
"600 993 OFFCURVE",
"603 1006 CURVE",
"605 1006 LINE SMOOTH",
"635 1006 OFFCURVE",
"639 984 OFFCURVE",
"639 960 CURVE SMOOTH",
"639 948 LINE SMOOTH",
"639 944 OFFCURVE",
"636 934 OFFCURVE",
"634 931 CURVE",
"630 928 OFFCURVE",
"624 927 OFFCURVE",
"619 927 CURVE"
);
},
{
closed = 1;
nodes = (
"1026 689 LINE",
"1009 689 OFFCURVE",
"991 704 OFFCURVE",
"978 712 CURVE",
"978 737 LINE SMOOTH",
"978 744 OFFCURVE",
"978 755 OFFCURVE",
"983 760 CURVE",
"987 761 LINE",
"994 760 OFFCURVE",
"1002 758 OFFCURVE",
"1009 758 CURVE",
"1023 751 OFFCURVE",
"1052 739 OFFCURVE",
"1052 720 CURVE SMOOTH",
"1052 716 OFFCURVE",
"1050 711 OFFCURVE",
"1050 707 CURVE",
"1039 712 OFFCURVE",
"1031 715 OFFCURVE",
"1020 718 CURVE",
"1023 713 LINE",
"1028 714 OFFCURVE",
"1035 709 OFFCURVE",
"1038 705 CURVE",
"1039 700 LINE SMOOTH",
"1039 698 OFFCURVE",
"1038 696 OFFCURVE",
"1036 695 CURVE",
"1034 691 OFFCURVE",
"1030 689 OFFCURVE",
"1026 689 CURVE"
);
},
{
closed = 1;
nodes = (
"183 674 LINE",
"171 674 OFFCURVE",
"164 678 OFFCURVE",
"160 690 CURVE",
"164 694 OFFCURVE",
"177 702 OFFCURVE",
"179 707 CURVE",
"178 708 OFFCURVE",
"177 708 OFFCURVE",
"176 708 CURVE SMOOTH",
"174 708 OFFCURVE",
"166 704 OFFCURVE",
"164 703 CURVE",
"162 701 OFFCURVE",
"159 698 OFFCURVE",
"156 697 CURVE",
"156 700 LINE",
"153 701 LINE",
"152 704 OFFCURVE",
"151 708 OFFCURVE",
"151 712 CURVE SMOOTH",
"151 735 OFFCURVE",
"202 751 OFFCURVE",
"220 751 CURVE SMOOTH",
"227 751 OFFCURVE",
"228 743 OFFCURVE",
"228 738 CURVE SMOOTH",
"228 729 OFFCURVE",
"228 714 OFFCURVE",
"222 707 CURVE",
"222 699 OFFCURVE",
"191 674 OFFCURVE",
"183 674 CURVE"
);
},
{
closed = 1;
nodes = (
"907 142 LINE",
"903 143 OFFCURVE",
"898 144 OFFCURVE",
"894 146 CURVE",
"880 161 OFFCURVE",
"869 171 OFFCURVE",
"854 185 CURVE SMOOTH",
"852 187 OFFCURVE",
"850 191 OFFCURVE",
"848 193 CURVE",
"843 195 OFFCURVE",
"839 196 OFFCURVE",
"837 201 CURVE",
"837 205 LINE",
"844 222 OFFCURVE",
"868 233 OFFCURVE",
"885 233 CURVE SMOOTH",
"912 233 OFFCURVE",
"941 198 OFFCURVE",
"941 172 CURVE SMOOTH",
"941 167 OFFCURVE",
"939 156 OFFCURVE",
"932 156 CURVE",
"931 157 OFFCURVE",
"908 188 OFFCURVE",
"908 192 CURVE",
"907 193 LINE",
"905 192 LINE",
"905 186 OFFCURVE",
"920 156 OFFCURVE",
"923 148 CURVE",
"922 144 LINE",
"917 143 OFFCURVE",
"912 143 OFFCURVE",
"907 142 CURVE"
);
},
{
closed = 1;
nodes = (
"292 135 LINE",
"286 136 OFFCURVE",
"278 138 OFFCURVE",
"275 143 CURVE",
"275 161 OFFCURVE",
"290 169 OFFCURVE",
"292 182 CURVE",
"296 185 LINE",
"296 186 LINE",
"292 186 LINE",
"284 182 OFFCURVE",
"274 167 OFFCURVE",
"269 160 CURVE",
"268 157 OFFCURVE",
"268 150 OFFCURVE",
"264 150 CURVE SMOOTH",
"259 150 OFFCURVE",
"257 164 OFFCURVE",
"257 168 CURVE SMOOTH",
"257 193 OFFCURVE",
"299 229 OFFCURVE",
"323 229 CURVE SMOOTH",
"330 229 OFFCURVE",
"337 228 OFFCURVE",
"343 223 CURVE",
"349 222 LINE",
"353 218 OFFCURVE",
"359 212 OFFCURVE",
"364 210 CURVE",
"369 201 OFFCURVE",
"375 193 OFFCURVE",
"381 185 CURVE",
"347 175 OFFCURVE",
"326 141 OFFCURVE",
"292 135 CURVE"
);
}
);
width = 1200;
}
);
note = uniE626;
unicode = E626;
},
{
color = 0;
glyphname = uniE627;
lastChange = "2019-11-04 21:29:28 +0000";
layers = (
{
layerId = "F8C3375C-B372-4BAE-A3FB-5A8DC7FA7AB9";
paths = (
{
closed = 1;
nodes = (
"319 127 LINE",
"325 127 OFFCURVE",
"333 128 OFFCURVE",
"342 130 CURVE SMOOTH",
"361 135 OFFCURVE",
"374 143 OFFCURVE",
"381 152 CURVE",
"382 152 OFFCURVE",
"383 153 OFFCURVE",
"383 154 CURVE",
"386 154 LINE",
"463 137 OFFCURVE",
"537 129 OFFCURVE",
"610 129 CURVE SMOOTH",
"682 129 OFFCURVE",
"748 137 OFFCURVE",
"810 154 CURVE",
"811 154 OFFCURVE",
"812 154 OFFCURVE",
"813 155 CURVE",
"814 155 LINE",
"814 154 LINE",
"815 154 LINE",
"819 146 OFFCURVE",
"826 140 OFFCURVE",
"836 135 CURVE SMOOTH",
"845 132 OFFCURVE",
"858 130 OFFCURVE",
"874 130 CURVE SMOOTH",
"889 130 OFFCURVE",
"900 131 OFFCURVE",
"908 134 CURVE SMOOTH",
"919 137 OFFCURVE",
"923 146 OFFCURVE",
"921 159 CURVE SMOOTH",
"919 167 OFFCURVE",
"917 171 OFFCURVE",
"916 172 CURVE SMOOTH",
"897 194 LINE",
"893 194 LINE",
"939 233 OFFCURVE",
"972 282 OFFCURVE",
"994 344 CURVE SMOOTH",
"1008 388 OFFCURVE",
"1019 447 OFFCURVE",
"1026 522 CURVE",
"1044 541 OFFCURVE",
"1053 558 OFFCURVE",
"1053 575 CURVE SMOOTH",
"1053 591 OFFCURVE",
"1044 610 OFFCURVE",
"1026 632 CURVE",
"1023 631 OFFCURVE",
"1020 629 OFFCURVE",
"1017 626 CURVE",
"1017 644 OFFCURVE",
"1014 678 OFFCURVE",
"1010 725 CURVE SMOOTH",
"1005 765 OFFCURVE",
"1003 803 OFFCURVE",
"1003 837 CURVE SMOOTH",
"1004 850 OFFCURVE",
"1006 867 OFFCURVE",
"1008 888 CURVE SMOOTH",
"1012 927 LINE SMOOTH",
"1013 933 OFFCURVE",
"1013 938 OFFCURVE",
"1013 941 CURVE SMOOTH",
"1014 946 OFFCURVE",
"1013 946 OFFCURVE",
"1012 942 CURVE",
"1013 955 OFFCURVE",
"1014 974 OFFCURVE",
"1014 998 CURVE SMOOTH",
"1014 1016 OFFCURVE",
"1012 1033 OFFCURVE",
"1010 1049 CURVE SMOOTH",
"1009 1054 OFFCURVE",
"1008 1058 OFFCURVE",
"1008 1062 CURVE SMOOTH",
"1008 1089 OFFCURVE",
"1022 1114 OFFCURVE",
"1049 1137 CURVE",
"1070 1144 OFFCURVE",
"1083 1154 OFFCURVE",
"1090 1169 CURVE",
"1091 1174 OFFCURVE",
"1092 1178 OFFCURVE",
"1092 1184 CURVE SMOOTH",
"1092 1195 OFFCURVE",
"1089 1207 OFFCURVE",
"1081 1220 CURVE",
"1070 1233 OFFCURVE",
"1055 1240 OFFCURVE",
"1038 1240 CURVE SMOOTH",
"1027 1240 OFFCURVE",
"1015 1238 OFFCURVE",
"1003 1233 CURVE",
"997 1232 OFFCURVE",
"990 1231 OFFCURVE",
"983 1231 CURVE SMOOTH",
"965 1231 OFFCURVE",
"946 1237 OFFCURVE",
"925 1250 CURVE",
"836 1326 OFFCURVE",
"731 1366 OFFCURVE",
"610 1371 CURVE SMOOTH",
"587 1371 LINE SMOOTH",
"475 1369 OFFCURVE",
"376 1334 OFFCURVE",
"289 1266 CURVE SMOOTH",
"262 1243 OFFCURVE",
"232 1231 OFFCURVE",
"201 1231 CURVE",
"194 1232 OFFCURVE",
"187 1232 OFFCURVE",
"180 1233 CURVE",
"173 1237 OFFCURVE",
"166 1238 OFFCURVE",
"159 1238 CURVE SMOOTH",
"147 1238 OFFCURVE",
"136 1233 OFFCURVE",
"125 1222 CURVE SMOOTH",
"114 1209 OFFCURVE",
"108 1195 OFFCURVE",
"108 1182 CURVE SMOOTH",
"108 1179 OFFCURVE",
"108 1175 OFFCURVE",
"109 1172 CURVE SMOOTH",
"114 1156 OFFCURVE",
"123 1144 OFFCURVE",
"134 1137 CURVE SMOOTH",
"161 1120 LINE SMOOTH",
"180 1109 OFFCURVE",
"189 1095 OFFCURVE",
"189 1078 CURVE SMOOTH",
"188 1063 OFFCURVE",
"187 1046 OFFCURVE",
"187 1027 CURVE SMOOTH",
"187 1017 OFFCURVE",
"188 1007 OFFCURVE",
"188 997 CURVE SMOOTH",
"189 977 OFFCURVE",
"190 934 OFFCURVE",
"191 899 CURVE SMOOTH",
"193 841 LINE SMOOTH",
"194 820 OFFCURVE",
"195 799 OFFCURVE",
"195 780 CURVE SMOOTH",
"195 725 OFFCURVE",
"191 675 OFFCURVE",
"184 629 CURVE",
"183 631 LINE",
"182 631 OFFCURVE",
"181 631 OFFCURVE",
"180 632 CURVE",
"160 608 OFFCURVE",
"150 587 OFFCURVE",
"150 571 CURVE SMOOTH",
"150 554 OFFCURVE",
"159 538 OFFCURVE",
"176 522 CURVE",
"182 522 LINE SMOOTH",
"181 522 OFFCURVE",
"180 521 OFFCURVE",
"178 521 CURVE",
"176 518 LINE",
"180 418 LINE",
"197 324 OFFCURVE",
"231 256 OFFCURVE",
"280 214 CURVE SMOOTH",
"292 203 OFFCURVE",
"300 193 OFFCURVE",
"303 184 CURVE",
"289 168 LINE SMOOTH",
"287 165 OFFCURVE",
"287 161 OFFCURVE",
"287 157 CURVE SMOOTH",
"287 151 OFFCURVE",
"289 144 OFFCURVE",
"293 138 CURVE SMOOTH",
"297 131 OFFCURVE",
"306 127 OFFCURVE",
"319 127 CURVE"
);
},
{
closed = 1;
nodes = (
"396 873 LINE",
"368 873 OFFCURVE",
"343 885 OFFCURVE",
"319 909 CURVE SMOOTH",
"293 938 OFFCURVE",
"280 971 OFFCURVE",
"280 1010 CURVE SMOOTH",
"280 1047 OFFCURVE",
"294 1082 OFFCURVE",
"322 1114 CURVE SMOOTH",
"349 1145 OFFCURVE",
"383 1160 OFFCURVE",
"425 1160 CURVE SMOOTH",
"466 1160 OFFCURVE",
"498 1149 OFFCURVE",
"519 1126 CURVE SMOOTH",
"540 1103 OFFCURVE",
"551 1071 OFFCURVE",
"551 1028 CURVE SMOOTH",
"551 1022 OFFCURVE",
"552 1015 OFFCURVE",
"552 1009 CURVE SMOOTH",
"552 971 OFFCURVE",
"539 941 OFFCURVE",
"513 918 CURVE SMOOTH",
"483 892 OFFCURVE",
"448 877 OFFCURVE",
"409 874 CURVE SMOOTH",
"404 873 OFFCURVE",
"400 873 OFFCURVE",
"396 873 CURVE"
);
},
{
closed = 1;
nodes = (
"793 874 LINE",
"753 878 OFFCURVE",
"721 892 OFFCURVE",
"697 914 CURVE SMOOTH",
"666 939 OFFCURVE",
"650 973 OFFCURVE",
"650 1014 CURVE SMOOTH",
"650 1018 OFFCURVE",
"650 1023 OFFCURVE",
"651 1028 CURVE",
"651 1070 OFFCURVE",
"662 1103 OFFCURVE",
"685 1126 CURVE SMOOTH",
"707 1149 OFFCURVE",
"738 1160 OFFCURVE",
"777 1160 CURVE SMOOTH",
"815 1160 OFFCURVE",
"849 1145 OFFCURVE",
"880 1114 CURVE SMOOTH",
"910 1084 OFFCURVE",
"925 1048 OFFCURVE",
"925 1006 CURVE SMOOTH",
"925 973 OFFCURVE",
"912 943 OFFCURVE",
"884 914 CURVE SMOOTH",
"858 888 OFFCURVE",
"827 874 OFFCURVE",
"793 874 CURVE"
);
},
{
closed = 1;
nodes = (
"606 769 LINE",
"594 769 OFFCURVE",
"582 771 OFFCURVE",
"568 772 CURVE SMOOTH",
"560 773 LINE SMOOTH",
"545 776 OFFCURVE",
"532 781 OFFCURVE",
"523 786 CURVE",
"514 793 OFFCURVE",
"509 807 OFFCURVE",
"509 828 CURVE SMOOTH",
"509 847 OFFCURVE",
"523 859 OFFCURVE",
"551 862 CURVE",
"551 863 LINE",
"567 879 OFFCURVE",
"585 887 OFFCURVE",
"603 887 CURVE SMOOTH",
"619 887 OFFCURVE",
"636 879 OFFCURVE",
"651 863 CURVE",
"661 863 OFFCURVE",
"667 862 OFFCURVE",
"670 860 CURVE",
"670 861 OFFCURVE",
"671 861 OFFCURVE",
"674 860 CURVE",
"676 860 OFFCURVE",
"693 841 OFFCURVE",
"695 839 CURVE",
"700 831 OFFCURVE",
"703 824 OFFCURVE",
"703 819 CURVE SMOOTH",
"703 809 OFFCURVE",
"700 800 OFFCURVE",
"695 793 CURVE SMOOTH",
"690 788 OFFCURVE",
"681 783 OFFCURVE",
"668 778 CURVE SMOOTH",
"653 773 OFFCURVE",
"639 771 OFFCURVE",
"627 771 CURVE",
"621 770 OFFCURVE",
"614 769 OFFCURVE",
"606 769 CURVE"
);
}
);
width = 1200;
}
);
note = uniE627;
unicode = E627;
},
{
color = 0;
glyphname = uniE628;
lastChange = "2019-11-04 21:29:28 +0000";
layers = (
{
layerId = "F8C3375C-B372-4BAE-A3FB-5A8DC7FA7AB9";
paths = (
{
closed = 1;
nodes = (
"223 875 LINE",
"223 264 LINE",
"368 264 LINE",
"368 875 LINE",
"573 875 LINE",
"573 989 LINE",
"22 989 LINE",
"22 875 LINE",
"223 875 LINE"
);
},
{
closed = 1;
nodes = (
"914 253 LINE",
"953 253 OFFCURVE",
"988 257 OFFCURVE",
"1020 266 CURVE SMOOTH",
"1052 274 OFFCURVE",
"1082 288 OFFCURVE",
"1107 306 CURVE SMOOTH",
"1134 324 OFFCURVE",
"1152 343 OFFCURVE",
"1161 366 CURVE SMOOTH",
"1172 390 OFFCURVE",
"1178 418 OFFCURVE",
"1178 449 CURVE SMOOTH",
"1178 481 OFFCURVE",
"1173 508 OFFCURVE",
"1165 530 CURVE SMOOTH",
"1155 556 OFFCURVE",
"1139 577 OFFCURVE",
"1118 594 CURVE SMOOTH",
"1101 607 OFFCURVE",
"1076 623 OFFCURVE",
"1041 642 CURVE SMOOTH",
"1003 661 OFFCURVE",
"968 675 OFFCURVE",
"938 683 CURVE",
"935 683 OFFCURVE",
"921 688 OFFCURVE",
"898 696 CURVE",
"889 698 OFFCURVE",
"877 702 OFFCURVE",
"863 705 CURVE",
"843 715 OFFCURVE",
"829 723 OFFCURVE",
"819 731 CURVE SMOOTH",
"803 746 OFFCURVE",
"793 755 OFFCURVE",
"791 760 CURVE",
"786 768 OFFCURVE",
"783 779 OFFCURVE",
"783 792 CURVE SMOOTH",
"783 808 OFFCURVE",
"784 819 OFFCURVE",
"787 826 CURVE",
"790 838 OFFCURVE",
"799 848 OFFCURVE",
"811 858 CURVE SMOOTH",
"826 868 OFFCURVE",
"840 873 OFFCURVE",
"853 876 CURVE",
"865 881 OFFCURVE",
"882 883 OFFCURVE",
"902 883 CURVE SMOOTH",
"922 883 OFFCURVE",
"940 880 OFFCURVE",
"955 875 CURVE SMOOTH",
"974 870 OFFCURVE",
"989 862 OFFCURVE",
"999 854 CURVE",
"1010 839 OFFCURVE",
"1018 826 OFFCURVE",
"1024 813 CURVE SMOOTH",
"1030 800 OFFCURVE",
"1033 784 OFFCURVE",
"1033 766 CURVE",
"1172 766 LINE",
"1172 792 OFFCURVE",
"1166 821 OFFCURVE",
"1152 850 CURVE SMOOTH",
"1141 875 OFFCURVE",
"1123 900 OFFCURVE",
"1099 923 CURVE SMOOTH",
"1076 945 OFFCURVE",
"1048 961 OFFCURVE",
"1016 972 CURVE SMOOTH",
"984 983 OFFCURVE",
"948 989 OFFCURVE",
"908 989 CURVE SMOOTH",
"869 989 OFFCURVE",
"834 984 OFFCURVE",
"802 975 CURVE SMOOTH",
"776 970 OFFCURVE",
"748 956 OFFCURVE",
"715 935 CURVE SMOOTH",
"688 917 OFFCURVE",
"669 896 OFFCURVE",
"657 873 CURVE SMOOTH",
"646 848 OFFCURVE",
"640 821 OFFCURVE",
"640 792 CURVE SMOOTH",
"640 764 OFFCURVE",
"645 737 OFFCURVE",
"656 713 CURVE SMOOTH",
"667 690 OFFCURVE",
"683 671 OFFCURVE",
"704 655 CURVE SMOOTH",
"724 639 OFFCURVE",
"752 623 OFFCURVE",
"788 604 CURVE",
"842 585 LINE SMOOTH",
"874 573 OFFCURVE",
"895 566 OFFCURVE",
"902 564 CURVE SMOOTH",
"935 553 OFFCURVE",
"955 544 OFFCURVE",
"964 539 CURVE",
"980 534 OFFCURVE",
"993 526 OFFCURVE",
"1003 515 CURVE SMOOTH",
"1012 507 OFFCURVE",
"1020 498 OFFCURVE",
"1025 488 CURVE SMOOTH",
"1031 477 OFFCURVE",
"1033 464 OFFCURVE",
"1033 449 CURVE SMOOTH",
"1033 433 OFFCURVE",
"1031 421 OFFCURVE",
"1028 412 CURVE SMOOTH",
"1025 404 OFFCURVE",
"1016 394 OFFCURVE",
"1003 383 CURVE SMOOTH",
"994 375 OFFCURVE",
"983 370 OFFCURVE",
"968 366 CURVE SMOOTH",
"954 363 OFFCURVE",
"937 361 OFFCURVE",
"914 361 CURVE SMOOTH",
"888 361 OFFCURVE",
"868 363 OFFCURVE",
"853 368 CURVE SMOOTH",
"832 373 OFFCURVE",
"816 381 OFFCURVE",
"806 389 CURVE SMOOTH",
"790 400 OFFCURVE",
"780 414 OFFCURVE",
"774 432 CURVE SMOOTH",
"767 449 OFFCURVE",
"763 466 OFFCURVE",
"763 484 CURVE",
"627 484 LINE",
"625 443 OFFCURVE",
"632 410 OFFCURVE",
"646 385 CURVE SMOOTH",
"663 358 OFFCURVE",
"684 334 OFFCURVE",
"710 313 CURVE SMOOTH",
"733 294 OFFCURVE",
"764 278 OFFCURVE",
"802 266 CURVE SMOOTH",
"838 257 OFFCURVE",
"875 253 OFFCURVE",
"914 253 CURVE"
);
}
);
width = 1200;
}
);
note = uniE628;
unicode = E628;
},
{
color = 0;
glyphname = uniE629;
lastChange = "2019-11-04 21:29:28 +0000";
layers = (
{
layerId = "F8C3375C-B372-4BAE-A3FB-5A8DC7FA7AB9";
paths = (
{
closed = 1;
nodes = (
"793 849 LINE",
"824 849 OFFCURVE",
"851 854 OFFCURVE",
"872 864 CURVE SMOOTH",
"896 874 OFFCURVE",
"916 890 OFFCURVE",
"933 911 CURVE SMOOTH",
"949 934 OFFCURVE",
"957 960 OFFCURVE",
"957 988 CURVE SMOOTH",
"957 1007 OFFCURVE",
"954 1024 OFFCURVE",
"946 1041 CURVE SMOOTH",
"941 1053 OFFCURVE",
"932 1065 OFFCURVE",
"920 1076 CURVE SMOOTH",
"910 1084 OFFCURVE",
"897 1092 OFFCURVE",
"880 1098 CURVE SMOOTH",
"861 1106 OFFCURVE",
"846 1111 OFFCURVE",
"835 1111 CURVE",
"831 1112 OFFCURVE",
"823 1114 OFFCURVE",
"814 1117 CURVE SMOOTH",
"803 1119 OFFCURVE",
"795 1121 OFFCURVE",
"789 1122 CURVE SMOOTH",
"786 1122 OFFCURVE",
"780 1125 OFFCURVE",
"771 1128 CURVE SMOOTH",
"752 1132 LINE",
"738 1139 OFFCURVE",
"729 1145 OFFCURVE",
"724 1151 CURVE",
"718 1156 OFFCURVE",
"714 1166 OFFCURVE",
"714 1178 CURVE SMOOTH",
"714 1188 OFFCURVE",
"718 1196 OFFCURVE",
"724 1203 CURVE",
"729 1207 OFFCURVE",
"737 1212 OFFCURVE",
"748 1217 CURVE SMOOTH",
"757 1220 OFFCURVE",
"766 1222 OFFCURVE",
"774 1222 CURVE SMOOTH",
"789 1222 OFFCURVE",
"801 1220 OFFCURVE",
"812 1216 CURVE SMOOTH",
"825 1211 OFFCURVE",
"834 1205 OFFCURVE",
"840 1195 CURVE SMOOTH",
"849 1183 OFFCURVE",
"854 1172 OFFCURVE",
"855 1162 CURVE",
"940 1164 LINE",
"937 1206 OFFCURVE",
"920 1239 OFFCURVE",
"891 1263 CURVE SMOOTH",
"861 1287 OFFCURVE",
"824 1300 OFFCURVE",
"780 1300 CURVE SMOOTH",
"763 1300 OFFCURVE",
"746 1298 OFFCURVE",
"732 1294 CURVE SMOOTH",
"715 1290 OFFCURVE",
"701 1284 OFFCURVE",
"690 1279 CURVE SMOOTH",
"679 1274 OFFCURVE",
"668 1266 OFFCURVE",
"655 1254 CURVE SMOOTH",
"643 1241 OFFCURVE",
"635 1228 OFFCURVE",
"630 1215 CURVE SMOOTH",
"624 1201 OFFCURVE",
"621 1185 OFFCURVE",
"621 1167 CURVE SMOOTH",
"621 1150 OFFCURVE",
"624 1133 OFFCURVE",
"631 1117 CURVE SMOOTH",
"637 1104 OFFCURVE",
"646 1092 OFFCURVE",
"659 1081 CURVE",
"678 1069 LINE",
"695 1061 OFFCURVE",
"710 1054 OFFCURVE",
"721 1051 CURVE SMOOTH",
"731 1048 OFFCURVE",
"739 1045 OFFCURVE",
"744 1045 CURVE",
"748 1044 OFFCURVE",
"755 1042 OFFCURVE",
"766 1039 CURVE SMOOTH",
"776 1037 OFFCURVE",
"784 1035 OFFCURVE",
"789 1034 CURVE SMOOTH",
"808 1029 OFFCURVE",
"821 1024 OFFCURVE",
"828 1021 CURVE SMOOTH",
"840 1017 OFFCURVE",
"849 1011 OFFCURVE",
"855 1005 CURVE",
"863 1000 OFFCURVE",
"867 991 OFFCURVE",
"867 981 CURVE SMOOTH",
"867 965 OFFCURVE",
"859 952 OFFCURVE",
"843 943 CURVE SMOOTH",
"828 934 OFFCURVE",
"812 930 OFFCURVE",
"797 930 CURVE SMOOTH",
"777 930 OFFCURVE",
"758 935 OFFCURVE",
"741 945 CURVE SMOOTH",
"725 956 OFFCURVE",
"714 971 OFFCURVE",
"708 990 CURVE",
"621 990 LINE",
"621 960 OFFCURVE",
"629 934 OFFCURVE",
"645 911 CURVE SMOOTH",
"661 890 OFFCURVE",
"682 875 OFFCURVE",
"709 864 CURVE SMOOTH",
"733 854 OFFCURVE",
"761 849 OFFCURVE",
"793 849 CURVE"
);
},
{
closed = 1;
nodes = (
"227 1292 LINE",
"227 854 LINE",
"314 854 LINE",
"314 1090 LINE",
"377 854 LINE",
"467 854 LINE",
"516 1100 LINE",
"523 854 LINE",
"607 854 LINE",
"607 1292 LINE",
"467 1292 LINE",
"418 1039 LINE",
"352 1292 LINE",
"227 1292 LINE"
);
},
{
closed = 1;
nodes = (
"353 349 LINE",
"374 349 OFFCURVE",
"390 354 OFFCURVE",
"400 365 CURVE SMOOTH",
"421 388 OFFCURVE",
"433 407 OFFCURVE",
"435 425 CURVE SMOOTH",
"454 581 LINE SMOOTH",
"458 617 OFFCURVE",
"475 648 OFFCURVE",
"504 675 CURVE SMOOTH",
"534 703 OFFCURVE",
"566 717 OFFCURVE",
"601 717 CURVE SMOOTH",
"622 717 LINE",
"640 753 OFFCURVE",
"668 785 OFFCURVE",
"705 813 CURVE",
"665 824 OFFCURVE",
"631 830 OFFCURVE",
"603 828 CURVE",
"545 828 OFFCURVE",
"493 813 OFFCURVE",
"446 783 CURVE SMOOTH",
"403 755 OFFCURVE",
"371 717 OFFCURVE",
"349 669 CURVE SMOOTH",
"327 622 OFFCURVE",
"316 568 OFFCURVE",
"316 510 CURVE SMOOTH",
"316 454 OFFCURVE",
"328 401 OFFCURVE",
"353 349 CURVE"
);
},
{
closed = 1;
nodes = (
"771 483 LINE",
"772 513 OFFCURVE",
"773 530 OFFCURVE",
"773 534 CURVE SMOOTH",
"773 554 OFFCURVE",
"771 568 OFFCURVE",
"768 578 CURVE SMOOTH",
"745 642 LINE",
"744 643 OFFCURVE",
"744 645 OFFCURVE",
"744 647 CURVE",
"742 649 LINE",
"744 664 OFFCURVE",
"751 677 OFFCURVE",
"764 689 CURVE SMOOTH",
"775 700 OFFCURVE",
"788 707 OFFCURVE",
"803 710 CURVE SMOOTH",
"823 715 OFFCURVE",
"838 717 OFFCURVE",
"850 717 CURVE SMOOTH",
"880 717 OFFCURVE",
"906 709 OFFCURVE",
"926 693 CURVE",
"946 682 OFFCURVE",
"959 661 OFFCURVE",
"965 630 CURVE",
"1081 630 LINE",
"1080 674 OFFCURVE",
"1067 710 OFFCURVE",
"1044 739 CURVE SMOOTH",
"1020 770 OFFCURVE",
"992 792 OFFCURVE",
"961 803 CURVE",
"933 816 OFFCURVE",
"894 822 OFFCURVE",
"844 822 CURVE SMOOTH",
"807 822 OFFCURVE",
"772 817 OFFCURVE",
"738 804 CURVE SMOOTH",
"709 794 OFFCURVE",
"682 773 OFFCURVE",
"659 741 CURVE SMOOTH",
"639 715 OFFCURVE",
"629 682 OFFCURVE",
"629 641 CURVE SMOOTH",
"629 594 OFFCURVE",
"640 560 OFFCURVE",
"663 537 CURVE SMOOTH",
"688 516 OFFCURVE",
"723 498 OFFCURVE",
"771 483 CURVE"
);
},
{
closed = 1;
nodes = (
"318 213 LINE",
"399 213 OFFCURVE",
"465 238 OFFCURVE",
"515 289 CURVE SMOOTH",
"569 344 OFFCURVE",
"597 420 OFFCURVE",
"597 517 CURVE SMOOTH",
"597 579 OFFCURVE",
"583 635 OFFCURVE",
"555 683 CURVE",
"530 671 OFFCURVE",
"510 656 OFFCURVE",
"495 635 CURVE SMOOTH",
"480 617 OFFCURVE",
"471 592 OFFCURVE",
"470 562 CURVE",
"457 441 LINE SMOOTH",
"456 428 OFFCURVE",
"451 412 OFFCURVE",
"442 394 CURVE SMOOTH",
"435 378 OFFCURVE",
"424 362 OFFCURVE",
"409 347 CURVE SMOOTH",
"393 334 OFFCURVE",
"379 327 OFFCURVE",
"368 327 CURVE SMOOTH",
"290 327 LINE",
"216 334 LINE",
"216 689 LINE",
"342 689 LINE",
"365 731 OFFCURVE",
"390 763 OFFCURVE",
"419 786 CURVE",
"419 795 LINE",
"384 806 OFFCURVE",
"345 812 OFFCURVE",
"303 812 CURVE SMOOTH",
"96 807 LINE",
"96 222 LINE",
"298 213 LINE SMOOTH",
"304 213 OFFCURVE",
"311 213 OFFCURVE",
"318 213 CURVE"
);
},
{
closed = 1;
nodes = (
"851 330 LINE",
"875 330 LINE",
"907 390 OFFCURVE",
"923 453 OFFCURVE",
"923 517 CURVE SMOOTH",
"923 580 OFFCURVE",
"907 640 OFFCURVE",
"875 696 CURVE",
"838 696 LINE SMOOTH",
"821 696 OFFCURVE",
"806 691 OFFCURVE",
"789 683 CURVE SMOOTH",
"773 677 OFFCURVE",
"765 668 OFFCURVE",
"765 656 CURVE SMOOTH",
"765 645 OFFCURVE",
"767 632 OFFCURVE",
"773 615 CURVE SMOOTH",
"776 603 OFFCURVE",
"780 586 OFFCURVE",
"787 565 CURVE SMOOTH",
"791 547 OFFCURVE",
"793 530 OFFCURVE",
"793 517 CURVE SMOOTH",
"793 503 OFFCURVE",
"792 486 OFFCURVE",
"789 468 CURVE SMOOTH",
"771 391 LINE",
"767 386 OFFCURVE",
"765 383 OFFCURVE",
"765 378 CURVE SMOOTH",
"765 362 OFFCURVE",
"776 350 OFFCURVE",
"796 340 CURVE",
"818 333 OFFCURVE",
"836 330 OFFCURVE",
"851 330 CURVE"
);
},
{
closed = 1;
nodes = (
"869 204 LINE",
"893 204 OFFCURVE",
"920 207 OFFCURVE",
"952 213 CURVE SMOOTH",
"980 220 OFFCURVE",
"1005 231 OFFCURVE",
"1028 246 CURVE SMOOTH",
"1050 261 OFFCURVE",
"1068 280 OFFCURVE",
"1084 303 CURVE",
"1097 332 OFFCURVE",
"1104 358 OFFCURVE",
"1104 384 CURVE SMOOTH",
"1104 413 OFFCURVE",
"1099 435 OFFCURVE",
"1091 451 CURVE SMOOTH",
"1081 474 OFFCURVE",
"1069 490 OFFCURVE",
"1053 501 CURVE SMOOTH",
"1040 511 OFFCURVE",
"1019 526 OFFCURVE",
"1005 534 CURVE",
"977 544 OFFCURVE",
"955 551 OFFCURVE",
"939 553 CURVE",
"933 438 LINE",
"948 432 OFFCURVE",
"959 424 OFFCURVE",
"967 413 CURVE SMOOTH",
"976 403 OFFCURVE",
"981 392 OFFCURVE",
"981 378 CURVE SMOOTH",
"981 367 OFFCURVE",
"977 355 OFFCURVE",
"970 343 CURVE",
"960 333 OFFCURVE",
"950 326 OFFCURVE",
"939 322 CURVE SMOOTH",
"925 317 OFFCURVE",
"914 313 OFFCURVE",
"904 313 CURVE SMOOTH",
"886 313 LINE",
"881 312 OFFCURVE",
"876 311 OFFCURVE",
"869 311 CURVE SMOOTH",
"826 311 OFFCURVE",
"795 318 OFFCURVE",
"774 331 CURVE SMOOTH",
"754 346 OFFCURVE",
"740 371 OFFCURVE",
"733 405 CURVE",
"620 405 LINE",
"618 391 LINE",
"618 382 LINE SMOOTH",
"618 358 OFFCURVE",
"626 332 OFFCURVE",
"641 303 CURVE SMOOTH",
"652 285 OFFCURVE",
"665 269 OFFCURVE",
"682 255 CURVE",
"703 241 OFFCURVE",
"722 231 OFFCURVE",
"740 225 CURVE SMOOTH",
"764 218 OFFCURVE",
"786 213 OFFCURVE",
"806 209 CURVE SMOOTH",
"825 206 OFFCURVE",
"846 204 OFFCURVE",
"869 204 CURVE"
);
},
{
closed = 1;
nodes = (
"618 198 LINE",
"650 198 OFFCURVE",
"682 203 OFFCURVE",
"714 213 CURVE",
"664 245 OFFCURVE",
"631 281 OFFCURVE",
"616 320 CURVE",
"566 322 LINE",
"540 283 LINE",
"483 225 LINE",
"528 207 OFFCURVE",
"573 198 OFFCURVE",
"618 198 CURVE"
);
}
);
width = 1200;
}
);
note = uniE629;
unicode = E629;
},
{
color = 0;
glyphname = uniE62A;
lastChange = "2019-11-04 21:29:28 +0000";
layers = (
{
layerId = "F8C3375C-B372-4BAE-A3FB-5A8DC7FA7AB9";
paths = (
{
closed = 1;
nodes = (
"509 842 LINE",
"580 801 LINE",
"687 1170 LINE",
"638 1207 OFFCURVE",
"591 1229 OFFCURVE",
"543 1235 CURVE SMOOTH",
"514 1240 OFFCURVE",
"486 1242 OFFCURVE",
"459 1242 CURVE SMOOTH",
"404 1241 OFFCURVE",
"355 1231 OFFCURVE",
"311 1211 CURVE SMOOTH",
"272 1195 LINE",
"166 824 LINE",
"236 847 LINE SMOOTH",
"293 865 OFFCURVE",
"331 875 OFFCURVE",
"375 875 CURVE SMOOTH",
"387 875 OFFCURVE",
"401 875 OFFCURVE",
"416 873 CURVE SMOOTH",
"448 869 OFFCURVE",
"479 859 OFFCURVE",
"509 842 CURVE"
);
},
{
closed = 1;
nodes = (
"846 688 LINE",
"865 688 OFFCURVE",
"884 690 OFFCURVE",
"902 692 CURVE SMOOTH",
"937 697 OFFCURVE",
"966 705 OFFCURVE",
"990 714 CURVE SMOOTH",
"1029 729 OFFCURVE",
"1050 738 OFFCURVE",
"1053 739 CURVE",
"1159 1107 LINE",
"1077 1078 LINE SMOOTH",
"1035 1064 OFFCURVE",
"995 1057 OFFCURVE",
"957 1057 CURVE SMOOTH",
"946 1057 OFFCURVE",
"934 1058 OFFCURVE",
"924 1059 CURVE SMOOTH",
"868 1065 OFFCURVE",
"808 1090 OFFCURVE",
"786 1104 CURVE SMOOTH",
"775 1110 OFFCURVE",
"761 1120 OFFCURVE",
"744 1131 CURVE",
"636 765 LINE",
"695 724 LINE SMOOTH",
"732 699 OFFCURVE",
"790 688 OFFCURVE",
"846 688 CURVE"
);
},
{
closed = 1;
nodes = (
"454 364 LINE",
"563 735 LINE",
"558 738 OFFCURVE",
"536 750 OFFCURVE",
"496 773 CURVE SMOOTH",
"453 796 OFFCURVE",
"401 809 OFFCURVE",
"346 809 CURVE SMOOTH",
"306 809 OFFCURVE",
"263 801 OFFCURVE",
"220 787 CURVE SMOOTH",
"187 775 OFFCURVE",
"163 766 OFFCURVE",
"146 760 CURVE",
"41 390 LINE",
"72 404 OFFCURVE",
"102 414 OFFCURVE",
"132 419 CURVE SMOOTH",
"170 427 OFFCURVE",
"210 436 OFFCURVE",
"254 436 CURVE SMOOTH",
"295 436 OFFCURVE",
"340 427 OFFCURVE",
"385 403 CURVE SMOOTH",
"416 386 OFFCURVE",
"439 373 OFFCURVE",
"454 364 CURVE"
);
},
{
closed = 1;
nodes = (
"721 256 LINE",
"765 256 OFFCURVE",
"812 264 OFFCURVE",
"855 280 CURVE SMOOTH",
"927 307 LINE",
"943 364 LINE SMOOTH",
"958 414 OFFCURVE",
"970 456 OFFCURVE",
"980 491 CURVE SMOOTH",
"987 517 OFFCURVE",
"999 559 OFFCURVE",
"1017 617 CURVE SMOOTH",
"1027 656 OFFCURVE",
"1033 675 OFFCURVE",
"1034 675 CURVE",
"1034 676 LINE",
"1031 673 LINE",
"983 654 OFFCURVE",
"942 641 OFFCURVE",
"910 635 CURVE SMOOTH",
"882 631 OFFCURVE",
"853 626 OFFCURVE",
"824 626 CURVE SMOOTH",
"782 626 OFFCURVE",
"737 635 OFFCURVE",
"686 663 CURVE SMOOTH",
"619 700 LINE",
"512 332 LINE",
"521 329 OFFCURVE",
"542 316 OFFCURVE",
"575 293 CURVE SMOOTH",
"611 269 OFFCURVE",
"664 256 OFFCURVE",
"721 256 CURVE"
);
}
);
width = 1200;
}
);
note = uniE62A;
unicode = E62A;
},
{
color = 0;
glyphname = uniE62B;
lastChange = "2019-11-04 21:29:28 +0000";
layers = (
{
layerId = "F8C3375C-B372-4BAE-A3FB-5A8DC7FA7AB9";
paths = (
{
closed = 1;
nodes = (
"148 287 LINE",
"175 259 LINE",
"270 259 LINE",
"1114 1114 LINE",
"1114 1193 LINE",
"1096 1212 LINE",
"725 1215 LINE",
"705 1188 LINE",
"705 1120 LINE",
"723 1097 LINE",
"755 1097 LINE",
"755 1097 OFFCURVE",
"757 1096 OFFCURVE",
"757 1096 CURVE",
"759 1094 OFFCURVE",
"760 1093 OFFCURVE",
"760 1091 CURVE SMOOTH",
"760 1087 LINE",
"759 1081 LINE",
"757 1080 LINE",
"755 1080 OFFCURVE",
"755 1079 OFFCURVE",
"755 1077 CURVE",
"460 789 LINE",
"456 788 OFFCURVE",
"453 786 OFFCURVE",
"451 784 CURVE",
"450 784 OFFCURVE",
"449 785 OFFCURVE",
"448 785 CURVE SMOOTH",
"445 785 OFFCURVE",
"443 786 OFFCURVE",
"443 788 CURVE",
"440 791 LINE",
"440 795 LINE",
"439 796 LINE",
"439 799 LINE",
"442 1085 LINE SMOOTH",
"442 1089 OFFCURVE",
"442 1091 OFFCURVE",
"444 1093 CURVE",
"445 1096 OFFCURVE",
"448 1097 OFFCURVE",
"452 1097 CURVE SMOOTH",
"483 1097 LINE",
"503 1119 LINE",
"503 1185 LINE",
"479 1212 LINE",
"101 1219 LINE",
"86 1202 LINE",
"86 1119 LINE",
"106 1101 LINE",
"135 1099 LINE",
"140 1099 LINE",
"141 1098 OFFCURVE",
"142 1097 OFFCURVE",
"144 1095 CURVE SMOOTH",
"146 1092 LINE",
"146 1087 LINE",
"148 287 LINE"
);
}
);
width = 1200;
}
);
note = uniE62B;
unicode = E62B;
},
{
color = 0;
glyphname = uniE62C;
lastChange = "2019-11-04 21:29:28 +0000";
layers = (
{
layerId = "F8C3375C-B372-4BAE-A3FB-5A8DC7FA7AB9";
paths = (
{
closed = 1;
nodes = (
"154 1200 LINE",
"360 995 LINE",
"806 995 LINE",
"600 1200 LINE",
"154 1200 LINE"
);
},
{
closed = 1;
nodes = (
"652 1200 LINE",
"1071 781 LINE",
"1071 1200 LINE",
"652 1200 LINE"
);
},
{
closed = 1;
nodes = (
"129 1174 LINE",
"129 284 LINE",
"575 730 LINE",
"129 1174 LINE"
);
},
{
closed = 1;
nodes = (
"396 958 LINE",
"600 755 LINE",
"804 958 LINE",
"396 958 LINE"
);
},
{
closed = 1;
nodes = (
"625 730 LINE",
"847 507 LINE",
"1071 731 LINE",
"849 953 LINE",
"625 730 LINE"
);
},
{
closed = 1;
nodes = (
"600 704 LINE",
"154 258 LINE",
"1046 258 LINE",
"600 704 LINE"
);
},
{
closed = 1;
nodes = (
"873 481 LINE",
"1071 284 LINE",
"1071 679 LINE",
"873 481 LINE"
);
}
);
width = 1200;
}
);
note = uniE62C;
unicode = E62C;
},
{
color = 0;
glyphname = uniE62D;
lastChange = "2019-11-04 21:29:28 +0000";
layers = (
{
layerId = "F8C3375C-B372-4BAE-A3FB-5A8DC7FA7AB9";
paths = (
{
closed = 1;
nodes = (
"609 150 LINE",
"701 150 OFFCURVE",
"795 186 OFFCURVE",
"866 252 CURVE SMOOTH",
"942 323 OFFCURVE",
"989 428 OFFCURVE",
"989 559 CURVE SMOOTH",
"989 612 OFFCURVE",
"981 656 OFFCURVE",
"965 691 CURVE SMOOTH",
"939 754 OFFCURVE",
"892 816 OFFCURVE",
"826 876 CURVE SMOOTH",
"799 903 OFFCURVE",
"770 933 OFFCURVE",
"740 968 CURVE SMOOTH",
"698 1020 OFFCURVE",
"667 1085 OFFCURVE",
"653 1129 CURVE SMOOTH",
"646 1152 OFFCURVE",
"641 1179 OFFCURVE",
"637 1212 CURVE SMOOTH",
"629 1277 OFFCURVE",
"630 1288 OFFCURVE",
"629 1348 CURVE",
"580 1325 OFFCURVE",
"522 1271 OFFCURVE",
"456 1188 CURVE SMOOTH",
"377 1088 OFFCURVE",
"316 984 OFFCURVE",
"275 879 CURVE SMOOTH",
"232 773 OFFCURVE",
"211 675 OFFCURVE",
"211 584 CURVE SMOOTH",
"211 437 OFFCURVE",
"256 325 OFFCURVE",
"344 246 CURVE SMOOTH",
"417 180 OFFCURVE",
"513 150 OFFCURVE",
"609 150 CURVE"
);
},
{
closed = 1;
nodes = (
"618 186 LINE",
"607 186 OFFCURVE",
"591 188 OFFCURVE",
"571 193 CURVE SMOOTH",
"496 209 OFFCURVE",
"433 239 OFFCURVE",
"383 280 CURVE",
"462 276 OFFCURVE",
"525 266 OFFCURVE",
"571 250 CURVE SMOOTH",
"584 246 OFFCURVE",
"595 241 OFFCURVE",
"606 235 CURVE SMOOTH",
"630 221 OFFCURVE",
"641 209 OFFCURVE",
"641 198 CURVE SMOOTH",
"641 190 OFFCURVE",
"633 186 OFFCURVE",
"618 186 CURVE"
);
}
);
width = 1200;
}
);
note = uniE62D;
unicode = E62D;
},
